{
.appVersion = "1075";
copyright = "Copyright © 2018 by Cadson Demak Co.,Ltd.. All rights reserved.";
customParameters = (
{
name = vendorID;
value = CDK;
},
{
name = description;
value = "Copyright (c) 2018, Cadson Demak (info@cadsondemak.com)";
},
{
name = license;

glyphs = (
{
glyphname = A;
layers = (
{
anchors = (
{
name = bottom;
position = "{252, 0}";
},
{
name = ogonek;
position = "{487, 10}";
},
{
name = top;
position = "{363, 700}";
}
);
layerId = "5FF70513-4D67-4EEC-9617-036848F9F755";
paths = (
{
closed = 1;
nodes = (
"19 -6 OFFCURVE",
"29 2 OFFCURVE",
"40 23 CURVE SMOOTH",
"144 227 LINE",
"439 227 LINE",
"484 -6 LINE",
"509 -6 OFFCURVE",
"520 7 OFFCURVE",
"515 31 CURVE SMOOTH",
"386 703 LINE",
"382 705 OFFCURVE",
"377 706 OFFCURVE",
"372 706 CURVE SMOOTH",
"356 706 OFFCURVE",
"343 696 OFFCURVE",
"331 671 CURVE SMOOTH",
"-10 0 LINE",
"-5 -4 OFFCURVE",
"1 -6 OFFCURVE",
"7 -6 CURVE SMOOTH"
);
},
{
closed = 1;
nodes = (
"358 649 LINE",
"433 259 LINE",
"160 259 LINE"
);
}
);
width = 583;
}
);
leftKerningGroup = A;
note = A;
rightKerningGroup = A;
unicode = 0041;
},
{
glyphname = AE;
layers = (
{
anchors = (
{
name = bottom;
position = "{357, 0}";
},
{
name = top;
position = "{468, 700}";
}
);
layerId = "5FF70513-4D67-4EEC-9617-036848F9F755";
paths = (
{
closed = 1;
nodes = (
"19 -6 OFFCURVE",
"29 2 OFFCURVE",
"40 23 CURVE SMOOTH",
"144 227 LINE",
"379 227 LINE",
"373 188 LINE SMOOTH",
"359 100 OFFCURVE",
"346 54 OFFCURVE",
"319 13 CURVE",
"323 0 LINE",
"690 0 LINE SMOOTH",
"708 0 OFFCURVE",
"720 7 OFFCURVE",
"722 20 CURVE SMOOTH",
"723 24 OFFCURVE",
"722 28 OFFCURVE",
"721 32 CURVE",
"368 32 LINE",
"391 74 OFFCURVE",
"403 136 OFFCURVE",
"411 188 CURVE SMOOTH",
"437 355 LINE",
"698 355 LINE SMOOTH",
"716 355 OFFCURVE",
"728 361 OFFCURVE",
"730 374 CURVE SMOOTH",
"731 378 OFFCURVE",
"731 382 OFFCURVE",
"729 386 CURVE",
"442 386 LINE",
"487 668 LINE",
"780 668 LINE SMOOTH",
"798 668 OFFCURVE",
"810 675 OFFCURVE",
"812 688 CURVE SMOOTH",
"813 692 OFFCURVE",
"812 696 OFFCURVE",
"811 700 CURVE",
"385 700 LINE SMOOTH",
"360 700 OFFCURVE",
"340 686 OFFCURVE",
"327 662 CURVE SMOOTH",
"-10 0 LINE",
"-5 -4 OFFCURVE",
"1 -6 OFFCURVE",
"7 -6 CURVE SMOOTH"
);
},
{
closed = 1;
nodes = (
"368 668 LINE",
"449 668 LINE",
"384 259 LINE",
"160 259 LINE"
);
}
);
width = 793;
}
);
leftMetricsKey = A;
note = AE;
rightMetricsKey = E;
unicode = 00C6;
},
{
glyphname = B;
layers = (
{
anchors = (
{
name = bottom;
position = "{235, 0}";
},
{
name = top;
position = "{346, 700}";
}
);
layerId = "5FF70513-4D67-4EEC-9617-036848F9F755";
paths = (
{
closed = 1;
nodes = (
"370 -10 OFFCURVE",
"497 79 OFFCURVE",
"497 224 CURVE SMOOTH",
"497 296 OFFCURVE",
"455 348 OFFCURVE",
"382 362 CURVE",
"462 383 OFFCURVE",
"515 463 OFFCURVE",
"515 548 CURVE SMOOTH",
"515 648 OFFCURVE",
"439 710 OFFCURVE",
"311 710 CURVE SMOOTH",
"251 710 OFFCURVE",
"198 704 OFFCURVE",
"142 704 CURVE",
"133 691 LINE",
"140 672 OFFCURVE",
"143 651 OFFCURVE",
"143 626 CURVE SMOOTH",
"143 597 OFFCURVE",
"138 561 OFFCURVE",
"131 514 CURVE SMOOTH",
"80 188 LINE SMOOTH",
"66 100 OFFCURVE",
"52 52 OFFCURVE",
"26 11 CURVE",
"30 -2 LINE",
"85 -2 OFFCURVE",
"148 -10 OFFCURVE",
"212 -10 CURVE SMOOTH"
);
},
{
closed = 1;
nodes = (
"94 59 OFFCURVE",
"108 129 OFFCURVE",
"118 188 CURVE SMOOTH",
"143 345 LINE",
"316 345 LINE SMOOTH",
"405 345 OFFCURVE",
"458 300 OFFCURVE",
"458 226 CURVE SMOOTH",
"458 105 OFFCURVE",
"360 22 OFFCURVE",
"227 22 CURVE SMOOTH",
"180 22 OFFCURVE",
"96 28 OFFCURVE",
"63 28 CURVE",
"67 17 LINE"
);
},
{
closed = 1;
nodes = (
"169 514 LINE SMOOTH",
"175 549 OFFCURVE",
"180 588 OFFCURVE",
"180 623 CURVE SMOOTH",
"180 645 OFFCURVE",
"178 666 OFFCURVE",
"172 683 CURVE",
"165 672 LINE",
"201 672 OFFCURVE",
"277 678 OFFCURVE",
"322 678 CURVE SMOOTH",
"418 678 OFFCURVE",
"475 627 OFFCURVE",
"475 546 CURVE SMOOTH",
"475 453 OFFCURVE",
"415 376 OFFCURVE",
"316 376 CURVE SMOOTH",
"148 376 LINE"
);
}
);
width = 550;
}
);
leftKerningGroup = E;
leftMetricsKey = E;
note = B;
rightKerningGroup = B;
unicode = 0042;
},
{
glyphname = C;
layers = (
{
anchors = (
{
name = bottom;
position = "{315, 0}";
},
{
name = top;
position = "{434, 700}";
}
);
layerId = "5FF70513-4D67-4EEC-9617-036848F9F755";
paths = (
{
closed = 1;
nodes = (
"443 -10 OFFCURVE",
"547 62 OFFCURVE",
"550 82 CURVE SMOOTH",
"552 94 OFFCURVE",
"546 100 OFFCURVE",
"533 100 CURVE",
"478 50 OFFCURVE",
"406 21 OFFCURVE",
"325 21 CURVE SMOOTH",
"182 21 OFFCURVE",
"100 116 OFFCURVE",
"100 271 CURVE SMOOTH",
"100 484 OFFCURVE",
"224 679 OFFCURVE",
"430 679 CURVE SMOOTH",
"511 679 OFFCURVE",
"573 650 OFFCURVE",
"612 600 CURVE",
"625 600 OFFCURVE",
"635 606 OFFCURVE",
"635 619 CURVE SMOOTH",
"635 641 OFFCURVE",
"555 710 OFFCURVE",
"436 710 CURVE SMOOTH",
"204 710 OFFCURVE",
"60 513 OFFCURVE",
"60 275 CURVE SMOOTH",
"60 102 OFFCURVE",
"153 -10 OFFCURVE",
"322 -10 CURVE SMOOTH"
);
}
);
width = 627;
}
);
leftKerningGroup = O;
leftMetricsKey = O;
note = C;
rightKerningGroup = C;
unicode = 0043;
},
{
glyphname = D;
layers = (
{
anchors = (
{
name = bottom;
position = "{270, 0}";
},
{
name = center;
position = "{325, 350}";
},
{
name = top;
position = "{381, 700}";
}
);
layerId = "5FF70513-4D67-4EEC-9617-036848F9F755";
paths = (
{
closed = 1;
nodes = (
"438 -10 OFFCURVE",
"592 182 OFFCURVE",
"592 415 CURVE SMOOTH",
"592 604 OFFCURVE",
"490 710 OFFCURVE",
"309 710 CURVE SMOOTH",
"265 710 OFFCURVE",
"191 704 OFFCURVE",
"142 704 CURVE",
"133 691 LINE",
"140 672 OFFCURVE",
"143 650 OFFCURVE",
"143 626 CURVE SMOOTH",
"143 596 OFFCURVE",
"138 561 OFFCURVE",
"131 514 CURVE SMOOTH",
"80 188 LINE SMOOTH",
"66 100 OFFCURVE",
"52 52 OFFCURVE",
"26 11 CURVE",
"30 -2 LINE",
"80 -2 OFFCURVE",
"149 -10 OFFCURVE",
"197 -10 CURVE SMOOTH"
);
},
{
closed = 1;
nodes = (
"94 58 OFFCURVE",
"110 138 OFFCURVE",
"118 188 CURVE SMOOTH",
"169 514 LINE SMOOTH",
"175 551 OFFCURVE",
"180 586 OFFCURVE",
"180 622 CURVE SMOOTH",
"180 645 OFFCURVE",
"178 666 OFFCURVE",
"172 683 CURVE",
"165 672 LINE",
"200 672 OFFCURVE",
"270 678 OFFCURVE",
"310 678 CURVE SMOOTH",
"464 678 OFFCURVE",
"553 587 OFFCURVE",
"553 418 CURVE SMOOTH",
"553 213 OFFCURVE",
"421 22 OFFCURVE",
"205 22 CURVE SMOOTH",
"167 22 OFFCURVE",
"97 28 OFFCURVE",
"63 28 CURVE",
"67 17 LINE"
);
}
);
width = 621;
}
);
leftKerningGroup = E;
leftMetricsKey = E;
note = D;
rightKerningGroup = O;
rightMetricsKey = O;
unicode = 0044;
},
{
glyphname = Eth;
layers = (
{
components = (
{
name = D;
}
);
layerId = "5FF70513-4D67-4EEC-9617-036848F9F755";
paths = (
{
closed = 1;
nodes = (
"363 334 LINE",
"368 366 LINE",
"18 366 LINE",
"13 334 LINE"
);
}
);
width = 621;
}
);
note = Eth;
rightMetricsKey = D;
unicode = 00D0;
},
{
glyphname = E;
layers = (
{
anchors = (
{
name = bottom;
position = "{230, 0}";
},
{
name = ogonek;
position = "{392, 10}";
},
{
name = top;
position = "{321, 700}";
},
{
name = topleft;
position = "{91, 700}";
}
);
layerId = "5FF70513-4D67-4EEC-9617-036848F9F755";
paths = (
{
closed = 1;
nodes = (
"397 0 LINE SMOOTH",
"415 0 OFFCURVE",
"427 7 OFFCURVE",
"429 20 CURVE SMOOTH",
"430 24 OFFCURVE",
"429 28 OFFCURVE",
"428 32 CURVE",
"64 32 LINE",
"67 17 LINE",
"94 59 OFFCURVE",
"108 129 OFFCURVE",
"118 188 CURVE SMOOTH",
"144 355 LINE",
"405 355 LINE SMOOTH",
"423 355 OFFCURVE",
"435 361 OFFCURVE",
"437 374 CURVE SMOOTH",
"438 378 OFFCURVE",
"438 382 OFFCURVE",
"436 386 CURVE",
"149 386 LINE",
"169 514 LINE SMOOTH",
"179 573 OFFCURVE",
"187 641 OFFCURVE",
"172 683 CURVE",
"165 668 LINE",
"487 668 LINE SMOOTH",
"505 668 OFFCURVE",
"517 675 OFFCURVE",
"519 688 CURVE SMOOTH",
"520 692 OFFCURVE",
"519 696 OFFCURVE",
"518 700 CURVE",
"141 700 LINE",
"133 687 LINE",
"146 646 OFFCURVE",
"145 602 OFFCURVE",
"131 514 CURVE SMOOTH",
"80 188 LINE SMOOTH",
"66 100 OFFCURVE",
"53 54 OFFCURVE",
"26 13 CURVE",
"30 0 LINE"
);
}
);
width = 500;
}
);
leftKerningGroup = E;
note = E;
rightKerningGroup = E;
unicode = 0045;
},
{
glyphname = F;
layers = (
{
anchors = (
{
name = bottom;
position = "{199, 0}";
},
{
name = top;
position = "{310, 700}";
}
);
layerId = "5FF70513-4D67-4EEC-9617-036848F9F755";
paths = (
{
closed = 1;
nodes = (
"77 -4 OFFCURVE",
"87 9 OFFCURVE",
"91 31 CURVE SMOOTH",
"141 345 LINE",
"386 345 LINE SMOOTH",
"404 345 OFFCURVE",
"416 351 OFFCURVE",
"418 364 CURVE SMOOTH",
"418 368 OFFCURVE",
"418 372 OFFCURVE",
"417 376 CURVE",
"146 376 LINE",
"167 514 LINE SMOOTH",
"177 573 OFFCURVE",
"185 641 OFFCURVE",
"170 683 CURVE",
"163 668 LINE",
"485 668 LINE SMOOTH",
"503 668 OFFCURVE",
"515 675 OFFCURVE",
"517 688 CURVE SMOOTH",
"518 692 OFFCURVE",
"517 696 OFFCURVE",
"516 700 CURVE",
"139 700 LINE",
"131 687 LINE",
"144 646 OFFCURVE",
"143 602 OFFCURVE",
"129 514 CURVE SMOOTH",
"48 0 LINE",
"53 -3 OFFCURVE",
"56 -4 OFFCURVE",
"60 -4 CURVE SMOOTH"
);
}
);
width = 478;
}
);
leftKerningGroup = F;
note = F;
rightKerningGroup = F;
unicode = 0046;
},
{
glyphname = G;
layers = (
{
anchors = (
{
name = bottom;
position = "{297, 0}";
},
{
name = top;
position = "{436, 700}";
}
);
layerId = "5FF70513-4D67-4EEC-9617-036848F9F755";
paths = (
{
closed = 1;
nodes = (
"507 -10 OFFCURVE",
"607 126 OFFCURVE",
"631 328 CURVE SMOOTH",
"632 335 OFFCURVE",
"632 340 OFFCURVE",
"631 346 CURVE",
"405 346 LINE SMOOTH",
"385 346 OFFCURVE",
"373 339 OFFCURVE",
"373 323 CURVE SMOOTH",
"373 321 OFFCURVE",
"373 318 OFFCURVE",
"374 315 CURVE",
"591 315 LINE",
"560 117 OFFCURVE",
"468 21 OFFCURVE",
"326 21 CURVE SMOOTH",
"183 21 OFFCURVE",
"101 116 OFFCURVE",
"101 271 CURVE SMOOTH",
"101 488 OFFCURVE",
"227 679 OFFCURVE",
"437 679 CURVE SMOOTH",
"522 679 OFFCURVE",
"594 647 OFFCURVE",
"626 597 CURVE",
"639 598 OFFCURVE",
"646 608 OFFCURVE",
"646 619 CURVE SMOOTH",
"646 641 OFFCURVE",
"565 710 OFFCURVE",
"437 710 CURVE SMOOTH",
"201 710 OFFCURVE",
"61 518 OFFCURVE",
"61 276 CURVE SMOOTH",
"61 103 OFFCURVE",
"159 -10 OFFCURVE",
"321 -10 CURVE SMOOTH"
);
}
);
width = 670;
}
);
leftKerningGroup = O;
leftMetricsKey = O;
note = G;
rightKerningGroup = G;
unicode = 0047;
},
{
glyphname = H;
layers = (
{
anchors = (
{
name = bottom;
position = "{288, 0}";
},
{
name = center;
position = "{338, 350}";
},
{
name = top;
position = "{394, 700}";
},
{
name = topleft;
position = "{90, 700}";
}
);
layerId = "5FF70513-4D67-4EEC-9617-036848F9F755";
paths = (
{
closed = 1;
nodes = (
"514 -4 OFFCURVE",
"524 9 OFFCURVE",
"528 31 CURVE SMOOTH",
"634 700 LINE",
"629 703 OFFCURVE",
"626 704 OFFCURVE",
"622 704 CURVE SMOOTH",
"605 704 OFFCURVE",
"594 691 OFFCURVE",
"591 669 CURVE SMOOTH",
"485 0 LINE",
"490 -3 OFFCURVE",
"493 -4 OFFCURVE",
"497 -4 CURVE SMOOTH"
);
},
{
closed = 1;
nodes = (
"72 -4 OFFCURVE",
"82 9 OFFCURVE",
"86 31 CURVE SMOOTH",
"192 700 LINE",
"187 703 OFFCURVE",
"184 704 OFFCURVE",
"180 704 CURVE SMOOTH",
"163 704 OFFCURVE",
"152 691 OFFCURVE",
"149 669 CURVE SMOOTH",
"43 0 LINE",
"48 -3 OFFCURVE",
"51 -4 OFFCURVE",
"55 -4 CURVE SMOOTH"
);
},
{
closed = 1;
nodes = (
"550 340 LINE",
"555 372 LINE",
"130 372 LINE",
"125 340 LINE"
);
}
);
width = 647;
}
);
leftKerningGroup = H;
leftMetricsKey = "=|";
note = H;
rightKerningGroup = H;
unicode = 0048;
},
{
glyphname = Hbar;
layers = (
{
components = (
{
name = H;
}
);
layerId = "5FF70513-4D67-4EEC-9617-036848F9F755";
paths = (
{
closed = 1;
nodes = (
"671 522 LINE",
"676 554 LINE",
"68 554 LINE",
"63 522 LINE"
);
}
);
width = 648;
}
);
note = Hbar;
unicode = 0126;
},
{
glyphname = I;
layers = (
{
anchors = (
{
name = bottom;
position = "{68, 0}";
},
{
name = ogonek;
position = "{66, 5}";
},
{
name = top;
position = "{179, 700}";
},
{
name = topleft;
position = "{90, 700}";
}
);
layerId = "5FF70513-4D67-4EEC-9617-036848F9F755";
paths = (
{
closed = 1;
nodes = (
"78 -4 OFFCURVE",
"88 9 OFFCURVE",
"92 31 CURVE SMOOTH",
"198 700 LINE",
"193 703 OFFCURVE",
"190 704 OFFCURVE",
"186 704 CURVE SMOOTH",
"169 704 OFFCURVE",
"158 691 OFFCURVE",
"155 669 CURVE SMOOTH",
"49 0 LINE",
"54 -3 OFFCURVE",
"57 -4 OFFCURVE",
"61 -4 CURVE SMOOTH"
);
}
);
width = 217;
}
);
leftKerningGroup = I;
leftMetricsKey = "=|";
note = I;
rightKerningGroup = I;
unicode = 0049;
},
{
glyphname = J;
layers = (
{
anchors = (
{
name = bottom;
position = "{139, 0}";
},
{
name = top;
position = "{334, 700}";
}
);
layerId = "5FF70513-4D67-4EEC-9617-036848F9F755";
paths = (
{
closed = 1;
nodes = (
"185 -10 OFFCURVE",
"245 46 OFFCURVE",
"261 147 CURVE SMOOTH",
"349 700 LINE",
"344 703 OFFCURVE",
"341 704 OFFCURVE",
"337 704 CURVE SMOOTH",
"320 704 OFFCURVE",
"309 691 OFFCURVE",
"306 669 CURVE SMOOTH",
"223 147 LINE SMOOTH",
"210 66 OFFCURVE",
"168 21 OFFCURVE",
"103 21 CURVE SMOOTH",
"62 21 OFFCURVE",
"37 39 OFFCURVE",
"19 57 CURVE",
"7 57 OFFCURVE",
"0 50 OFFCURVE",
"-2 37 CURVE SMOOTH",
"-5 16 OFFCURVE",
"37 -10 OFFCURVE",
"97 -10 CURVE SMOOTH"
);
}
);
width = 358;
}
);
leftKerningGroup = J;
note = J;
rightKerningGroup = J;
unicode = 004A;
},
{
glyphname = K;
layers = (
{
anchors = (
{
name = bottom;
position = "{224, 0}";
},
{
name = top;
position = "{335, 700}";
}
);
layerId = "5FF70513-4D67-4EEC-9617-036848F9F755";
paths = (
{
closed = 1;
nodes = (
"571 700 LINE",
"565 702 OFFCURVE",
"559 703 OFFCURVE",
"552 703 CURVE SMOOTH",
"534 703 OFFCURVE",
"522 696 OFFCURVE",
"510 684 CURVE SMOOTH",
"111 278 LINE",
"102 224 LINE"
);
},
{
closed = 1;
nodes = (
"72 -4 OFFCURVE",
"82 9 OFFCURVE",
"86 31 CURVE SMOOTH",
"192 700 LINE",
"187 703 OFFCURVE",
"184 704 OFFCURVE",
"180 704 CURVE SMOOTH",
"163 704 OFFCURVE",
"152 691 OFFCURVE",
"149 669 CURVE SMOOTH",
"43 0 LINE",
"48 -3 OFFCURVE",
"51 -4 OFFCURVE",
"55 -4 CURVE SMOOTH"
);
},
{
closed = 1;
nodes = (
"461 -4 OFFCURVE",
"469 -3 OFFCURVE",
"476 0 CURVE",
"477 6 LINE",
"469 9 OFFCURVE",
"463 19 OFFCURVE",
"453 38 CURVE SMOOTH",
"281 339 LINE SMOOTH",
"271 355 OFFCURVE",
"262 363 OFFCURVE",
"248 363 CURVE SMOOTH",
"240 363 OFFCURVE",
"233 361 OFFCURVE",
"225 358 CURVE",
"426 12 LINE SMOOTH",
"431 2 OFFCURVE",
"438 -4 OFFCURVE",
"454 -4 CURVE SMOOTH"
);
}
);
width = 528;
}
);
leftKerningGroup = H;
leftMetricsKey = H;
note = K;
rightKerningGroup = K;
unicode = 004B;
},
{
glyphname = L;
layers = (
{
anchors = (
{
name = bottom;
position = "{218, 0}";
},
{
name = center;
position = "{303, 350}";
},
{
name = top;
position = "{181, 700}";
},
{
name = topright;
position = "{526, 700}";
}
);
layerId = "5FF70513-4D67-4EEC-9617-036848F9F755";
paths = (
{
closed = 1;
nodes = (
"380 0 LINE SMOOTH",
"398 0 OFFCURVE",
"410 7 OFFCURVE",
"412 20 CURVE SMOOTH",
"413 24 OFFCURVE",
"412 28 OFFCURVE",
"411 32 CURVE",
"63 32 LINE",
"66 17 LINE",
"93 59 OFFCURVE",
"107 129 OFFCURVE",
"117 188 CURVE SMOOTH",
"198 700 LINE",
"193 703 OFFCURVE",
"190 704 OFFCURVE",
"186 704 CURVE SMOOTH",
"169 704 OFFCURVE",
"158 691 OFFCURVE",
"155 669 CURVE SMOOTH",
"79 188 LINE SMOOTH",
"65 100 OFFCURVE",
"52 54 OFFCURVE",
"25 13 CURVE",
"29 0 LINE"
);
}
);
width = 475;
}
);
leftKerningGroup = F;
leftMetricsKey = F;
note = L;
rightKerningGroup = L;
unicode = 004C;
},
{
glyphname = Lslash;
layers = (
{
components = (
{
name = L;
}
);
layerId = "5FF70513-4D67-4EEC-9617-036848F9F755";
paths = (
{
closed = 1;
nodes = (
"383 464 LINE",
"389 496 LINE",
"16 356 LINE",
"11 324 LINE"
);
}
);
width = 475;
}
);
note = Lslash;
rightMetricsKey = L;
unicode = 0141;
},
{
glyphname = M;
layers = (
{
anchors = (
{
name = bottom;
position = "{347, 0}";
},
{
name = top;
position = "{458, 700}";
}
);
layerId = "5FF70513-4D67-4EEC-9617-036848F9F755";
paths = (
{
closed = 1;
nodes = (
"72 -4 OFFCURVE",
"82 9 OFFCURVE",
"86 31 CURVE SMOOTH",
"182 640 LINE",
"350 70 LINE",
"366 70 LINE",
"677 578 LINE SMOOTH",
"704 626 OFFCURVE",
"719 650 OFFCURVE",
"730 665 CURVE",
"727 673 LINE",
"716 647 OFFCURVE",
"711 619 OFFCURVE",
"705 581 CURVE SMOOTH",
"613 0 LINE",
"618 -3 OFFCURVE",
"621 -4 OFFCURVE",
"625 -4 CURVE SMOOTH",
"642 -4 OFFCURVE",
"652 9 OFFCURVE",
"656 31 CURVE SMOOTH",
"743 581 LINE SMOOTH",
"752 637 OFFCURVE",
"761 660 OFFCURVE",
"782 687 CURVE",
"778 700 LINE",
"767 700 OFFCURVE",
"752 704 OFFCURVE",
"742 704 CURVE SMOOTH",
"721 704 OFFCURVE",
"709 696 OFFCURVE",
"691 666 CURVE SMOOTH",
"368 134 LINE",
"204 700 LINE",
"198 703 OFFCURVE",
"192 704 OFFCURVE",
"188 704 CURVE SMOOTH",
"166 704 OFFCURVE",
"152 690 OFFCURVE",
"148 664 CURVE SMOOTH",
"43 0 LINE",
"48 -3 OFFCURVE",
"51 -4 OFFCURVE",
"55 -4 CURVE SMOOTH"
);
}
);
width = 775;
}
);
leftKerningGroup = H;
leftMetricsKey = H;
note = M;
rightKerningGroup = M;
unicode = 004D;
},
{
glyphname = N;
layers = (
{
anchors = (
{
name = bottom;
position = "{279, 0}";
},
{
name = top;
position = "{390, 700}";
}
);
layerId = "5FF70513-4D67-4EEC-9617-036848F9F755";
paths = (
{
closed = 1;
nodes = (
"72 -4 OFFCURVE",
"82 9 OFFCURVE",
"86 31 CURVE SMOOTH",
"183 647 LINE",
"465 0 LINE",
"471 -3 OFFCURVE",
"477 -4 OFFCURVE",
"481 -4 CURVE SMOOTH",
"503 -4 OFFCURVE",
"517 10 OFFCURVE",
"521 36 CURVE SMOOTH",
"626 700 LINE",
"621 703 OFFCURVE",
"618 704 OFFCURVE",
"614 704 CURVE SMOOTH",
"597 704 OFFCURVE",
"586 691 OFFCURVE",
"583 669 CURVE SMOOTH",
"485 53 LINE",
"204 700 LINE",
"198 703 OFFCURVE",
"192 704 OFFCURVE",
"188 704 CURVE SMOOTH",
"166 704 OFFCURVE",
"152 690 OFFCURVE",
"148 664 CURVE SMOOTH",
"43 0 LINE",
"48 -3 OFFCURVE",
"51 -4 OFFCURVE",
"55 -4 CURVE SMOOTH"
);
}
);
width = 639;
}
);
leftKerningGroup = H;
leftMetricsKey = "=|";
note = N;
rightKerningGroup = H;
rightMetricsKey = H;
unicode = 004E;
},
{
glyphname = Eng;
lastChange = "2018-03-12 19:43:50 +0000";
layers = (
{
anchors = (
{
name = bottom;
position = "{279, 0}";
},
{
name = top;
position = "{390, 700}";
}
);
layerId = "5FF70513-4D67-4EEC-9617-036848F9F755";
paths = (
{
closed = 1;
nodes = (
"437 -170 OFFCURVE",
"498 -114 OFFCURVE",
"514 -13 CURVE SMOOTH",
"626 700 LINE",
"621 703 OFFCURVE",
"618 704 OFFCURVE",
"614 704 CURVE SMOOTH",
"597 704 OFFCURVE",
"586 691 OFFCURVE",
"583 669 CURVE SMOOTH",
"485 53 LINE",
"204 700 LINE",
"198 703 OFFCURVE",
"192 704 OFFCURVE",
"188 704 CURVE SMOOTH",
"166 704 OFFCURVE",
"152 690 OFFCURVE",
"148 664 CURVE SMOOTH",
"43 0 LINE",
"48 -3 OFFCURVE",
"51 -4 OFFCURVE",
"55 -4 CURVE SMOOTH",
"72 -4 OFFCURVE",
"82 9 OFFCURVE",
"86 31 CURVE SMOOTH",
"183 647 LINE",
"465 0 LINE",
"469 -2 OFFCURVE",
"473 -3 OFFCURVE",
"476 -4 CURVE",
"475 -13 LINE SMOOTH",
"463 -94 OFFCURVE",
"420 -139 OFFCURVE",
"355 -139 CURVE SMOOTH",
"314 -139 OFFCURVE",
"289 -121 OFFCURVE",
"271 -103 CURVE",
"259 -103 OFFCURVE",
"252 -110 OFFCURVE",
"250 -123 CURVE SMOOTH",
"247 -144 OFFCURVE",
"289 -170 OFFCURVE",
"349 -170 CURVE SMOOTH"
);
}
);
width = 639;
}
);
leftMetricsKey = N;
note = Eng;
rightMetricsKey = N;
unicode = 014A;
},
{
glyphname = O;
layers = (
{
anchors = (
{
name = bottom;
position = "{321, 0}";
},
{
name = center;
position = "{376, 350}";
},
{
name = ogonek;
position = "{612, 10}";
},
{
name = top;
position = "{432, 700}";
},
{
name = topleft;
position = "{91, 700}";
},
{
name = topright;
position = "{664, 510}";
}
);
layerId = "5FF70513-4D67-4EEC-9617-036848F9F755";
paths = (
{
closed = 1;
nodes = (
"553 -10 OFFCURVE",
"695 196 OFFCURVE",
"695 433 CURVE SMOOTH",
"695 605 OFFCURVE",
"594 710 OFFCURVE",
"428 710 CURVE SMOOTH",
"197 710 OFFCURVE",
"59 505 OFFCURVE",
"59 266 CURVE SMOOTH",
"59 95 OFFCURVE",
"159 -10 OFFCURVE",
"323 -10 CURVE SMOOTH"
);
},
{
closed = 1;
nodes = (
"180 21 OFFCURVE",
"98 115 OFFCURVE",
"98 270 CURVE SMOOTH",
"98 482 OFFCURVE",
"221 679 OFFCURVE",
"428 679 CURVE SMOOTH",
"572 679 OFFCURVE",
"655 584 OFFCURVE",
"655 429 CURVE SMOOTH",
"655 215 OFFCURVE",
"530 21 OFFCURVE",
"323 21 CURVE SMOOTH"
);
}
);
width = 722;
}
);
leftKerningGroup = O;
note = O;
rightKerningGroup = O;
unicode = 004F;
},
{
glyphname = Oslash;
layers = (
{
components = (
{
name = O;
}
);
layerId = "5FF70513-4D67-4EEC-9617-036848F9F755";
paths = (
{
closed = 1;
nodes = (
"112 -60 LINE",
"679 760 LINE",
"640 760 LINE",
"73 -60 LINE"
);
}
);
width = 722;
}
);
leftMetricsKey = O;
note = Oslash;
rightMetricsKey = O;
unicode = 00D8;
},
{
glyphname = OE;
layers = (
{
anchors = (
{
name = bottom;
position = "{487, 0}";
},
{
name = top;
position = "{598, 700}";
}
);
layerId = "5FF70513-4D67-4EEC-9617-036848F9F755";
paths = (
{
closed = 1;
nodes = (
"448 -10 OFFCURVE",
"555 54 OFFCURVE",
"622 164 CURVE",
"609 91 OFFCURVE",
"596 50 OFFCURVE",
"572 13 CURVE",
"576 0 LINE",
"943 0 LINE SMOOTH",
"963 0 OFFCURVE",
"975 8 OFFCURVE",
"975 24 CURVE SMOOTH",
"975 26 OFFCURVE",
"975 29 OFFCURVE",
"974 32 CURVE",
"621 32 LINE",
"643 74 OFFCURVE",
"655 136 OFFCURVE",
"664 188 CURVE SMOOTH",
"690 355 LINE",
"951 355 LINE SMOOTH",
"971 355 OFFCURVE",
"984 363 OFFCURVE",
"984 379 CURVE SMOOTH",
"984 381 OFFCURVE",
"983 384 OFFCURVE",
"982 386 CURVE",
"695 386 LINE",
"715 514 LINE SMOOTH",
"721 549 OFFCURVE",
"726 587 OFFCURVE",
"726 622 CURVE SMOOTH",
"726 638 OFFCURVE",
"725 654 OFFCURVE",
"722 668 CURVE",
"1033 668 LINE SMOOTH",
"1053 668 OFFCURVE",
"1065 676 OFFCURVE",
"1065 692 CURVE SMOOTH",
"1065 694 OFFCURVE",
"1065 697 OFFCURVE",
"1064 700 CURVE",
"687 700 LINE",
"679 687 LINE",
"692 646 OFFCURVE",
"689 592 OFFCURVE",
"681 537 CURVE",
"649 646 OFFCURVE",
"562 710 OFFCURVE",
"432 710 CURVE SMOOTH",
"201 710 OFFCURVE",
"59 505 OFFCURVE",
"59 266 CURVE SMOOTH",
"59 95 OFFCURVE",
"154 -10 OFFCURVE",
"318 -10 CURVE SMOOTH"
);
},
{
closed = 1;
nodes = (
"180 21 OFFCURVE",
"98 115 OFFCURVE",
"98 270 CURVE SMOOTH",
"98 482 OFFCURVE",
"221 679 OFFCURVE",
"428 679 CURVE SMOOTH",
"572 679 OFFCURVE",
"655 584 OFFCURVE",
"655 429 CURVE SMOOTH",
"655 215 OFFCURVE",
"530 21 OFFCURVE",
"323 21 CURVE SMOOTH"
);
}
);
width = 1046;
}
);
leftMetricsKey = O;
note = OE;
rightMetricsKey = E;
unicode = 0152;
},
{
glyphname = P;
layers = (
{
anchors = (
{
name = bottom;
position = "{68, 0}";
},
{
name = top;
position = "{333, 700}";
}
);
layerId = "5FF70513-4D67-4EEC-9617-036848F9F755";
paths = (
{
closed = 1;
nodes = (
"80 -4 OFFCURVE",
"89 13 OFFCURVE",
"92 31 CURVE SMOOTH",
"168 514 LINE SMOOTH",
"174 549 OFFCURVE",
"179 588 OFFCURVE",
"179 623 CURVE SMOOTH",
"179 645 OFFCURVE",
"177 666 OFFCURVE",
"171 683 CURVE",
"164 672 LINE",
"199 672 OFFCURVE",
"279 678 OFFCURVE",
"318 678 CURVE SMOOTH",
"430 678 OFFCURVE",
"495 628 OFFCURVE",
"495 537 CURVE SMOOTH",
"495 426 OFFCURVE",
"399 346 OFFCURVE",
"269 346 CURVE SMOOTH",
"132 346 LINE",
"127 315 LINE",
"248 315 LINE SMOOTH",
"405 315 OFFCURVE",
"535 403 OFFCURVE",
"535 540 CURVE SMOOTH",
"535 647 OFFCURVE",
"457 710 OFFCURVE",
"304 710 CURVE SMOOTH",
"257 710 OFFCURVE",
"194 704 OFFCURVE",
"141 704 CURVE",
"132 691 LINE",
"139 672 OFFCURVE",
"142 650 OFFCURVE",
"142 626 CURVE SMOOTH",
"142 596 OFFCURVE",
"137 561 OFFCURVE",
"130 514 CURVE SMOOTH",
"49 0 LINE",
"54 -3 OFFCURVE",
"57 -4 OFFCURVE",
"61 -4 CURVE SMOOTH"
);
}
);
width = 523;
}
);
leftKerningGroup = F;
leftMetricsKey = F;
note = P;
rightKerningGroup = P;
unicode = 0050;
},
{
glyphname = Thorn;
layers = (
{
layerId = "5FF70513-4D67-4EEC-9617-036848F9F755";
paths = (
{
closed = 1;
nodes = (
"269 192 LINE SMOOTH",
"410 192 OFFCURVE",
"503 273 OFFCURVE",
"503 407 CURVE SMOOTH",
"503 502 OFFCURVE",
"441 560 OFFCURVE",
"318 560 CURVE SMOOTH",
"158 560 LINE",
"153 529 LINE",
"318 529 LINE SMOOTH",
"415 529 OFFCURVE",
"464 482 OFFCURVE",
"464 404 CURVE SMOOTH",
"464 298 OFFCURVE",
"389 223 OFFCURVE",
"269 223 CURVE SMOOTH",
"104 223 LINE",
"99 192 LINE"
);
},
{
closed = 1;
nodes = (
"72 -4 OFFCURVE",
"82 9 OFFCURVE",
"86 31 CURVE SMOOTH",
"194 716 LINE",
"190 719 OFFCURVE",
"186 720 OFFCURVE",
"182 720 CURVE SMOOTH",
"165 720 OFFCURVE",
"155 707 OFFCURVE",
"151 685 CURVE SMOOTH",
"43 0 LINE",
"48 -3 OFFCURVE",
"51 -4 OFFCURVE",
"55 -4 CURVE SMOOTH"
);
}
);
width = 513;
}
);
leftMetricsKey = H;
note = Thorn;
rightMetricsKey = P;
unicode = 00DE;
},
{
glyphname = Q;
layers = (
{
anchors = (
{
name = bottom;
position = "{297, -150}";
},
{
name = top;
position = "{432, 700}";
}
);
layerId = "5FF70513-4D67-4EEC-9617-036848F9F755";
paths = (
{
closed = 1;
nodes = (
"552 -10 OFFCURVE",
"695 196 OFFCURVE",
"695 433 CURVE SMOOTH",
"695 605 OFFCURVE",
"594 710 OFFCURVE",
"428 710 CURVE SMOOTH",
"197 710 OFFCURVE",
"59 505 OFFCURVE",
"59 266 CURVE SMOOTH",
"59 95 OFFCURVE",
"158 -10 OFFCURVE",
"322 -10 CURVE SMOOTH"
);
},
{
closed = 1;
nodes = (
"180 21 OFFCURVE",
"98 115 OFFCURVE",
"98 270 CURVE SMOOTH",
"98 482 OFFCURVE",
"221 679 OFFCURVE",
"428 679 CURVE SMOOTH",
"572 679 OFFCURVE",
"655 584 OFFCURVE",
"655 429 CURVE SMOOTH",
"655 215 OFFCURVE",
"530 21 OFFCURVE",
"323 21 CURVE SMOOTH"
);
},
{
closed = 1;
nodes = (
"539 -150 OFFCURVE",
"559 -141 OFFCURVE",
"562 -120 CURVE",
"442 -120 OFFCURVE",
"395 -96 OFFCURVE",
"182 51 CURVE",
"143 51 LINE",
"335 -109 OFFCURVE",
"421 -150 OFFCURVE",
"511 -150 CURVE SMOOTH"
);
}
);
width = 722;
}
);
leftKerningGroup = O;
leftMetricsKey = O;
note = Q;
rightKerningGroup = O;
rightMetricsKey = O;
unicode = 0051;
},
{
glyphname = R;
layers = (
{
anchors = (
{
name = bottom;
position = "{240, 0}";
},
{
name = top;
position = "{321, 700}";
}
);
layerId = "5FF70513-4D67-4EEC-9617-036848F9F755";
paths = (
{
closed = 1;
nodes = (
"78 -4 OFFCURVE",
"88 9 OFFCURVE",
"92 31 CURVE SMOOTH",
"168 514 LINE SMOOTH",
"174 549 OFFCURVE",
"179 588 OFFCURVE",
"179 623 CURVE SMOOTH",
"179 645 OFFCURVE",
"177 666 OFFCURVE",
"171 683 CURVE",
"164 672 LINE",
"200 672 OFFCURVE",
"276 678 OFFCURVE",
"321 678 CURVE SMOOTH",
"426 678 OFFCURVE",
"489 629 OFFCURVE",
"489 549 CURVE SMOOTH",
"489 438 OFFCURVE",
"395 362 OFFCURVE",
"271 362 CURVE SMOOTH",
"134 362 LINE",
"129 331 LINE",
"256 331 LINE SMOOTH",
"408 331 OFFCURVE",
"528 412 OFFCURVE",
"528 551 CURVE SMOOTH",
"528 648 OFFCURVE",
"447 710 OFFCURVE",
"310 710 CURVE SMOOTH",
"250 710 OFFCURVE",
"197 704 OFFCURVE",
"141 704 CURVE",
"132 691 LINE",
"139 672 OFFCURVE",
"142 651 OFFCURVE",
"142 626 CURVE SMOOTH",
"142 597 OFFCURVE",
"137 561 OFFCURVE",
"130 514 CURVE SMOOTH",
"49 0 LINE",
"54 -3 OFFCURVE",
"57 -4 OFFCURVE",
"61 -4 CURVE SMOOTH"
);
},
{
closed = 1;
nodes = (
"476 -4 OFFCURVE",
"485 -2 OFFCURVE",
"492 1 CURVE",
"493 7 LINE",
"473 20 OFFCURVE",
"457 52 OFFCURVE",
"421 172 CURVE SMOOTH",
"382 304 OFFCURVE",
"357 343 OFFCURVE",
"290 356 CURVE",
"250 347 LINE",
"324 325 OFFCURVE",
"348 286 OFFCURVE",
"386 154 CURVE SMOOTH",
"428 8 OFFCURVE",
"442 -4 OFFCURVE",
"466 -4 CURVE SMOOTH"
);
}
);
width = 558;
}
);
leftKerningGroup = F;
leftMetricsKey = F;
note = R;
rightKerningGroup = R;
unicode = 0052;
},
{
glyphname = S;
layers = (
{
anchors = (
{
name = bottom;
position = "{234, 0}";
},
{
name = top;
position = "{339, 700}";
}
);
layerId = "5FF70513-4D67-4EEC-9617-036848F9F755";
paths = (
{
closed = 1;
nodes = (
"379 -10 OFFCURVE",
"484 69 OFFCURVE",
"484 209 CURVE SMOOTH",
"484 288 OFFCURVE",
"433 343 OFFCURVE",
"304 392 CURVE SMOOTH",
"194 434 OFFCURVE",
"149 472 OFFCURVE",
"149 530 CURVE SMOOTH",
"149 621 OFFCURVE",
"225 679 OFFCURVE",
"331 679 CURVE SMOOTH",
"410 679 OFFCURVE",
"472 650 OFFCURVE",
"511 600 CURVE",
"524 600 OFFCURVE",
"534 606 OFFCURVE",
"534 619 CURVE SMOOTH",
"534 641 OFFCURVE",
"459 710 OFFCURVE",
"330 710 CURVE SMOOTH",
"201 710 OFFCURVE",
"110 645 OFFCURVE",
"110 524 CURVE SMOOTH",
"110 455 OFFCURVE",
"157 404 OFFCURVE",
"273 361 CURVE SMOOTH",
"396 317 OFFCURVE",
"444 273 OFFCURVE",
"444 202 CURVE SMOOTH",
"444 88 OFFCURVE",
"357 21 OFFCURVE",
"228 21 CURVE SMOOTH",
"139 21 OFFCURVE",
"77 50 OFFCURVE",
"38 100 CURVE",
"25 100 OFFCURVE",
"15 94 OFFCURVE",
"15 81 CURVE SMOOTH",
"15 59 OFFCURVE",
"89 -10 OFFCURVE",
"230 -10 CURVE SMOOTH"
);
}
);
width = 536;
}
);
leftKerningGroup = S;
note = S;
rightKerningGroup = S;
unicode = 0053;
},
{
glyphname = Germandbls;
layers = (
{
layerId = "5FF70513-4D67-4EEC-9617-036848F9F755";
paths = (
{
closed = 1;
nodes = (
"405 -10 OFFCURVE",
"505 87 OFFCURVE",
"505 224 CURVE SMOOTH",
"505 325 OFFCURVE",
"433 385 OFFCURVE",
"312 385 CURVE",
"513 537 LINE",
"506 654 OFFCURVE",
"448 710 OFFCURVE",
"338 710 CURVE SMOOTH",
"223 710 OFFCURVE",
"140 647 OFFCURVE",
"125 547 CURVE SMOOTH",
"38 0 LINE",
"43 -3 OFFCURVE",
"46 -4 OFFCURVE",
"50 -4 CURVE SMOOTH",
"67 -4 OFFCURVE",
"77 9 OFFCURVE",
"81 31 CURVE SMOOTH",
"163 547 LINE SMOOTH",
"175 628 OFFCURVE",
"242 679 OFFCURVE",
"334 679 CURVE SMOOTH",
"420 679 OFFCURVE",
"466 635 OFFCURVE",
"470 545 CURVE",
"245 373 LINE",
"242 353 LINE",
"304 353 LINE SMOOTH",
"405 353 OFFCURVE",
"466 302 OFFCURVE",
"466 218 CURVE SMOOTH",
"466 109 OFFCURVE",
"388 21 OFFCURVE",
"272 21 CURVE SMOOTH",
"218 21 OFFCURVE",
"194 40 OFFCURVE",
"176 58 CURVE",
"163 58 OFFCURVE",
"155 50 OFFCURVE",
"155 36 CURVE SMOOTH",
"155 15 OFFCURVE",
"196 -10 OFFCURVE",
"267 -10 CURVE SMOOTH"
);
}
);
width = 558;
}
);
note = uni1E9E;
rightMetricsKey = B;
unicode = 1E9E;
},
{
glyphname = Schwa;
layers = (
{
layerId = "5FF70513-4D67-4EEC-9617-036848F9F755";
paths = (
{
closed = 1;
nodes = (
"504 -10 OFFCURVE",
"632 206 OFFCURVE",
"632 435 CURVE SMOOTH",
"632 606 OFFCURVE",
"533 710 OFFCURVE",
"368 710 CURVE SMOOTH",
"231 710 OFFCURVE",
"129 638 OFFCURVE",
"126 618 CURVE SMOOTH",
"124 606 OFFCURVE",
"129 600 OFFCURVE",
"145 600 CURVE",
"205 650 OFFCURVE",
"285 679 OFFCURVE",
"366 679 CURVE SMOOTH",
"512 679 OFFCURVE",
"593 585 OFFCURVE",
"593 433 CURVE SMOOTH",
"593 411 OFFCURVE",
"592 387 OFFCURVE",
"588 362 CURVE",
"69 362 LINE",
"58 335 OFFCURVE",
"52 278 OFFCURVE",
"52 239 CURVE SMOOTH",
"52 84 OFFCURVE",
"135 -10 OFFCURVE",
"288 -10 CURVE SMOOTH"
);
},
{
closed = 1;
nodes = (
"155 21 OFFCURVE",
"93 99 OFFCURVE",
"93 243 CURVE SMOOTH",
"93 269 OFFCURVE",
"95 297 OFFCURVE",
"99 328 CURVE",
"584 334 LINE",
"551 143 OFFCURVE",
"435 21 OFFCURVE",
"288 21 CURVE SMOOTH"
);
}
);
width = 660;
}
);
note = uni018F;
unicode = 018F;
},
{
glyphname = T;
layers = (
{
anchors = (
{
name = bottom;
position = "{212, 0}";
},
{
name = center;
position = "{267, 350}";
},
{
name = top;
position = "{323, 700}";
}
);
layerId = "5FF70513-4D67-4EEC-9617-036848F9F755";
paths = (
{
closed = 1;
nodes = (
"222 -4 OFFCURVE",
"232 9 OFFCURVE",
"236 31 CURVE SMOOTH",
"339 684 LINE",
"301 684 LINE",
"193 0 LINE",
"198 -3 OFFCURVE",
"201 -4 OFFCURVE",
"205 -4 CURVE SMOOTH"
);
},
{
closed = 1;
nodes = (
"515 668 LINE SMOOTH",
"533 668 OFFCURVE",
"545 675 OFFCURVE",
"547 688 CURVE SMOOTH",
"548 692 OFFCURVE",
"547 696 OFFCURVE",
"546 700 CURVE",
"126 700 LINE SMOOTH",
"108 700 OFFCURVE",
"96 693 OFFCURVE",
"94 680 CURVE SMOOTH",
"93 676 OFFCURVE",
"93 672 OFFCURVE",
"95 668 CURVE"
);
}
);
width = 504;
}
);
leftKerningGroup = T;
note = T;
rightKerningGroup = T;
unicode = 0054;
},
{
glyphname = Tbar;
layers = (
{
components = (
{
name = T;
}
);
layerId = "5FF70513-4D67-4EEC-9617-036848F9F755";
paths = (
{
closed = 1;
nodes = (
"448 344 LINE",
"453 374 LINE",
"89 374 LINE",
"84 344 LINE"
);
}
);
width = 504;
}
);
leftKerningGroup = T;
note = Tbar;
rightKerningGroup = T;
unicode = 0166;
},
{
glyphname = U;
layers = (
{
anchors = (
{
name = bottom;
position = "{267, 0}";
},
{
name = ogonek;
position = "{300, 4}";
},
{
name = top;
position = "{378, 700}";
},
{
name = topright;
position = "{578, 510}";
}
);
layerId = "5FF70513-4D67-4EEC-9617-036848F9F755";
paths = (
{
closed = 1;
nodes = (
"406 -10 OFFCURVE",
"512 95 OFFCURVE",
"538 261 CURVE SMOOTH",
"608 700 LINE",
"603 703 OFFCURVE",
"600 704 OFFCURVE",
"596 704 CURVE SMOOTH",
"579 704 OFFCURVE",
"568 691 OFFCURVE",
"565 669 CURVE SMOOTH",
"503 277 LINE SMOOTH",
"477 112 OFFCURVE",
"393 21 OFFCURVE",
"270 21 CURVE SMOOTH",
"167 21 OFFCURVE",
"113 85 OFFCURVE",
"113 202 CURVE SMOOTH",
"113 225 OFFCURVE",
"115 250 OFFCURVE",
"119 277 CURVE SMOOTH",
"186 700 LINE",
"181 703 OFFCURVE",
"178 704 OFFCURVE",
"174 704 CURVE SMOOTH",
"157 704 OFFCURVE",
"146 691 OFFCURVE",
"143 669 CURVE SMOOTH",
"78 261 LINE SMOOTH",
"74 239 OFFCURVE",
"73 217 OFFCURVE",
"73 197 CURVE SMOOTH",
"73 68 OFFCURVE",
"143 -10 OFFCURVE",
"265 -10 CURVE SMOOTH"
);
}
);
width = 615;
}
);
leftKerningGroup = U;
leftMetricsKey = "=|";
note = U;
rightKerningGroup = U;
unicode = 0055;
},
{
glyphname = V;
layers = (
{
anchors = (
{
name = bottom;
position = "{242, 0}";
},
{
name = top;
position = "{353, 700}";
}
);
layerId = "5FF70513-4D67-4EEC-9617-036848F9F755";
paths = (
{
closed = 1;
nodes = (
"245 0 LINE",
"609 700 LINE",
"603 703 OFFCURVE",
"597 704 OFFCURVE",
"592 704 CURVE SMOOTH",
"580 704 OFFCURVE",
"569 697 OFFCURVE",
"562 683 CURVE SMOOTH",
"250 83 LINE",
"125 704 LINE",
"105 704 OFFCURVE",
"90 689 OFFCURVE",
"94 669 CURVE SMOOTH",
"229 0 LINE"
);
}
);
width = 564;
}
);
leftKerningGroup = V;
note = V;
rightKerningGroup = V;
unicode = 0056;
},
{
glyphname = W;
layers = (
{
anchors = (
{
name = bottom;
position = "{379, 0}";
},
{
name = top;
position = "{490, 700}";
}
);
layerId = "5FF70513-4D67-4EEC-9617-036848F9F755";
paths = (
{
closed = 1;
nodes = (
"194 0 LINE",
"477 646 LINE",
"556 0 LINE",
"572 0 LINE",
"881 700 LINE",
"875 703 OFFCURVE",
"869 704 OFFCURVE",
"864 704 CURVE SMOOTH",
"852 704 OFFCURVE",
"841 698 OFFCURVE",
"834 683 CURVE SMOOTH",
"580 99 LINE",
"509 700 LINE",
"503 703 OFFCURVE",
"499 704 OFFCURVE",
"493 704 CURVE SMOOTH",
"475 704 OFFCURVE",
"461 695 OFFCURVE",
"452 674 CURVE SMOOTH",
"202 100 LINE",
"130 704 LINE",
"105 704 OFFCURVE",
"92 690 OFFCURVE",
"95 665 CURVE SMOOTH",
"178 0 LINE"
);
}
);
width = 838;
}
);
leftKerningGroup = V;
note = W;
rightKerningGroup = V;
unicode = 0057;
},
{
glyphname = X;
layers = (
{
anchors = (
{
name = bottom;
position = "{247, 0}";
},
{
name = top;
position = "{358, 700}";
}
);
layerId = "5FF70513-4D67-4EEC-9617-036848F9F755";
paths = (
{
closed = 1;
nodes = (
"35 -4 OFFCURVE",
"45 4 OFFCURVE",
"57 21 CURVE SMOOTH",
"576 700 LINE",
"568 703 OFFCURVE",
"560 704 OFFCURVE",
"555 704 CURVE SMOOTH",
"542 704 OFFCURVE",
"531 696 OFFCURVE",
"517 677 CURVE SMOOTH",
"0 0 LINE",
"5 -2 OFFCURVE",
"13 -4 OFFCURVE",
"20 -4 CURVE SMOOTH"
);
},
{
closed = 1;
nodes = (
"485 -4 OFFCURVE",
"497 4 OFFCURVE",
"497 17 CURVE SMOOTH",
"497 22 OFFCURVE",
"495 27 OFFCURVE",
"492 33 CURVE SMOOTH",
"155 704 LINE",
"137 704 OFFCURVE",
"127 696 OFFCURVE",
"127 684 CURVE SMOOTH",
"127 680 OFFCURVE",
"128 675 OFFCURVE",
"130 671 CURVE SMOOTH",
"470 -4 LINE"
);
}
);
width = 574;
}
);
leftKerningGroup = X;
note = X;
rightKerningGroup = X;
unicode = 0058;
},
{
glyphname = Y;
layers = (
{
anchors = (
{
name = bottom;
position = "{215, 0}";
},
{
name = top;
position = "{332, 700}";
},
{
name = topleft;
position = "{91, 700}";
}
);
layerId = "5FF70513-4D67-4EEC-9617-036848F9F755";
paths = (
{
closed = 1;
nodes = (
"225 -4 OFFCURVE",
"235 9 OFFCURVE",
"239 31 CURVE SMOOTH",
"280 288 LINE",
"574 700 LINE",
"568 703 OFFCURVE",
"561 704 OFFCURVE",
"556 704 CURVE SMOOTH",
"543 704 OFFCURVE",
"535 698 OFFCURVE",
"522 680 CURVE SMOOTH",
"266 321 LINE",
"115 704 LINE",
"97 704 OFFCURVE",
"87 697 OFFCURVE",
"87 684 CURVE SMOOTH",
"87 680 OFFCURVE",
"88 674 OFFCURVE",
"91 668 CURVE SMOOTH",
"242 288 LINE",
"196 0 LINE",
"201 -3 OFFCURVE",
"204 -4 OFFCURVE",
"208 -4 CURVE SMOOTH"
);
}
);
width = 521;
}
);
leftKerningGroup = Y;
note = Y;
rightKerningGroup = Y;
unicode = 0059;
},
{
glyphname = Z;
layers = (
{
anchors = (
{
name = bottom;
position = "{213, 0}";
},
{
name = top;
position = "{324, 700}";
}
);
layerId = "5FF70513-4D67-4EEC-9617-036848F9F755";
paths = (
{
closed = 1;
nodes = (
"411 0 LINE SMOOTH",
"429 0 OFFCURVE",
"441 7 OFFCURVE",
"443 20 CURVE SMOOTH",
"444 24 OFFCURVE",
"443 28 OFFCURVE",
"442 32 CURVE",
"39 32 LINE",
"541 688 LINE",
"543 700 LINE",
"138 700 LINE SMOOTH",
"120 700 OFFCURVE",
"108 693 OFFCURVE",
"106 680 CURVE SMOOTH",
"105 676 OFFCURVE",
"105 672 OFFCURVE",
"107 668 CURVE",
"488 668 LINE",
"-16 12 LINE",
"-18 0 LINE"
);
}
);
width = 506;
}
);
leftKerningGroup = Z;
note = Z;
rightKerningGroup = Z;
unicode = 005A;
},
{
glyphname = a;
layers = (
{
anchors = (
{
name = bottom;
position = "{193, 0}";
},
{
name = ogonek;
position = "{340, 10}";
},
{
name = top;
position = "{274, 510}";
}
);
layerId = "5FF70513-4D67-4EEC-9617-036848F9F755";
paths = (
{
closed = 1;
nodes = (
"229 -10 OFFCURVE",
"292 21 OFFCURVE",
"335 64 CURVE",
"325 0 LINE",
"330 -3 OFFCURVE",
"333 -4 OFFCURVE",
"337 -4 CURVE SMOOTH",
"354 -4 OFFCURVE",
"363 9 OFFCURVE",
"367 31 CURVE SMOOTH",
"414 330 LINE SMOOTH",
"416 344 OFFCURVE",
"417 358 OFFCURVE",
"417 371 CURVE SMOOTH",
"417 465 OFFCURVE",
"361 520 OFFCURVE",
"265 520 CURVE SMOOTH",
"173 520 OFFCURVE",
"99 464 OFFCURVE",
"96 444 CURVE SMOOTH",
"94 432 OFFCURVE",
"100 426 OFFCURVE",
"113 426 CURVE",
"167 474 OFFCURVE",
"216 490 OFFCURVE",
"261 490 CURVE SMOOTH",
"336 490 OFFCURVE",
"380 444 OFFCURVE",
"380 367 CURVE SMOOTH",
"380 355 OFFCURVE",
"379 343 OFFCURVE",
"377 330 CURVE SMOOTH",
"365 254 LINE",
"342 283 OFFCURVE",
"297 303 OFFCURVE",
"233 303 CURVE SMOOTH",
"115 303 OFFCURVE",
"30 231 OFFCURVE",
"30 118 CURVE SMOOTH",
"30 42 OFFCURVE",
"79 -10 OFFCURVE",
"163 -10 CURVE SMOOTH"
);
},
{
closed = 1;
nodes = (
"104 20 OFFCURVE",
"69 57 OFFCURVE",
"69 116 CURVE SMOOTH",
"69 211 OFFCURVE",
"133 273 OFFCURVE",
"223 273 CURVE SMOOTH",
"293 273 OFFCURVE",
"363 245 OFFCURVE",
"354 185 CURVE SMOOTH",
"349 152 LINE SMOOTH",
"336 70 OFFCURVE",
"241 20 OFFCURVE",
"164 20 CURVE SMOOTH"
);
}
);
width = 466;
}
);
leftKerningGroup = a;
note = a;
rightKerningGroup = n;
rightMetricsKey = n;
unicode = 0061;
},
{
glyphname = "alpha-latin";
layers = (
{
layerId = "5FF70513-4D67-4EEC-9617-036848F9F755";
paths = (
{
closed = 1;
nodes = (
"268 -10 OFFCURVE",
"332 31 OFFCURVE",
"380 96 CURVE",
"365 0 LINE",
"370 -3 OFFCURVE",
"373 -4 OFFCURVE",
"377 -4 CURVE SMOOTH",
"394 -4 OFFCURVE",
"403 9 OFFCURVE",
"407 31 CURVE SMOOTH",
"456 341 LINE SMOOTH",
"474 450 OFFCURVE",
"404 520 OFFCURVE",
"292 520 CURVE SMOOTH",
"127 520 OFFCURVE",
"32 350 OFFCURVE",
"32 173 CURVE SMOOTH",
"32 57 OFFCURVE",
"91 -10 OFFCURVE",
"193 -10 CURVE SMOOTH"
);
},
{
closed = 1;
nodes = (
"113 20 OFFCURVE",
"70 76 OFFCURVE",
"70 174 CURVE SMOOTH",
"70 328 OFFCURVE",
"149 490 OFFCURVE",
"293 490 CURVE SMOOTH",
"381 490 OFFCURVE",
"435 423 OFFCURVE",
"419 341 CURVE SMOOTH",
"401 225 LINE SMOOTH",
"382 106 OFFCURVE",
"294 20 OFFCURVE",
"196 20 CURVE SMOOTH"
);
}
);
width = 506;
}
);
leftKerningGroup = a;
note = ascript;
rightKerningGroup = a;
unicode = 0251;
},
{
glyphname = ae;
layers = (
{
anchors = (
{
name = bottom;
position = "{356, 0}";
},
{
name = top;
position = "{437, 510}";
}
);
layerId = "5FF70513-4D67-4EEC-9617-036848F9F755";
paths = (
{
closed = 1;
nodes = (
"263 -10 OFFCURVE",
"340 38 OFFCURVE",
"376 119 CURVE",
"398 37 OFFCURVE",
"461 -10 OFFCURVE",
"553 -10 CURVE SMOOTH",
"655 -10 OFFCURVE",
"735 48 OFFCURVE",
"738 68 CURVE SMOOTH",
"740 80 OFFCURVE",
"734 86 OFFCURVE",
"721 86 CURVE",
"670 43 OFFCURVE",
"613 20 OFFCURVE",
"554 20 CURVE SMOOTH",
"455 20 OFFCURVE",
"401 86 OFFCURVE",
"401 193 CURVE SMOOTH",
"401 210 OFFCURVE",
"402 227 OFFCURVE",
"405 246 CURVE",
"777 246 LINE",
"787 265 OFFCURVE",
"790 305 OFFCURVE",
"790 337 CURVE SMOOTH",
"790 451 OFFCURVE",
"728 520 OFFCURVE",
"616 520 CURVE SMOOTH",
"526 520 OFFCURVE",
"456 473 OFFCURVE",
"414 395 CURVE",
"405 473 OFFCURVE",
"352 520 OFFCURVE",
"269 520 CURVE SMOOTH",
"177 520 OFFCURVE",
"99 464 OFFCURVE",
"96 444 CURVE SMOOTH",
"94 432 OFFCURVE",
"100 426 OFFCURVE",
"113 426 CURVE",
"167 474 OFFCURVE",
"216 490 OFFCURVE",
"261 490 CURVE SMOOTH",
"349 490 OFFCURVE",
"392 427 OFFCURVE",
"377 330 CURVE SMOOTH",
"365 254 LINE",
"342 283 OFFCURVE",
"297 303 OFFCURVE",
"233 303 CURVE SMOOTH",
"115 303 OFFCURVE",
"30 229 OFFCURVE",
"30 116 CURVE SMOOTH",
"30 40 OFFCURVE",
"82 -10 OFFCURVE",
"166 -10 CURVE SMOOTH"
);
},
{
closed = 1;
nodes = (
"104 20 OFFCURVE",
"69 57 OFFCURVE",
"69 116 CURVE SMOOTH",
"69 211 OFFCURVE",
"133 273 OFFCURVE",
"223 273 CURVE SMOOTH",
"293 273 OFFCURVE",
"369 244 OFFCURVE",
"354 185 CURVE SMOOTH",
"349 152 LINE SMOOTH",
"336 70 OFFCURVE",
"241 20 OFFCURVE",
"164 20 CURVE SMOOTH"
);
},
{
closed = 1;
nodes = (
"433 406 OFFCURVE",
"514 490 OFFCURVE",
"617 490 CURVE SMOOTH",
"709 490 OFFCURVE",
"752 429 OFFCURVE",
"752 331 CURVE SMOOTH",
"752 315 OFFCURVE",
"751 298 OFFCURVE",
"749 280 CURVE",
"410 274 LINE"
);
}
);
width = 820;
}
);
leftMetricsKey = a;
note = ae;
rightMetricsKey = e;
unicode = 00E6;
},
{
glyphname = b;
layers = (
{
anchors = (
{
name = bottom;
position = "{228, 0}";
},
{
name = top;
position = "{177, 720}";
}
);
layerId = "5FF70513-4D67-4EEC-9617-036848F9F755";
paths = (
{
closed = 1;
nodes = (
"402 -10 OFFCURVE",
"504 150 OFFCURVE",
"504 334 CURVE SMOOTH",
"504 453 OFFCURVE",
"440 520 OFFCURVE",
"337 520 CURVE SMOOTH",
"257 520 OFFCURVE",
"195 479 OFFCURVE",
"147 414 CURVE",
"194 716 LINE",
"190 719 OFFCURVE",
"186 720 OFFCURVE",
"182 720 CURVE SMOOTH",
"165 720 OFFCURVE",
"156 707 OFFCURVE",
"152 685 CURVE SMOOTH",
"74 188 LINE SMOOTH",
"60 100 OFFCURVE",
"47 72 OFFCURVE",
"19 31 CURVE",
"23 18 LINE",
"98 18 OFFCURVE",
"151 -10 OFFCURVE",
"227 -10 CURVE SMOOTH"
);
},
{
closed = 1;
nodes = (
"174 20 OFFCURVE",
"120 48 OFFCURVE",
"57 48 CURVE",
"59 37 LINE",
"89 79 OFFCURVE",
"101 129 OFFCURVE",
"111 188 CURVE SMOOTH",
"126 285 LINE SMOOTH",
"145 404 OFFCURVE",
"233 490 OFFCURVE",
"336 490 CURVE SMOOTH",
"420 490 OFFCURVE",
"466 433 OFFCURVE",
"466 333 CURVE SMOOTH",
"466 177 OFFCURVE",
"386 20 OFFCURVE",
"238 20 CURVE SMOOTH"
);
}
);
width = 537;
}
);
leftKerningGroup = b;
note = b;
rightKerningGroup = o;
rightMetricsKey = o;
unicode = 0062;
},
{
glyphname = c;
layers = (
{
anchors = (
{
name = bottom;
position = "{227, 0}";
},
{
name = top;
position = "{302, 510}";
}
);
layerId = "5FF70513-4D67-4EEC-9617-036848F9F755";
paths = (
{
closed = 1;
nodes = (
"320 -10 OFFCURVE",
"398 46 OFFCURVE",
"401 66 CURVE SMOOTH",
"403 78 OFFCURVE",
"397 84 OFFCURVE",
"384 84 CURVE",
"333 41 OFFCURVE",
"280 20 OFFCURVE",
"224 20 CURVE SMOOTH",
"125 20 OFFCURVE",
"73 86 OFFCURVE",
"73 194 CURVE SMOOTH",
"73 344 OFFCURVE",
"153 490 OFFCURVE",
"299 490 CURVE SMOOTH",
"355 490 OFFCURVE",
"401 469 OFFCURVE",
"438 426 CURVE",
"451 426 OFFCURVE",
"461 432 OFFCURVE",
"461 445 CURVE SMOOTH",
"461 466 OFFCURVE",
"392 520 OFFCURVE",
"298 520 CURVE SMOOTH",
"136 520 OFFCURVE",
"35 363 OFFCURVE",
"35 195 CURVE SMOOTH",
"35 68 OFFCURVE",
"111 -10 OFFCURVE",
"224 -10 CURVE SMOOTH"
);
}
);
width = 471;
}
);
leftKerningGroup = o;
leftMetricsKey = o;
note = c;
rightKerningGroup = c;
unicode = 0063;
},
{
glyphname = d;
layers = (
{
anchors = (
{
name = bottom;
position = "{225, 0}";
},
{
name = center;
position = "{265, 255}";
},
{
name = top;
position = "{514, 724}";
},
{
name = topright;
position = "{488, 510}";
}
);
layerId = "5FF70513-4D67-4EEC-9617-036848F9F755";
paths = (
{
closed = 1;
nodes = (
"281 -10 OFFCURVE",
"342 31 OFFCURVE",
"390 96 CURVE",
"375 0 LINE",
"380 -3 OFFCURVE",
"383 -4 OFFCURVE",
"387 -4 CURVE SMOOTH",
"404 -4 OFFCURVE",
"413 9 OFFCURVE",
"417 31 CURVE SMOOTH",
"526 720 LINE",
"522 723 OFFCURVE",
"518 724 OFFCURVE",
"514 724 CURVE SMOOTH",
"497 724 OFFCURVE",
"488 711 OFFCURVE",
"484 689 CURVE SMOOTH",
"446 449 LINE",
"420 489 OFFCURVE",
"368 520 OFFCURVE",
"297 520 CURVE SMOOTH",
"133 520 OFFCURVE",
"33 356 OFFCURVE",
"33 178 CURVE SMOOTH",
"33 60 OFFCURVE",
"98 -10 OFFCURVE",
"201 -10 CURVE SMOOTH"
);
},
{
closed = 1;
nodes = (
"117 20 OFFCURVE",
"71 77 OFFCURVE",
"71 178 CURVE SMOOTH",
"71 331 OFFCURVE",
"153 490 OFFCURVE",
"298 490 CURVE SMOOTH",
"389 490 OFFCURVE",
"446 425 OFFCURVE",
"429 341 CURVE SMOOTH",
"411 225 LINE SMOOTH",
"392 106 OFFCURVE",
"304 20 OFFCURVE",
"201 20 CURVE SMOOTH"
);
}
);
width = 529;
}
);
leftKerningGroup = o;
leftMetricsKey = o;
note = d;
rightKerningGroup = u;
rightMetricsKey = u;
unicode = 0064;
},
{
glyphname = eth;
layers = (
{
layerId = "5FF70513-4D67-4EEC-9617-036848F9F755";
paths = (
{
closed = 1;
nodes = (
"331 -10 OFFCURVE",
"429 92 OFFCURVE",
"454 252 CURVE SMOOTH",
"477 400 LINE SMOOTH",
"482 434 OFFCURVE",
"485 465 OFFCURVE",
"485 494 CURVE SMOOTH",
"485 634 OFFCURVE",
"421 710 OFFCURVE",
"302 710 CURVE SMOOTH",
"257 710 OFFCURVE",
"224 689 OFFCURVE",
"221 669 CURVE SMOOTH",
"219 657 OFFCURVE",
"223 651 OFFCURVE",
"234 651 CURVE",
"253 673 OFFCURVE",
"275 680 OFFCURVE",
"297 680 CURVE SMOOTH",
"396 680 OFFCURVE",
"449 616 OFFCURVE",
"449 497 CURVE SMOOTH",
"449 473 OFFCURVE",
"447 445 OFFCURVE",
"442 416 CURVE",
"422 462 OFFCURVE",
"362 497 OFFCURVE",
"290 497 CURVE SMOOTH",
"128 497 OFFCURVE",
"32 343 OFFCURVE",
"32 174 CURVE SMOOTH",
"32 63 OFFCURVE",
"94 -10 OFFCURVE",
"196 -10 CURVE SMOOTH"
);
},
{
closed = 1;
nodes = (
"117 20 OFFCURVE",
"70 78 OFFCURVE",
"70 174 CURVE SMOOTH",
"70 318 OFFCURVE",
"151 467 OFFCURVE",
"291 467 CURVE SMOOTH",
"388 467 OFFCURVE",
"438 401 OFFCURVE",
"422 304 CURVE SMOOTH",
"413 244 LINE SMOOTH",
"391 107 OFFCURVE",
"307 20 OFFCURVE",
"197 20 CURVE SMOOTH"
);
},
{
closed = 1;
nodes = (
"580 645 LINE",
"585 675 LINE",
"317 575 LINE",
"312 545 LINE"
);
}
);
width = 518;
}
);
leftMetricsKey = d;
note = eth;
unicode = 00F0;
},
{
glyphname = dcroat;
layers = (
{
components = (
{
name = d;
}
);
layerId = "5FF70513-4D67-4EEC-9617-036848F9F755";
paths = (
{
closed = 1;
nodes = (
"585 600 LINE",
"590 630 LINE",
"360 630 LINE",
"355 600 LINE"
);
}
);
width = 530;
}
);
note = dslash;
unicode = 0111;
},
{
glyphname = e;
layers = (
{
anchors = (
{
name = bottom;
position = "{226, 0}";
},
{
name = ogonek;
position = "{371, 42}";
},
{
name = top;
position = "{299, 510}";
}
);
layerId = "5FF70513-4D67-4EEC-9617-036848F9F755";
paths = (
{
closed = 1;
nodes = (
"332 -10 OFFCURVE",
"408 48 OFFCURVE",
"408 71 CURVE SMOOTH",
"408 77 OFFCURVE",
"406 86 OFFCURVE",
"393 86 CURVE",
"342 43 OFFCURVE",
"285 20 OFFCURVE",
"226 20 CURVE SMOOTH",
"127 20 OFFCURVE",
"73 86 OFFCURVE",
"73 193 CURVE SMOOTH",
"73 210 OFFCURVE",
"74 227 OFFCURVE",
"77 246 CURVE",
"449 246 LINE",
"459 266 OFFCURVE",
"463 312 OFFCURVE",
"463 338 CURVE SMOOTH",
"463 449 OFFCURVE",
"398 520 OFFCURVE",
"290 520 CURVE SMOOTH",
"128 520 OFFCURVE",
"35 366 OFFCURVE",
"35 195 CURVE SMOOTH",
"35 70 OFFCURVE",
"109 -10 OFFCURVE",
"226 -10 CURVE SMOOTH"
);
},
{
closed = 1;
nodes = (
"104 402 OFFCURVE",
"181 490 OFFCURVE",
"289 490 CURVE SMOOTH",
"380 490 OFFCURVE",
"423 429 OFFCURVE",
"423 330 CURVE SMOOTH",
"423 314 OFFCURVE",
"422 298 OFFCURVE",
"420 280 CURVE",
"81 274 LINE"
);
}
);
width = 492;
}
);
leftKerningGroup = o;
leftMetricsKey = o;
note = e;
rightKerningGroup = e;
unicode = 0065;
},
{
glyphname = f;
layers = (
{
anchors = (
{
name = bottom;
position = "{87, 0}";
},
{
name = top;
position = "{281, 730}";
}
);
layerId = "5FF70513-4D67-4EEC-9617-036848F9F755";
paths = (
{
closed = 1;
nodes = (
"95 -4 OFFCURVE",
"104 9 OFFCURVE",
"108 31 CURVE SMOOTH",
"201 620 LINE SMOOTH",
"209 669 OFFCURVE",
"231 700 OFFCURVE",
"277 700 CURVE SMOOTH",
"299 700 OFFCURVE",
"319 693 OFFCURVE",
"330 671 CURVE",
"341 671 OFFCURVE",
"347 677 OFFCURVE",
"349 689 CURVE SMOOTH",
"352 709 OFFCURVE",
"326 730 OFFCURVE",
"281 730 CURVE SMOOTH",
"218 730 OFFCURVE",
"175 691 OFFCURVE",
"165 624 CURVE SMOOTH",
"66 0 LINE",
"71 -3 OFFCURVE",
"74 -4 OFFCURVE",
"78 -4 CURVE SMOOTH"
);
},
{
closed = 1;
nodes = (
"287 480 LINE SMOOTH",
"305 480 OFFCURVE",
"317 487 OFFCURVE",
"319 499 CURVE SMOOTH",
"320 503 OFFCURVE",
"319 506 OFFCURVE",
"318 510 CURVE",
"84 510 LINE SMOOTH",
"66 510 OFFCURVE",
"54 503 OFFCURVE",
"52 491 CURVE SMOOTH",
"51 488 OFFCURVE",
"52 484 OFFCURVE",
"53 480 CURVE"
);
}
);
width = 292;
}
);
leftKerningGroup = f;
note = f;
rightKerningGroup = f;
unicode = 0066;
},
{
glyphname = g;
layers = (
{
anchors = (
{
name = bottom;
position = "{192, -150}";
},
{
name = top;
position = "{310, 510}";
}
);
layerId = "5FF70513-4D67-4EEC-9617-036848F9F755";
paths = (
{
closed = 1;
nodes = (
"320 -150 OFFCURVE",
"402 -68 OFFCURVE",
"422 54 CURVE SMOOTH",
"464 322 LINE SMOOTH",
"478 410 OFFCURVE",
"490 438 OFFCURVE",
"519 479 CURVE",
"515 492 LINE",
"440 492 OFFCURVE",
"384 520 OFFCURVE",
"308 520 CURVE SMOOTH",
"144 520 OFFCURVE",
"38 383 OFFCURVE",
"38 216 CURVE SMOOTH",
"38 106 OFFCURVE",
"99 30 OFFCURVE",
"204 30 CURVE SMOOTH",
"284 30 OFFCURVE",
"349 71 OFFCURVE",
"398 136 CURVE",
"385 54 LINE SMOOTH",
"368 -52 OFFCURVE",
"305 -120 OFFCURVE",
"197 -120 CURVE SMOOTH",
"132 -120 OFFCURVE",
"87 -96 OFFCURVE",
"48 -46 CURVE",
"34 -46 OFFCURVE",
"25 -53 OFFCURVE",
"25 -66 CURVE SMOOTH",
"25 -87 OFFCURVE",
"90 -150 OFFCURVE",
"197 -150 CURVE SMOOTH"
);
},
{
closed = 1;
nodes = (
"123 60 OFFCURVE",
"76 120 OFFCURVE",
"76 212 CURVE SMOOTH",
"76 353 OFFCURVE",
"162 490 OFFCURVE",
"300 490 CURVE SMOOTH",
"364 490 OFFCURVE",
"418 462 OFFCURVE",
"481 462 CURVE",
"479 473 LINE",
"449 431 OFFCURVE",
"436 381 OFFCURVE",
"427 322 CURVE SMOOTH",
"418 265 LINE SMOOTH",
"399 146 OFFCURVE",
"312 60 OFFCURVE",
"209 60 CURVE SMOOTH"
);
}
);
width = 537;
}
);
leftKerningGroup = o;
leftMetricsKey = o;
note = g;
rightKerningGroup = g;
rightMetricsKey = q;
unicode = 0067;
},
{
glyphname = h;
layers = (
{
anchors = (
{
name = bottom;
position = "{215, 0}";
},
{
name = center;
position = "{266, 260}";
},
{
name = top;
position = "{277, 724}";
}
);
layerId = "5FF70513-4D67-4EEC-9617-036848F9F755";
paths = (
{
closed = 1;
nodes = (
"67 -4 OFFCURVE",
"76 9 OFFCURVE",
"80 31 CURVE SMOOTH",
"117 263 LINE SMOOTH",
"138 398 OFFCURVE",
"216 489 OFFCURVE",
"315 489 CURVE SMOOTH",
"395 489 OFFCURVE",
"437 429 OFFCURVE",
"422 335 CURVE SMOOTH",
"369 0 LINE",
"374 -3 OFFCURVE",
"377 -4 OFFCURVE",
"381 -4 CURVE SMOOTH",
"398 -4 OFFCURVE",
"407 9 OFFCURVE",
"411 31 CURVE SMOOTH",
"459 335 LINE SMOOTH",
"477 448 OFFCURVE",
"423 520 OFFCURVE",
"320 520 CURVE SMOOTH",
"239 520 OFFCURVE",
"176 471 OFFCURVE",
"140 408 CURVE",
"189 720 LINE",
"185 723 OFFCURVE",
"181 724 OFFCURVE",
"177 724 CURVE SMOOTH",
"160 724 OFFCURVE",
"151 711 OFFCURVE",
"147 689 CURVE SMOOTH",
"38 0 LINE",
"43 -3 OFFCURVE",
"46 -4 OFFCURVE",
"50 -4 CURVE SMOOTH"
);
}
);
width = 510;
}
);
leftKerningGroup = n;
leftMetricsKey = n;
note = h;
rightKerningGroup = n;
rightMetricsKey = n;
unicode = 0068;
},
{
glyphname = hbar;
layers = (
{
components = (
{
name = h;
}
);
layerId = "5FF70513-4D67-4EEC-9617-036848F9F755";
paths = (
{
closed = 1;
nodes = (
"335 599 LINE",
"340 629 LINE",
"60 629 LINE",
"55 599 LINE"
);
}
);
width = 510;
}
);
note = hbar;
rightKerningGroup = h;
rightMetricsKey = h;
unicode = 0127;
},
{
glyphname = i;
layers = (
{
anchors = (
{
name = bottom;
position = "{59, 0}";
}
);
layerId = "5FF70513-4D67-4EEC-9617-036848F9F755";
paths = (
{
closed = 1;
nodes = (
"69 -4 OFFCURVE",
"78 9 OFFCURVE",
"82 31 CURVE SMOOTH",
"158 510 LINE",
"153 513 OFFCURVE",
"149 514 OFFCURVE",
"145 514 CURVE SMOOTH",
"128 514 OFFCURVE",
"119 501 OFFCURVE",
"116 479 CURVE SMOOTH",
"40 0 LINE",
"45 -3 OFFCURVE",
"48 -4 OFFCURVE",
"52 -4 CURVE SMOOTH"
);
},
{
closed = 1;
nodes = (
"175 611 OFFCURVE",
"187 624 OFFCURVE",
"187 643 CURVE SMOOTH",
"187 656 OFFCURVE",
"177 665 OFFCURVE",
"161 665 CURVE SMOOTH",
"144 665 OFFCURVE",
"132 653 OFFCURVE",
"132 634 CURVE SMOOTH",
"132 620 OFFCURVE",
"142 611 OFFCURVE",
"157 611 CURVE SMOOTH"
);
}
);
width = 197;
}
);
leftKerningGroup = i;
leftMetricsKey = "=|";
note = i;
rightKerningGroup = i;
unicode = 0069;
},
{
glyphname = idotless;
layers = (
{
anchors = (
{
name = bottom;
position = "{59, 0}";
},
{
name = ogonek;
position = "{61, 10}";
},
{
name = top;
position = "{140, 510}";
}
);
layerId = "5FF70513-4D67-4EEC-9617-036848F9F755";
paths = (
{
closed = 1;
nodes = (
"69 -4 OFFCURVE",
"78 9 OFFCURVE",
"82 31 CURVE SMOOTH",
"158 510 LINE",
"153 513 OFFCURVE",
"149 514 OFFCURVE",
"145 514 CURVE SMOOTH",
"128 514 OFFCURVE",
"119 501 OFFCURVE",
"116 479 CURVE SMOOTH",
"40 0 LINE",
"45 -3 OFFCURVE",
"48 -4 OFFCURVE",
"52 -4 CURVE SMOOTH"
);
}
);
width = 197;
}
);
note = dotlessi;
unicode = 0131;
},
{
glyphname = j;
layers = (
{
layerId = "5FF70513-4D67-4EEC-9617-036848F9F755";
paths = (
{
closed = 1;
nodes = (
"17 -150 OFFCURVE",
"59 -111 OFFCURVE",
"70 -44 CURVE SMOOTH",
"158 510 LINE",
"153 513 OFFCURVE",
"149 514 OFFCURVE",
"145 514 CURVE SMOOTH",
"128 514 OFFCURVE",
"119 501 OFFCURVE",
"116 479 CURVE SMOOTH",
"34 -40 LINE SMOOTH",
"26 -89 OFFCURVE",
"4 -120 OFFCURVE",
"-42 -120 CURVE SMOOTH",
"-64 -120 OFFCURVE",
"-84 -113 OFFCURVE",
"-95 -91 CURVE",
"-107 -91 OFFCURVE",
"-114 -98 OFFCURVE",
"-114 -112 CURVE SMOOTH",
"-114 -131 OFFCURVE",
"-89 -150 OFFCURVE",
"-46 -150 CURVE SMOOTH"
);
},
{
closed = 1;
nodes = (
"174 611 OFFCURVE",
"187 624 OFFCURVE",
"187 643 CURVE SMOOTH",
"187 656 OFFCURVE",
"177 665 OFFCURVE",
"163 665 CURVE SMOOTH",
"144 665 OFFCURVE",
"132 653 OFFCURVE",
"132 634 CURVE SMOOTH",
"132 620 OFFCURVE",
"141 611 OFFCURVE",
"155 611 CURVE SMOOTH"
);
}
);
width = 197;
}
);
leftKerningGroup = j;
note = j;
rightKerningGroup = j;
rightMetricsKey = i;
unicode = 006A;
},
{
glyphname = jdotless;
layers = (
{
anchors = (
{
name = bottom;
position = "{-46, -150}";
},
{
name = top;
position = "{140, 510}";
}
);
layerId = "5FF70513-4D67-4EEC-9617-036848F9F755";
paths = (
{
closed = 1;
nodes = (
"17 -150 OFFCURVE",
"59 -111 OFFCURVE",
"70 -44 CURVE SMOOTH",
"158 510 LINE",
"153 513 OFFCURVE",
"149 514 OFFCURVE",
"145 514 CURVE SMOOTH",
"128 514 OFFCURVE",
"119 501 OFFCURVE",
"116 479 CURVE SMOOTH",
"34 -40 LINE SMOOTH",
"26 -89 OFFCURVE",
"4 -120 OFFCURVE",
"-42 -120 CURVE SMOOTH",
"-64 -120 OFFCURVE",
"-84 -113 OFFCURVE",
"-95 -91 CURVE",
"-106 -91 OFFCURVE",
"-112 -97 OFFCURVE",
"-114 -109 CURVE SMOOTH",
"-117 -129 OFFCURVE",
"-91 -150 OFFCURVE",
"-46 -150 CURVE SMOOTH"
);
}
);
width = 197;
}
);
leftKerningGroup = j;
note = dotlessj;
unicode = 0237;
},
{
glyphname = k;
layers = (
{
anchors = (
{
name = bottom;
position = "{184, 0}";
},
{
name = top;
position = "{177, 724}";
}
);
layerId = "5FF70513-4D67-4EEC-9617-036848F9F755";
paths = (
{
closed = 1;
nodes = (
"459 511 LINE",
"452 513 OFFCURVE",
"446 514 OFFCURVE",
"439 514 CURVE SMOOTH",
"422 514 OFFCURVE",
"409 508 OFFCURVE",
"398 496 CURVE SMOOTH",
"91 207 LINE",
"83 156 LINE"
);
},
{
closed = 1;
nodes = (
"379 -4 OFFCURVE",
"387 -3 OFFCURVE",
"394 0 CURVE",
"395 6 LINE",
"387 9 OFFCURVE",
"377 20 OFFCURVE",
"365 38 CURVE SMOOTH",
"228 231 LINE SMOOTH",
"218 247 OFFCURVE",
"208 255 OFFCURVE",
"195 255 CURVE SMOOTH",
"187 255 OFFCURVE",
"179 253 OFFCURVE",
"169 248 CURVE",
"338 12 LINE SMOOTH",
"344 2 OFFCURVE",
"355 -4 OFFCURVE",
"372 -4 CURVE SMOOTH"
);
},
{
closed = 1;
nodes = (
"67 -4 OFFCURVE",
"76 9 OFFCURVE",
"80 31 CURVE SMOOTH",
"189 720 LINE",
"185 723 OFFCURVE",
"181 724 OFFCURVE",
"177 724 CURVE SMOOTH",
"160 724 OFFCURVE",
"151 711 OFFCURVE",
"147 689 CURVE SMOOTH",
"38 0 LINE",
"43 -3 OFFCURVE",
"46 -4 OFFCURVE",
"50 -4 CURVE SMOOTH"
);
}
);
width = 448;
}
);
leftKerningGroup = n;
leftMetricsKey = n;
note = k;
rightKerningGroup = k;
unicode = 006B;
},
{
glyphname = kgreenlandic;
layers = (
{
anchors = (
{
name = bottom;
position = "{184, 0}";
},
{
name = top;
position = "{265, 510}";
}
);
layerId = "5FF70513-4D67-4EEC-9617-036848F9F755";
paths = (
{
closed = 1;
nodes = (
"459 511 LINE",
"452 513 OFFCURVE",
"446 514 OFFCURVE",
"439 514 CURVE SMOOTH",
"422 514 OFFCURVE",
"409 508 OFFCURVE",
"398 496 CURVE SMOOTH",
"91 207 LINE",
"83 156 LINE"
);
},
{
closed = 1;
nodes = (
"67 -4 OFFCURVE",
"76 9 OFFCURVE",
"80 31 CURVE SMOOTH",
"156 510 LINE",
"151 513 OFFCURVE",
"147 514 OFFCURVE",
"143 514 CURVE SMOOTH",
"126 514 OFFCURVE",
"117 501 OFFCURVE",
"114 479 CURVE SMOOTH",
"38 0 LINE",
"43 -3 OFFCURVE",
"46 -4 OFFCURVE",
"50 -4 CURVE SMOOTH"
);
},
{
closed = 1;
nodes = (
"379 -4 OFFCURVE",
"387 -3 OFFCURVE",
"394 0 CURVE",
"395 6 LINE",
"387 9 OFFCURVE",
"377 20 OFFCURVE",
"365 38 CURVE SMOOTH",
"228 231 LINE SMOOTH",
"217 247 OFFCURVE",
"208 255 OFFCURVE",
"195 255 CURVE SMOOTH",
"187 255 OFFCURVE",
"179 253 OFFCURVE",
"169 248 CURVE",
"338 12 LINE SMOOTH",
"344 2 OFFCURVE",
"355 -4 OFFCURVE",
"372 -4 CURVE SMOOTH"
);
}
);
width = 448;
}
);
note = kgreenlandic;
rightKerningGroup = k;
unicode = 0138;
},
{
glyphname = l;
layers = (
{
anchors = (
{
name = bottom;
position = "{59, 0}";
},
{
name = center;
position = "{188, 280}";
},
{
name = top;
position = "{179, 724}";
}
);
layerId = "5FF70513-4D67-4EEC-9617-036848F9F755";
paths = (
{
closed = 1;
nodes = (
"69 -4 OFFCURVE",
"78 9 OFFCURVE",
"82 31 CURVE SMOOTH",
"191 720 LINE",
"187 723 OFFCURVE",
"183 724 OFFCURVE",
"179 724 CURVE SMOOTH",
"162 724 OFFCURVE",
"153 711 OFFCURVE",
"149 689 CURVE SMOOTH",
"40 0 LINE",
"45 -3 OFFCURVE",
"48 -4 OFFCURVE",
"52 -4 CURVE SMOOTH"
);
}
);
width = 197;
}
);
leftKerningGroup = l;
leftMetricsKey = "=|";
note = l;
rightKerningGroup = l;
unicode = 006C;
},
{
glyphname = lslash;
layers = (
{
components = (
{
name = l;
}
);
layerId = "5FF70513-4D67-4EEC-9617-036848F9F755";
paths = (
{
closed = 1;
nodes = (
"221 401 LINE",
"225 431 LINE",
"14 339 LINE",
"9 309 LINE"
);
}
);
width = 197;
}
);
note = lslash;
unicode = 0142;
},
{
glyphname = m;
layers = (
{
anchors = (
{
name = bottom;
position = "{369, 0}";
},
{
name = top;
position = "{450, 510}";
}
);
layerId = "5FF70513-4D67-4EEC-9617-036848F9F755";
paths = (
{
closed = 1;
nodes = (
"67 -4 OFFCURVE",
"76 9 OFFCURVE",
"80 31 CURVE SMOOTH",
"117 263 LINE SMOOTH",
"138 398 OFFCURVE",
"216 489 OFFCURVE",
"309 489 CURVE SMOOTH",
"373 489 OFFCURVE",
"413 444 OFFCURVE",
"413 371 CURVE SMOOTH",
"413 360 OFFCURVE",
"412 348 OFFCURVE",
"410 335 CURVE SMOOTH",
"357 0 LINE",
"362 -3 OFFCURVE",
"365 -4 OFFCURVE",
"369 -4 CURVE SMOOTH",
"386 -4 OFFCURVE",
"395 9 OFFCURVE",
"399 31 CURVE SMOOTH",
"447 335 LINE SMOOTH",
"449 349 OFFCURVE",
"450 363 OFFCURVE",
"450 376 CURVE SMOOTH",
"450 465 OFFCURVE",
"394 520 OFFCURVE",
"309 520 CURVE SMOOTH",
"234 520 OFFCURVE",
"172 471 OFFCURVE",
"140 408 CURVE",
"156 510 LINE",
"151 513 OFFCURVE",
"147 514 OFFCURVE",
"143 514 CURVE SMOOTH",
"126 514 OFFCURVE",
"117 501 OFFCURVE",
"114 479 CURVE SMOOTH",
"38 0 LINE",
"43 -3 OFFCURVE",
"46 -4 OFFCURVE",
"50 -4 CURVE SMOOTH"
);
},
{
closed = 1;
nodes = (
"705 -4 OFFCURVE",
"714 9 OFFCURVE",
"718 31 CURVE SMOOTH",
"766 335 LINE SMOOTH",
"768 349 OFFCURVE",
"769 363 OFFCURVE",
"769 376 CURVE SMOOTH",
"769 465 OFFCURVE",
"713 520 OFFCURVE",
"628 520 CURVE SMOOTH",
"543 520 OFFCURVE",
"471 462 OFFCURVE",
"435 369 CURVE",
"419 263 LINE",
"436 263 LINE",
"457 398 OFFCURVE",
"535 489 OFFCURVE",
"628 489 CURVE SMOOTH",
"692 489 OFFCURVE",
"732 444 OFFCURVE",
"732 371 CURVE SMOOTH",
"732 360 OFFCURVE",
"731 348 OFFCURVE",
"729 335 CURVE SMOOTH",
"676 0 LINE",
"681 -3 OFFCURVE",
"684 -4 OFFCURVE",
"688 -4 CURVE SMOOTH"
);
}
);
width = 817;
}
);
leftKerningGroup = n;
leftMetricsKey = n;
note = m;
rightKerningGroup = n;
rightMetricsKey = n;
unicode = 006D;
},
{
glyphname = n;
layers = (
{
anchors = (
{
name = bottom;
position = "{215, 0}";
},
{
name = top;
position = "{296, 510}";
}
);
layerId = "5FF70513-4D67-4EEC-9617-036848F9F755";
paths = (
{
closed = 1;
nodes = (
"67 -4 OFFCURVE",
"76 9 OFFCURVE",
"80 31 CURVE SMOOTH",
"117 263 LINE SMOOTH",
"138 398 OFFCURVE",
"216 489 OFFCURVE",
"315 489 CURVE SMOOTH",
"384 489 OFFCURVE",
"425 444 OFFCURVE",
"425 371 CURVE SMOOTH",
"425 360 OFFCURVE",
"424 348 OFFCURVE",
"422 335 CURVE SMOOTH",
"369 0 LINE",
"374 -3 OFFCURVE",
"377 -4 OFFCURVE",
"381 -4 CURVE SMOOTH",
"398 -4 OFFCURVE",
"407 9 OFFCURVE",
"411 31 CURVE SMOOTH",
"459 335 LINE SMOOTH",
"461 349 OFFCURVE",
"462 363 OFFCURVE",
"462 376 CURVE SMOOTH",
"462 465 OFFCURVE",
"407 520 OFFCURVE",
"317 520 CURVE SMOOTH",
"236 520 OFFCURVE",
"174 471 OFFCURVE",
"140 408 CURVE",
"156 510 LINE",
"151 513 OFFCURVE",
"147 514 OFFCURVE",
"143 514 CURVE SMOOTH",
"126 514 OFFCURVE",
"117 501 OFFCURVE",
"114 479 CURVE SMOOTH",
"38 0 LINE",
"43 -3 OFFCURVE",
"46 -4 OFFCURVE",
"50 -4 CURVE SMOOTH"
);
}
);
width = 510;
}
);
leftKerningGroup = n;
note = n;
rightKerningGroup = n;
unicode = 006E;
},
{
glyphname = eng;
layers = (
{
layerId = "5FF70513-4D67-4EEC-9617-036848F9F755";
paths = (
{
closed = 1;
nodes = (
"346 -150 OFFCURVE",
"388 -111 OFFCURVE",
"399 -44 CURVE SMOOTH",
"459 335 LINE SMOOTH",
"477 448 OFFCURVE",
"423 520 OFFCURVE",
"320 520 CURVE SMOOTH",
"239 520 OFFCURVE",
"176 471 OFFCURVE",
"140 408 CURVE",
"156 510 LINE",
"151 513 OFFCURVE",
"147 514 OFFCURVE",
"143 514 CURVE SMOOTH",
"126 514 OFFCURVE",
"117 501 OFFCURVE",
"114 479 CURVE SMOOTH",
"38 0 LINE",
"43 -3 OFFCURVE",
"46 -4 OFFCURVE",
"50 -4 CURVE SMOOTH",
"67 -4 OFFCURVE",
"76 9 OFFCURVE",
"80 31 CURVE SMOOTH",
"117 263 LINE SMOOTH",
"138 398 OFFCURVE",
"216 489 OFFCURVE",
"315 489 CURVE SMOOTH",
"395 489 OFFCURVE",
"437 429 OFFCURVE",
"422 335 CURVE SMOOTH",
"363 -40 LINE SMOOTH",
"355 -89 OFFCURVE",
"333 -120 OFFCURVE",
"287 -120 CURVE SMOOTH",
"265 -120 OFFCURVE",
"245 -113 OFFCURVE",
"234 -91 CURVE",
"223 -91 OFFCURVE",
"217 -97 OFFCURVE",
"215 -109 CURVE SMOOTH",
"212 -129 OFFCURVE",
"238 -150 OFFCURVE",
"283 -150 CURVE SMOOTH"
);
}
);
width = 510;
}
);
leftKerningGroup = m;
note = eng;
rightKerningGroup = m;
rightMetricsKey = n;
unicode = 014B;
},
{
glyphname = o;
layers = (
{
anchors = (
{
name = bottom;
position = "{213, 0}";
},
{
name = center;
position = "{253, 255}";
},
{
name = ogonek;
position = "{418, 10}";
},
{
name = top;
position = "{294, 510}";
},
{
name = topright;
position = "{451, 327}";
}
);
layerId = "5FF70513-4D67-4EEC-9617-036848F9F755";
paths = (
{
closed = 1;
nodes = (
"379 -10 OFFCURVE",
"473 150 OFFCURVE",
"473 321 CURVE SMOOTH",
"473 444 OFFCURVE",
"403 520 OFFCURVE",
"291 520 CURVE SMOOTH",
"129 520 OFFCURVE",
"34 363 OFFCURVE",
"34 190 CURVE SMOOTH",
"34 66 OFFCURVE",
"103 -10 OFFCURVE",
"216 -10 CURVE SMOOTH"
);
},
{
closed = 1;
nodes = (
"124 20 OFFCURVE",
"72 86 OFFCURVE",
"72 194 CURVE SMOOTH",
"72 339 OFFCURVE",
"151 490 OFFCURVE",
"291 490 CURVE SMOOTH",
"382 490 OFFCURVE",
"434 425 OFFCURVE",
"434 318 CURVE SMOOTH",
"434 169 OFFCURVE",
"356 20 OFFCURVE",
"216 20 CURVE SMOOTH"
);
}
);
width = 507;
}
);
leftKerningGroup = o;
leftMetricsKey = "=|";
note = o;
rightKerningGroup = o;
unicode = 006F;
},
{
glyphname = oslash;
layers = (
{
components = (
{
name = o;
}
);
layerId = "5FF70513-4D67-4EEC-9617-036848F9F755";
paths = (
{
closed = 1;
nodes = (
"63 -60 LINE",
"483 570 LINE",
"445 570 LINE",
"25 -60 LINE"
);
}
);
width = 507;
}
);
leftMetricsKey = o;
note = oslash;
rightMetricsKey = o;
unicode = 00F8;
},
{
glyphname = oe;
layers = (
{
layerId = "5FF70513-4D67-4EEC-9617-036848F9F755";
paths = (
{
closed = 1;
nodes = (
"307 -10 OFFCURVE",
"386 45 OFFCURVE",
"432 139 CURVE",
"449 45 OFFCURVE",
"514 -10 OFFCURVE",
"613 -10 CURVE SMOOTH",
"715 -10 OFFCURVE",
"797 40 OFFCURVE",
"802 72 CURVE SMOOTH",
"804 80 OFFCURVE",
"798 87 OFFCURVE",
"788 89 CURVE",
"739 39 OFFCURVE",
"677 20 OFFCURVE",
"618 20 CURVE SMOOTH",
"504 20 OFFCURVE",
"449 108 OFFCURVE",
"469 246 CURVE",
"841 246 LINE",
"846 256 OFFCURVE",
"848 264 OFFCURVE",
"849 274 CURVE SMOOTH",
"873 425 OFFCURVE",
"815 520 OFFCURVE",
"684 520 CURVE SMOOTH",
"591 520 OFFCURVE",
"513 465 OFFCURVE",
"468 373 CURVE",
"452 465 OFFCURVE",
"391 520 OFFCURVE",
"295 520 CURVE SMOOTH",
"164 520 OFFCURVE",
"65 417 OFFCURVE",
"39 255 CURVE SMOOTH",
"14 93 OFFCURVE",
"80 -10 OFFCURVE",
"211 -10 CURVE SMOOTH"
);
},
{
closed = 1;
nodes = (
"108 20 OFFCURVE",
"55 111 OFFCURVE",
"77 255 CURVE SMOOTH",
"100 399 OFFCURVE",
"183 490 OFFCURVE",
"291 490 CURVE SMOOTH",
"399 490 OFFCURVE",
"452 399 OFFCURVE",
"429 255 CURVE SMOOTH",
"407 111 OFFCURVE",
"324 20 OFFCURVE",
"216 20 CURVE SMOOTH"
);
},
{
closed = 1;
nodes = (
"496 406 OFFCURVE",
"577 490 OFFCURVE",
"680 490 CURVE SMOOTH",
"787 490 OFFCURVE",
"828 408 OFFCURVE",
"812 280 CURVE",
"473 274 LINE"
);
}
);
width = 884;
}
);
leftMetricsKey = o;
note = oe;
rightMetricsKey = e;
unicode = 0153;
},
{
glyphname = p;
layers = (
{
anchors = (
{
name = bottom;
position = "{28, -144}";
},
{
name = top;
position = "{306, 510}";
}
);
layerId = "5FF70513-4D67-4EEC-9617-036848F9F755";
paths = (
{
closed = 1;
nodes = (
"45 -144 OFFCURVE",
"54 -131 OFFCURVE",
"58 -109 CURVE SMOOTH",
"85 61 LINE",
"110 21 OFFCURVE",
"162 -10 OFFCURVE",
"233 -10 CURVE SMOOTH",
"398 -10 OFFCURVE",
"497 156 OFFCURVE",
"497 334 CURVE SMOOTH",
"497 452 OFFCURVE",
"432 520 OFFCURVE",
"329 520 CURVE SMOOTH",
"249 520 OFFCURVE",
"184 479 OFFCURVE",
"141 414 CURVE",
"156 510 LINE",
"151 513 OFFCURVE",
"147 514 OFFCURVE",
"143 514 CURVE SMOOTH",
"126 514 OFFCURVE",
"117 501 OFFCURVE",
"114 479 CURVE SMOOTH",
"16 -140 LINE",
"20 -143 OFFCURVE",
"24 -144 OFFCURVE",
"28 -144 CURVE SMOOTH"
);
},
{
closed = 1;
nodes = (
"156 20 OFFCURVE",
"100 65 OFFCURVE",
"100 141 CURVE SMOOTH",
"100 150 OFFCURVE",
"100 159 OFFCURVE",
"102 169 CURVE SMOOTH",
"120 285 LINE SMOOTH",
"139 404 OFFCURVE",
"227 490 OFFCURVE",
"330 490 CURVE SMOOTH",
"414 490 OFFCURVE",
"460 433 OFFCURVE",
"460 334 CURVE SMOOTH",
"460 181 OFFCURVE",
"379 20 OFFCURVE",
"233 20 CURVE SMOOTH"
);
}
);
width = 529;
}
);
leftKerningGroup = n;
leftMetricsKey = n;
note = p;
rightKerningGroup = o;
rightMetricsKey = o;
unicode = 0070;
},
{
glyphname = thorn;
layers = (
{
layerId = "5FF70513-4D67-4EEC-9617-036848F9F755";
paths = (
{
closed = 1;
nodes = (
"45 -144 OFFCURVE",
"54 -131 OFFCURVE",
"58 -109 CURVE SMOOTH",
"85 61 LINE",
"110 21 OFFCURVE",
"157 -10 OFFCURVE",
"228 -10 CURVE SMOOTH",
"363 -10 OFFCURVE",
"466 102 OFFCURVE",
"492 268 CURVE SMOOTH",
"517 426 OFFCURVE",
"455 520 OFFCURVE",
"334 520 CURVE SMOOTH",
"254 520 OFFCURVE",
"189 479 OFFCURVE",
"141 414 CURVE",
"189 720 LINE",
"185 723 OFFCURVE",
"181 724 OFFCURVE",
"177 724 CURVE SMOOTH",
"160 724 OFFCURVE",
"151 711 OFFCURVE",
"147 689 CURVE SMOOTH",
"16 -140 LINE",
"20 -143 OFFCURVE",
"24 -144 OFFCURVE",
"28 -144 CURVE SMOOTH"
);
},
{
closed = 1;
nodes = (
"147 20 OFFCURVE",
"87 76 OFFCURVE",
"102 169 CURVE SMOOTH",
"120 285 LINE SMOOTH",
"139 404 OFFCURVE",
"227 490 OFFCURVE",
"330 490 CURVE SMOOTH",
"431 490 OFFCURVE",
"477 408 OFFCURVE",
"454 268 CURVE SMOOTH",
"431 120 OFFCURVE",
"348 20 OFFCURVE",
"233 20 CURVE SMOOTH"
);
}
);
width = 529;
}
);
leftMetricsKey = p;
note = thorn;
rightMetricsKey = p;
unicode = 00FE;
},
{
glyphname = q;
layers = (
{
anchors = (
{
name = bottom;
position = "{370, -144}";
},
{
name = top;
position = "{309, 510}";
}
);
layerId = "5FF70513-4D67-4EEC-9617-036848F9F755";
paths = (
{
closed = 1;
nodes = (
"382 -144 OFFCURVE",
"391 -131 OFFCURVE",
"395 -109 CURVE SMOOTH",
"463 322 LINE SMOOTH",
"477 410 OFFCURVE",
"489 438 OFFCURVE",
"518 479 CURVE",
"514 492 LINE",
"439 492 OFFCURVE",
"380 520 OFFCURVE",
"304 520 CURVE SMOOTH",
"128 520 OFFCURVE",
"33 361 OFFCURVE",
"33 176 CURVE SMOOTH",
"33 58 OFFCURVE",
"98 -10 OFFCURVE",
"201 -10 CURVE SMOOTH",
"281 -10 OFFCURVE",
"347 31 OFFCURVE",
"390 96 CURVE",
"353 -140 LINE",
"357 -143 OFFCURVE",
"361 -144 OFFCURVE",
"365 -144 CURVE SMOOTH"
);
},
{
closed = 1;
nodes = (
"117 20 OFFCURVE",
"71 77 OFFCURVE",
"71 178 CURVE SMOOTH",
"71 334 OFFCURVE",
"151 490 OFFCURVE",
"299 490 CURVE SMOOTH",
"363 490 OFFCURVE",
"417 462 OFFCURVE",
"480 462 CURVE",
"478 473 LINE",
"448 431 OFFCURVE",
"435 381 OFFCURVE",
"426 322 CURVE SMOOTH",
"411 225 LINE SMOOTH",
"392 106 OFFCURVE",
"304 20 OFFCURVE",
"201 20 CURVE SMOOTH"
);
}
);
width = 536;
}
);
leftKerningGroup = o;
leftMetricsKey = o;
note = q;
rightKerningGroup = q;
unicode = 0071;
},
{
glyphname = r;
lastChange = "2018-03-12 19:43:50 +0000";
layers = (
{
anchors = (
{
name = bottom;
position = "{53, 0}";
},
{
name = top;
position = "{192, 510}";
}
);
layerId = "5FF70513-4D67-4EEC-9617-036848F9F755";
paths = (
{
closed = 1;
nodes = (
"67 -4 OFFCURVE",
"76 9 OFFCURVE",
"80 31 CURVE SMOOTH",
"121 288 LINE SMOOTH",
"139 406 OFFCURVE",
"204 489 OFFCURVE",
"268 489 CURVE SMOOTH",
"281 489 OFFCURVE",
"292 487 OFFCURVE",
"300 485 CURVE",
"307 485 OFFCURVE",
"313 490 OFFCURVE",
"314 498 CURVE SMOOTH",
"316 514 OFFCURVE",
"294 520 OFFCURVE",
"273 520 CURVE SMOOTH",
"219 520 OFFCURVE",
"173 480 OFFCURVE",
"142 422 CURVE",
"156 510 LINE",
"151 513 OFFCURVE",
"147 514 OFFCURVE",
"143 514 CURVE SMOOTH",
"126 514 OFFCURVE",
"117 501 OFFCURVE",
"114 479 CURVE SMOOTH",
"38 0 LINE",
"43 -3 OFFCURVE",
"46 -4 OFFCURVE",
"50 -4 CURVE SMOOTH"
);
}
);
width = 301;
}
);
leftKerningGroup = r;
leftMetricsKey = h;
note = r;
rightKerningGroup = r;
unicode = 0072;
},
{
glyphname = s;
layers = (
{
anchors = (
{
name = bottom;
position = "{158, 0}";
},
{
name = top;
position = "{239, 510}";
}
);
layerId = "5FF70513-4D67-4EEC-9617-036848F9F755";
paths = (
{
closed = 1;
nodes = (
"268 -10 OFFCURVE",
"343 44 OFFCURVE",
"343 148 CURVE SMOOTH",
"343 204 OFFCURVE",
"309 250 OFFCURVE",
"225 281 CURVE SMOOTH",
"137 314 OFFCURVE",
"102 340 OFFCURVE",
"102 383 CURVE SMOOTH",
"102 447 OFFCURVE",
"156 490 OFFCURVE",
"230 490 CURVE SMOOTH",
"285 490 OFFCURVE",
"322 468 OFFCURVE",
"352 427 CURVE",
"366 427 OFFCURVE",
"374 434 OFFCURVE",
"374 447 CURVE SMOOTH",
"374 469 OFFCURVE",
"321 520 OFFCURVE",
"229 520 CURVE SMOOTH",
"134 520 OFFCURVE",
"62 471 OFFCURVE",
"62 383 CURVE SMOOTH",
"62 331 OFFCURVE",
"97 287 OFFCURVE",
"186 255 CURVE SMOOTH",
"271 225 OFFCURVE",
"304 194 OFFCURVE",
"304 148 CURVE SMOOTH",
"304 74 OFFCURVE",
"243 20 OFFCURVE",
"159 20 CURVE SMOOTH",
"105 20 OFFCURVE",
"57 42 OFFCURVE",
"27 83 CURVE",
"13 83 OFFCURVE",
"4 76 OFFCURVE",
"4 63 CURVE SMOOTH",
"4 42 OFFCURVE",
"59 -10 OFFCURVE",
"159 -10 CURVE SMOOTH"
);
}
);
width = 396;
}
);
leftKerningGroup = s;
note = s;
rightKerningGroup = s;
unicode = 0073;
},
{
glyphname = germandbls;
layers = (
{
layerId = "5FF70513-4D67-4EEC-9617-036848F9F755";
paths = (
{
closed = 1;
nodes = (
"375 -10 OFFCURVE",
"468 69 OFFCURVE",
"488 194 CURVE SMOOTH",
"502 286 OFFCURVE",
"438 361 OFFCURVE",
"335 373 CURVE",
"418 388 OFFCURVE",
"480 447 OFFCURVE",
"492 527 CURVE SMOOTH",
"510 639 OFFCURVE",
"446 710 OFFCURVE",
"328 710 CURVE SMOOTH",
"211 710 OFFCURVE",
"126 647 OFFCURVE",
"111 547 CURVE SMOOTH",
"24 0 LINE",
"29 -3 OFFCURVE",
"32 -4 OFFCURVE",
"36 -4 CURVE SMOOTH",
"53 -4 OFFCURVE",
"62 9 OFFCURVE",
"66 31 CURVE SMOOTH",
"148 547 LINE SMOOTH",
"160 628 OFFCURVE",
"229 680 OFFCURVE",
"324 680 CURVE SMOOTH",
"419 680 OFFCURVE",
"469 621 OFFCURVE",
"454 527 CURVE SMOOTH",
"441 441 OFFCURVE",
"367 387 OFFCURVE",
"266 387 CURVE SMOOTH",
"182 387 LINE",
"178 357 LINE",
"260 357 LINE SMOOTH",
"392 357 OFFCURVE",
"463 277 OFFCURVE",
"450 194 CURVE SMOOTH",
"433 88 OFFCURVE",
"357 20 OFFCURVE",
"254 20 CURVE SMOOTH",
"203 20 OFFCURVE",
"179 39 OFFCURVE",
"161 57 CURVE",
"149 57 OFFCURVE",
"142 50 OFFCURVE",
"140 37 CURVE SMOOTH",
"137 16 OFFCURVE",
"179 -10 OFFCURVE",
"249 -10 CURVE SMOOTH"
);
}
);
width = 543;
}
);
note = uni00DF;
unicode = 00DF;
},
{
glyphname = t;
layers = (
{
anchors = (
{
name = bottom;
position = "{156, 0}";
},
{
name = center;
position = "{145, 255}";
},
{
name = top;
position = "{190, 640}";
},
{
name = topright;
position = "{288, 496}";
}
);
layerId = "5FF70513-4D67-4EEC-9617-036848F9F755";
paths = (
{
closed = 1;
nodes = (
"192 -4 OFFCURVE",
"228 17 OFFCURVE",
"231 39 CURVE SMOOTH",
"233 49 OFFCURVE",
"228 55 OFFCURVE",
"218 55 CURVE",
"200 33 OFFCURVE",
"177 26 OFFCURVE",
"159 26 CURVE SMOOTH",
"126 26 OFFCURVE",
"113 50 OFFCURVE",
"120 94 CURVE SMOOTH",
"206 636 LINE",
"201 639 OFFCURVE",
"197 640 OFFCURVE",
"193 640 CURVE SMOOTH",
"176 640 OFFCURVE",
"167 627 OFFCURVE",
"164 605 CURVE SMOOTH",
"82 90 LINE SMOOTH",
"73 30 OFFCURVE",
"96 -4 OFFCURVE",
"150 -4 CURVE SMOOTH"
);
},
{
closed = 1;
nodes = (
"272 480 LINE SMOOTH",
"290 480 OFFCURVE",
"302 487 OFFCURVE",
"304 499 CURVE SMOOTH",
"305 502 OFFCURVE",
"304 506 OFFCURVE",
"303 510 CURVE",
"102 510 LINE SMOOTH",
"84 510 OFFCURVE",
"72 503 OFFCURVE",
"70 491 CURVE SMOOTH",
"69 487 OFFCURVE",
"70 484 OFFCURVE",
"71 480 CURVE"
);
}
);
width = 289;
}
);
leftKerningGroup = t;
note = t;
rightKerningGroup = t;
unicode = 0074;
},
{
glyphname = tbar;
layers = (
{
components = (
{
name = t;
}
);
layerId = "5FF70513-4D67-4EEC-9617-036848F9F755";
paths = (
{
closed = 1;
nodes = (
"265 280 LINE",
"270 310 LINE",
"45 310 LINE",
"40 280 LINE"
);
}
);
width = 289;
}
);
leftKerningGroup = t;
note = tbar;
rightKerningGroup = t;
rightMetricsKey = t;
unicode = 0167;
},
{
glyphname = u;
layers = (
{
anchors = (
{
name = bottom;
position = "{213, 0}";
},
{
name = ogonek;
position = "{369, 11}";
},
{
name = top;
position = "{294, 510}";
},
{
name = topright;
position = "{432, 310}";
}
);
layerId = "5FF70513-4D67-4EEC-9617-036848F9F755";
paths = (
{
closed = 1;
nodes = (
"271 -10 OFFCURVE",
"331 39 OFFCURVE",
"367 102 CURVE",
"351 0 LINE",
"356 -3 OFFCURVE",
"359 -4 OFFCURVE",
"363 -4 CURVE SMOOTH",
"380 -4 OFFCURVE",
"389 9 OFFCURVE",
"393 31 CURVE SMOOTH",
"469 510 LINE",
"464 513 OFFCURVE",
"460 514 OFFCURVE",
"456 514 CURVE SMOOTH",
"439 514 OFFCURVE",
"430 501 OFFCURVE",
"427 479 CURVE SMOOTH",
"390 247 LINE SMOOTH",
"369 112 OFFCURVE",
"290 21 OFFCURVE",
"193 21 CURVE SMOOTH",
"125 21 OFFCURVE",
"85 65 OFFCURVE",
"85 138 CURVE SMOOTH",
"85 149 OFFCURVE",
"86 161 OFFCURVE",
"88 173 CURVE SMOOTH",
"142 510 LINE",
"137 513 OFFCURVE",
"133 514 OFFCURVE",
"129 514 CURVE SMOOTH",
"112 514 OFFCURVE",
"103 501 OFFCURVE",
"100 479 CURVE SMOOTH",
"51 173 LINE SMOOTH",
"49 159 OFFCURVE",
"48 146 OFFCURVE",
"48 133 CURVE SMOOTH",
"48 44 OFFCURVE",
"104 -10 OFFCURVE",
"192 -10 CURVE SMOOTH"
);
}
);
width = 506;
}
);
leftKerningGroup = u;
note = u;
rightKerningGroup = u;
unicode = 0075;
},
{
glyphname = v;
layers = (
{
anchors = (
{
name = bottom;
position = "{173, 0}";
},
{
name = top;
position = "{259, 510}";
}
);
layerId = "5FF70513-4D67-4EEC-9617-036848F9F755";
paths = (
{
closed = 1;
nodes = (
"183 0 LINE",
"458 510 LINE",
"452 513 OFFCURVE",
"445 514 OFFCURVE",
"440 514 CURVE SMOOTH",
"428 514 OFFCURVE",
"418 505 OFFCURVE",
"411 491 CURVE SMOOTH",
"184 67 LINE",
"86 514 LINE",
"64 514 OFFCURVE",
"53 495 OFFCURVE",
"57 478 CURVE SMOOTH",
"163 0 LINE"
);
}
);
width = 435;
}
);
leftKerningGroup = v;
note = v;
rightKerningGroup = v;
unicode = 0076;
},
{
glyphname = w;
layers = (
{
anchors = (
{
name = bottom;
position = "{296, 0}";
},
{
name = top;
position = "{381, 510}";
}
);
layerId = "5FF70513-4D67-4EEC-9617-036848F9F755";
paths = (
{
closed = 1;
nodes = (
"166 0 LINE",
"369 466 LINE",
"424 0 LINE",
"444 0 LINE",
"698 510 LINE",
"692 513 OFFCURVE",
"685 514 OFFCURVE",
"680 514 CURVE SMOOTH",
"668 514 OFFCURVE",
"658 506 OFFCURVE",
"651 491 CURVE SMOOTH",
"451 91 LINE",
"402 510 LINE",
"395 513 OFFCURVE",
"389 514 OFFCURVE",
"383 514 CURVE SMOOTH",
"362 514 OFFCURVE",
"348 504 OFFCURVE",
"337 480 CURVE SMOOTH",
"167 91 LINE",
"91 514 LINE",
"71 514 OFFCURVE",
"56 502 OFFCURVE",
"60 478 CURVE SMOOTH",
"146 0 LINE"
);
}
);
width = 679;
}
);
leftKerningGroup = w;
note = w;
rightKerningGroup = w;
unicode = 0077;
},
{
glyphname = x;
layers = (
{
anchors = (
{
name = bottom;
position = "{185, 0}";
},
{
name = top;
position = "{266, 510}";
}
);
layerId = "5FF70513-4D67-4EEC-9617-036848F9F755";
paths = (
{
closed = 1;
nodes = (
"13 -4 OFFCURVE",
"22 0 OFFCURVE",
"37 17 CURVE SMOOTH",
"459 510 LINE",
"452 513 OFFCURVE",
"446 514 OFFCURVE",
"440 514 CURVE SMOOTH",
"427 514 OFFCURVE",
"416 507 OFFCURVE",
"399 487 CURVE SMOOTH",
"-18 0 LINE",
"-13 -3 OFFCURVE",
"-6 -4 OFFCURVE",
"0 -4 CURVE SMOOTH"
);
},
{
closed = 1;
nodes = (
"387 -4 OFFCURVE",
"396 10 OFFCURVE",
"385 29 CURVE SMOOTH",
"114 514 LINE",
"97 514 OFFCURVE",
"82 502 OFFCURVE",
"92 484 CURVE SMOOTH",
"364 -4 LINE"
);
}
);
width = 449;
}
);
leftKerningGroup = x;
note = x;
rightKerningGroup = x;
unicode = 0078;
},
{
glyphname = y;
layers = (
{
anchors = (
{
name = bottom;
position = "{244, 0}";
},
{
name = top;
position = "{259, 510}";
}
);
layerId = "5FF70513-4D67-4EEC-9617-036848F9F755";
paths = (
{
closed = 1;
nodes = (
"79 -150 OFFCURVE",
"115 -125 OFFCURVE",
"143 -73 CURVE SMOOTH",
"458 510 LINE",
"452 513 OFFCURVE",
"445 514 OFFCURVE",
"440 514 CURVE SMOOTH",
"428 514 OFFCURVE",
"418 505 OFFCURVE",
"411 491 CURVE SMOOTH",
"184 67 LINE",
"86 514 LINE",
"66 514 OFFCURVE",
"52 499 OFFCURVE",
"57 478 CURVE SMOOTH",
"158 21 LINE",
"109 -69 LINE SMOOTH",
"91 -102 OFFCURVE",
"65 -120 OFFCURVE",
"35 -120 CURVE SMOOTH",
"14 -120 OFFCURVE",
"-6 -111 OFFCURVE",
"-17 -91 CURVE",
"-28 -91 OFFCURVE",
"-34 -97 OFFCURVE",
"-36 -109 CURVE SMOOTH",
"-39 -128 OFFCURVE",
"-12 -150 OFFCURVE",
"32 -150 CURVE SMOOTH"
);
}
);
width = 435;
}
);
leftKerningGroup = y;
note = y;
rightKerningGroup = v;
rightMetricsKey = v;
unicode = 0079;
},
{
glyphname = z;
layers = (
{
anchors = (
{
name = bottom;
position = "{161, 0}";
},
{
name = top;
position = "{242, 510}";
}
);
layerId = "5FF70513-4D67-4EEC-9617-036848F9F755";
paths = (
{
closed = 1;
nodes = (
"314 0 LINE SMOOTH",
"332 0 OFFCURVE",
"344 7 OFFCURVE",
"346 19 CURVE SMOOTH",
"347 23 OFFCURVE",
"346 26 OFFCURVE",
"345 30 CURVE",
"28 30 LINE",
"405 494 LINE",
"408 510 LINE",
"110 510 LINE SMOOTH",
"92 510 OFFCURVE",
"80 503 OFFCURVE",
"78 491 CURVE SMOOTH",
"77 487 OFFCURVE",
"78 484 OFFCURVE",
"79 480 CURVE",
"356 480 LINE",
"-21 16 LINE",
"-24 0 LINE"
);
}
);
width = 401;
}
);
leftKerningGroup = z;
note = z;
rightKerningGroup = z;
unicode = 007A;
},
{
glyphname = ordfeminine;
layers = (
{
layerId = "5FF70513-4D67-4EEC-9617-036848F9F755";
paths = (
{
closed = 1;
nodes = (
"215 395 OFFCURVE",
"249 411 OFFCURVE",
"273 437 CURVE",
"267 401 LINE",
"271 399 OFFCURVE",
"274 398 OFFCURVE",
"277 398 CURVE SMOOTH",
"291 398 OFFCURVE",
"299 408 OFFCURVE",
"302 424 CURVE SMOOTH",
"330 599 LINE SMOOTH",
"331 608 OFFCURVE",
"332 616 OFFCURVE",
"332 624 CURVE SMOOTH",
"332 680 OFFCURVE",
"297 713 OFFCURVE",
"236 713 CURVE SMOOTH",
"182 713 OFFCURVE",
"132 684 OFFCURVE",
"131 662 CURVE SMOOTH",
"130 655 OFFCURVE",
"134 649 OFFCURVE",
"143 648 CURVE",
"173 676 OFFCURVE",
"202 688 OFFCURVE",
"232 688 CURVE SMOOTH",
"276 688 OFFCURVE",
"301 663 OFFCURVE",
"301 620 CURVE SMOOTH",
"301 613 OFFCURVE",
"300 606 OFFCURVE",
"299 599 CURVE SMOOTH",
"293 559 LINE",
"279 574 OFFCURVE",
"255 585 OFFCURVE",
"219 585 CURVE SMOOTH",
"147 585 OFFCURVE",
"94 542 OFFCURVE",
"94 473 CURVE SMOOTH",
"94 427 OFFCURVE",
"124 395 OFFCURVE",
"176 395 CURVE SMOOTH"
);
},
{
closed = 1;
nodes = (
"146 419 OFFCURVE",
"126 439 OFFCURVE",
"126 472 CURVE SMOOTH",
"126 525 OFFCURVE",
"162 560 OFFCURVE",
"215 560 CURVE SMOOTH",
"255 560 OFFCURVE",
"290 544 OFFCURVE",
"285 510 CURVE SMOOTH",
"282 492 LINE SMOOTH",
"275 447 OFFCURVE",
"226 419 OFFCURVE",
"181 419 CURVE SMOOTH"
);
}
);
width = 334;
}
);
note = ordfeminine;
unicode = 00AA;
},
{
glyphname = ordmasculine;
lastChange = "2018-03-12 19:43:50 +0000";
layers = (
{
layerId = "5FF70513-4D67-4EEC-9617-036848F9F755";
paths = (
{
closed = 1;
nodes = (
"308 395 OFFCURVE",
"364 489 OFFCURVE",
"364 593 CURVE SMOOTH",
"364 667 OFFCURVE",
"320 713 OFFCURVE",
"251 713 CURVE SMOOTH",
"152 713 OFFCURVE",
"95 620 OFFCURVE",
"95 516 CURVE SMOOTH",
"95 441 OFFCURVE",
"139 395 OFFCURVE",
"209 395 CURVE SMOOTH"
);
},
{
closed = 1;
nodes = (
"157 421 OFFCURVE",
"128 458 OFFCURVE",
"128 520 CURVE SMOOTH",
"128 601 OFFCURVE",
"172 687 OFFCURVE",
"251 687 CURVE SMOOTH",
"302 687 OFFCURVE",
"332 650 OFFCURVE",
"332 590 CURVE SMOOTH",
"332 506 OFFCURVE",
"288 421 OFFCURVE",
"209 421 CURVE SMOOTH"
);
}
);
width = 366;
}
);
note = ordmasculine;
unicode = 00BA;
},
{
glyphname = nmod;
lastChange = "2018-03-12 19:43:50 +0000";
layers = (
{
layerId = "5FF70513-4D67-4EEC-9617-036848F9F755";
paths = (
{
closed = 1;
nodes = (
"113 398 OFFCURVE",
"122 409 OFFCURVE",
"125 426 CURVE SMOOTH",
"144 551 LINE SMOOTH",
"157 639 OFFCURVE",
"199 685 OFFCURVE",
"253 685 CURVE SMOOTH",
"292 685 OFFCURVE",
"314 661 OFFCURVE",
"314 622 CURVE SMOOTH",
"314 616 OFFCURVE",
"313 610 OFFCURVE",
"312 603 CURVE SMOOTH",
"280 400 LINE",
"285 399 OFFCURVE",
"288 398 OFFCURVE",
"292 398 CURVE SMOOTH",
"307 398 OFFCURVE",
"316 409 OFFCURVE",
"319 426 CURVE SMOOTH",
"347 602 LINE SMOOTH",
"348 610 OFFCURVE",
"349 619 OFFCURVE",
"349 627 CURVE SMOOTH",
"349 682 OFFCURVE",
"314 714 OFFCURVE",
"261 714 CURVE SMOOTH",
"215 714 OFFCURVE",
"180 687 OFFCURVE",
"161 654 CURVE",
"169 708 LINE",
"165 709 OFFCURVE",
"161 710 OFFCURVE",
"158 710 CURVE SMOOTH",
"143 710 OFFCURVE",
"133 699 OFFCURVE",
"131 682 CURVE SMOOTH",
"86 401 LINE",
"91 399 OFFCURVE",
"94 398 OFFCURVE",
"98 398 CURVE SMOOTH"
);
}
);
width = 356;
}
);
note = uni207F;
unicode = 207F;
},
{
glyphname = Delta;
layers = (
{
layerId = "5FF70513-4D67-4EEC-9617-036848F9F755";
paths = (
{
closed = 1;
nodes = (
"468 0 LINE",
"471 16 LINE",
"351 700 LINE",
"327 700 LINE",
"-9 16 LINE",
"-12 0 LINE"
);
},
{
closed = 1;
nodes = (
"327 622 LINE",
"430 30 LINE",
"36 30 LINE"
);
}
);
width = 536;
}
);
note = Delta;
unicode = 0394;
},
{
glyphname = Omega;
lastChange = "2018-03-12 19:43:50 +0000";
layers = (
{
layerId = "5FF70513-4D67-4EEC-9617-036848F9F755";
paths = (
{
closed = 1;
nodes = (
"245 0 LINE",
"271 164 LINE",
"174 184 OFFCURVE",
"117 260 OFFCURVE",
"117 366 CURVE SMOOTH",
"117 538 OFFCURVE",
"236 679 OFFCURVE",
"414 679 CURVE SMOOTH",
"550 679 OFFCURVE",
"630 601 OFFCURVE",
"630 474 CURVE SMOOTH",
"630 327 OFFCURVE",
"540 191 OFFCURVE",
"393 164 CURVE",
"367 0 LINE",
"585 0 LINE SMOOTH",
"603 0 OFFCURVE",
"615 7 OFFCURVE",
"617 19 CURVE",
"618 23 OFFCURVE",
"617 26 OFFCURVE",
"616 30 CURVE",
"410 30 LINE",
"427 141 LINE",
"576 181 OFFCURVE",
"669 317 OFFCURVE",
"669 474 CURVE SMOOTH",
"669 618 OFFCURVE",
"572 710 OFFCURVE",
"414 710 CURVE SMOOTH",
"214 710 OFFCURVE",
"77 564 OFFCURVE",
"77 366 CURVE SMOOTH",
"77 255 OFFCURVE",
"133 169 OFFCURVE",
"229 141 CURVE",
"212 30 LINE",
"34 30 LINE SMOOTH",
"16 30 OFFCURVE",
"4 23 OFFCURVE",
"2 11 CURVE",
"1 7 OFFCURVE",
"2 4 OFFCURVE",
"3 0 CURVE"
);
}
);
width = 694;
}
);
note = Omega;
unicode = 03A9;
},
{
glyphname = mu;
lastChange = "2018-03-12 19:43:50 +0000";
layers = (
{
layerId = "5FF70513-4D67-4EEC-9617-036848F9F755";
paths = (
{
closed = 1;
nodes = (
"44 -144 OFFCURVE",
"54 -131 OFFCURVE",
"57 -109 CURVE SMOOTH",
"82 63 LINE",
"102 14 OFFCURVE",
"148 -10 OFFCURVE",
"203 -10 CURVE SMOOTH",
"282 -10 OFFCURVE",
"344 39 OFFCURVE",
"380 102 CURVE",
"364 0 LINE",
"369 -3 OFFCURVE",
"372 -4 OFFCURVE",
"376 -4 CURVE SMOOTH",
"393 -4 OFFCURVE",
"402 9 OFFCURVE",
"406 31 CURVE SMOOTH",
"482 510 LINE",
"477 513 OFFCURVE",
"473 514 OFFCURVE",
"469 514 CURVE SMOOTH",
"452 514 OFFCURVE",
"443 501 OFFCURVE",
"440 479 CURVE SMOOTH",
"403 247 LINE SMOOTH",
"382 112 OFFCURVE",
"303 21 OFFCURVE",
"206 21 CURVE SMOOTH",
"132 21 OFFCURVE",
"86 74 OFFCURVE",
"99 159 CURVE SMOOTH",
"155 510 LINE",
"150 513 OFFCURVE",
"146 514 OFFCURVE",
"142 514 CURVE SMOOTH",
"125 514 OFFCURVE",
"116 501 OFFCURVE",
"113 479 CURVE SMOOTH",
"15 -140 LINE",
"19 -143 OFFCURVE",
"23 -144 OFFCURVE",
"27 -144 CURVE SMOOTH"
);
}
);
width = 519;
}
);
leftMetricsKey = "=|";
note = mu;
rightMetricsKey = u;
unicode = 03BC;
},
{
glyphname = pi;
lastChange = "2018-03-12 19:43:50 +0000";
layers = (
{
layerId = "5FF70513-4D67-4EEC-9617-036848F9F755";
paths = (
{
closed = 1;
nodes = (
"406 -4 OFFCURVE",
"442 17 OFFCURVE",
"445 39 CURVE",
"447 49 OFFCURVE",
"442 55 OFFCURVE",
"432 55 CURVE",
"414 33 OFFCURVE",
"391 26 OFFCURVE",
"373 26 CURVE SMOOTH",
"340 26 OFFCURVE",
"327 50 OFFCURVE",
"334 94 CURVE SMOOTH",
"395 480 LINE",
"486 480 LINE SMOOTH",
"504 480 OFFCURVE",
"516 487 OFFCURVE",
"518 499 CURVE",
"519 502 OFFCURVE",
"518 506 OFFCURVE",
"517 510 CURVE",
"100 510 LINE SMOOTH",
"82 510 OFFCURVE",
"70 503 OFFCURVE",
"68 491 CURVE",
"67 487 OFFCURVE",
"68 484 OFFCURVE",
"69 480 CURVE",
"151 480 LINE",
"75 0 LINE",
"80 -3 OFFCURVE",
"83 -4 OFFCURVE",
"87 -4 CURVE SMOOTH",
"104 -4 OFFCURVE",
"113 9 OFFCURVE",
"117 31 CURVE SMOOTH",
"188 480 LINE",
"358 480 LINE",
"296 90 LINE SMOOTH",
"287 30 OFFCURVE",
"310 -4 OFFCURVE",
"364 -4 CURVE SMOOTH"
);
}
);
width = 509;
}
);
note = pi;
unicode = 03C0;
},
{
glyphname = "koKai-thai";
layers = (
{
anchors = (
{
name = bottom;
position = "{420, 0}";
},
{
name = top;
position = "{491, 510}";
}
);
layerId = "5FF70513-4D67-4EEC-9617-036848F9F755";
paths = (
{
closed = 1;
nodes = (
"412 -4 OFFCURVE",
"421 9 OFFCURVE",
"425 31 CURVE SMOOTH",
"481 385 LINE SMOOTH",
"487 425 OFFCURVE",
"493 441 OFFCURVE",
"506 454 CURVE",
"502 466 LINE",
"484 468 OFFCURVE",
"466 474 OFFCURVE",
"441 488 CURVE SMOOTH",
"356 536 LINE SMOOTH",
"334 548 OFFCURVE",
"307 560 OFFCURVE",
"271 560 CURVE SMOOTH",
"185 560 OFFCURVE",
"104 497 OFFCURVE",
"53 413 CURVE",
"53 409 LINE",
"100 393 OFFCURVE",
"128 377 OFFCURVE",
"148 337 CURVE",
"179 355 LINE",
"162 397 OFFCURVE",
"127 422 OFFCURVE",
"85 431 CURVE",
"89 413 LINE",
"130 478 OFFCURVE",
"195 529 OFFCURVE",
"266 529 CURVE SMOOTH",
"294 529 OFFCURVE",
"318 522 OFFCURVE",
"341 509 CURVE SMOOTH",
"417 466 LINE SMOOTH",
"446 449 OFFCURVE",
"462 442 OFFCURVE",
"482 441 CURVE",
"479 461 LINE",
"456 442 OFFCURVE",
"450 421 OFFCURVE",
"445 389 CURVE SMOOTH",
"383 0 LINE",
"388 -3 OFFCURVE",
"391 -4 OFFCURVE",
"395 -4 CURVE SMOOTH"
);
},
{
closed = 1;
nodes = (
"93 -4 OFFCURVE",
"102 9 OFFCURVE",
"106 31 CURVE SMOOTH",
"140 245 LINE SMOOTH",
"152 321 OFFCURVE",
"176 376 OFFCURVE",
"280 376 CURVE",
"281 382 LINE",
"266 391 OFFCURVE",
"249 396 OFFCURVE",
"224 396 CURVE SMOOTH",
"165 396 OFFCURVE",
"117 337 OFFCURVE",
"103 245 CURVE SMOOTH",
"64 0 LINE",
"69 -3 OFFCURVE",
"72 -4 OFFCURVE",
"76 -4 CURVE SMOOTH"
);
}
);
width = 548;
}
);
note = uni0E01;
unicode = 0E01;
},
{
glyphname = "thoThung-thai";
layers = (
{
anchors = (
{
name = bottom;
position = "{422, 0}";
},
{
name = top;
position = "{493, 510}";
}
);
layerId = "5FF70513-4D67-4EEC-9617-036848F9F755";
paths = (
{
closed = 1;
nodes = (
"414 -4 OFFCURVE",
"423 9 OFFCURVE",
"427 31 CURVE SMOOTH",
"483 385 LINE SMOOTH",
"489 425 OFFCURVE",
"495 441 OFFCURVE",
"508 454 CURVE",
"504 466 LINE",
"486 468 OFFCURVE",
"468 474 OFFCURVE",
"443 488 CURVE SMOOTH",
"358 536 LINE SMOOTH",
"336 548 OFFCURVE",
"309 560 OFFCURVE",
"273 560 CURVE SMOOTH",
"188 560 OFFCURVE",
"102 497 OFFCURVE",
"51 413 CURVE",
"51 409 LINE",
"98 393 OFFCURVE",
"126 377 OFFCURVE",
"146 337 CURVE",
"177 355 LINE",
"160 397 OFFCURVE",
"125 422 OFFCURVE",
"83 431 CURVE",
"87 413 LINE",
"128 478 OFFCURVE",
"199 529 OFFCURVE",
"268 529 CURVE SMOOTH",
"296 529 OFFCURVE",
"320 522 OFFCURVE",
"343 509 CURVE SMOOTH",
"419 466 LINE SMOOTH",
"448 449 OFFCURVE",
"464 442 OFFCURVE",
"484 441 CURVE",
"481 461 LINE",
"458 442 OFFCURVE",
"452 421 OFFCURVE",
"447 389 CURVE SMOOTH",
"385 0 LINE",
"390 -3 OFFCURVE",
"393 -4 OFFCURVE",
"397 -4 CURVE SMOOTH"
);
},
{
closed = 1;
nodes = (
"124 24 OFFCURVE",
"109 39 OFFCURVE",
"109 62 CURVE SMOOTH",
"109 93 OFFCURVE",
"133 117 OFFCURVE",
"162 117 CURVE SMOOTH",
"185 117 OFFCURVE",
"200 101 OFFCURVE",
"200 78 CURVE SMOOTH",
"200 47 OFFCURVE",
"176 24 OFFCURVE",
"147 24 CURVE SMOOTH"
);
},
{
closed = 1;
nodes = (
"193 -6 OFFCURVE",
"236 32 OFFCURVE",
"236 83 CURVE SMOOTH",
"236 120 OFFCURVE",
"208 146 OFFCURVE",
"166 146 CURVE SMOOTH",
"134 146 OFFCURVE",
"106 131 OFFCURVE",
"94 111 CURVE",
"110 111 LINE",
"119 135 OFFCURVE",
"123 150 OFFCURVE",
"126 171 CURVE SMOOTH",
"138 245 LINE SMOOTH",
"150 321 OFFCURVE",
"174 376 OFFCURVE",
"278 376 CURVE",
"279 382 LINE",
"264 391 OFFCURVE",
"247 396 OFFCURVE",
"222 396 CURVE SMOOTH",
"163 396 OFFCURVE",
"115 337 OFFCURVE",
"101 245 CURVE SMOOTH",
"75 80 LINE SMOOTH",
"74 74 OFFCURVE",
"74 69 OFFCURVE",
"74 63 CURVE SMOOTH",
"74 22 OFFCURVE",
"100 -6 OFFCURVE",
"142 -6 CURVE SMOOTH"
);
}
);
width = 550;
}
);
note = uni0E16;
rightMetricsKey = "koKai-thai";
unicode = 0E16;
},
{
glyphname = "phoSamphao-thai";
layers = (
{
anchors = (
{
name = bottom;
position = "{467, 0}";
},
{
name = top;
position = "{538, 510}";
}
);
layerId = "5FF70513-4D67-4EEC-9617-036848F9F755";
paths = (
{
closed = 1;
nodes = (
"459 -4 OFFCURVE",
"468 9 OFFCURVE",
"472 31 CURVE SMOOTH",
"528 385 LINE SMOOTH",
"534 425 OFFCURVE",
"540 441 OFFCURVE",
"553 454 CURVE",
"549 466 LINE",
"531 468 OFFCURVE",
"513 474 OFFCURVE",
"488 488 CURVE SMOOTH",
"403 536 LINE SMOOTH",
"381 548 OFFCURVE",
"354 560 OFFCURVE",
"318 560 CURVE SMOOTH",
"233 560 OFFCURVE",
"149 507 OFFCURVE",
"94 413 CURVE",
"94 409 LINE",
"142 395 OFFCURVE",
"174 375 OFFCURVE",
"195 337 CURVE",
"226 355 LINE",
"209 397 OFFCURVE",
"168 422 OFFCURVE",
"126 431 CURVE",
"130 413 LINE",
"180 488 OFFCURVE",
"244 529 OFFCURVE",
"313 529 CURVE SMOOTH",
"341 529 OFFCURVE",
"365 522 OFFCURVE",
"388 509 CURVE SMOOTH",
"464 466 LINE SMOOTH",
"493 449 OFFCURVE",
"509 442 OFFCURVE",
"529 441 CURVE",
"526 461 LINE",
"503 442 OFFCURVE",
"497 421 OFFCURVE",
"492 389 CURVE SMOOTH",
"430 0 LINE",
"435 -3 OFFCURVE",
"438 -4 OFFCURVE",
"442 -4 CURVE SMOOTH"
);
},
{
closed = 1;
nodes = (
"54 24 OFFCURVE",
"38 39 OFFCURVE",
"38 62 CURVE SMOOTH",
"38 93 OFFCURVE",
"63 117 OFFCURVE",
"92 117 CURVE SMOOTH",
"115 117 OFFCURVE",
"129 101 OFFCURVE",
"129 79 CURVE SMOOTH",
"129 47 OFFCURVE",
"106 24 OFFCURVE",
"77 24 CURVE SMOOTH"
);
},
{
closed = 1;
nodes = (
"119 -6 OFFCURVE",
"159 30 OFFCURVE",
"167 80 CURVE SMOOTH",
"193 245 LINE SMOOTH",
"205 321 OFFCURVE",
"229 376 OFFCURVE",
"333 376 CURVE",
"334 382 LINE",
"319 391 OFFCURVE",
"302 396 OFFCURVE",
"277 396 CURVE SMOOTH",
"218 396 OFFCURVE",
"170 337 OFFCURVE",
"156 245 CURVE SMOOTH",
"144 171 LINE SMOOTH",
"142 157 OFFCURVE",
"141 146 OFFCURVE",
"141 133 CURVE SMOOTH",
"141 127 OFFCURVE",
"141 119 OFFCURVE",
"142 111 CURVE",
"158 111 LINE",
"152 131 OFFCURVE",
"128 146 OFFCURVE",
"96 146 CURVE SMOOTH",
"45 146 OFFCURVE",
"2 108 OFFCURVE",
"2 57 CURVE SMOOTH",
"2 20 OFFCURVE",
"30 -6 OFFCURVE",
"72 -6 CURVE SMOOTH"
);
}
);
width = 595;
}
);
note = uni0E20;
rightMetricsKey = "koKai-thai";
unicode = 0E20;
},
{
glyphname = "ru-thai";
layers = (
{
anchors = (
{
name = bottom;
position = "{393, -180}";
},
{
name = top;
position = "{493, 510}";
}
);
layerId = "5FF70513-4D67-4EEC-9617-036848F9F755";
paths = (
{
closed = 1;
nodes = (
"378 -234 OFFCURVE",
"387 -221 OFFCURVE",
"390 -199 CURVE SMOOTH",
"483 385 LINE SMOOTH",
"489 425 OFFCURVE",
"495 441 OFFCURVE",
"508 454 CURVE",
"504 466 LINE",
"485 468 OFFCURVE",
"466 475 OFFCURVE",
"443 488 CURVE SMOOTH",
"358 536 LINE SMOOTH",
"336 548 OFFCURVE",
"309 560 OFFCURVE",
"272 560 CURVE SMOOTH",
"188 560 OFFCURVE",
"102 497 OFFCURVE",
"51 413 CURVE",
"51 409 LINE",
"98 393 OFFCURVE",
"126 377 OFFCURVE",
"146 337 CURVE",
"177 355 LINE",
"160 397 OFFCURVE",
"125 422 OFFCURVE",
"83 431 CURVE",
"87 413 LINE",
"126 475 OFFCURVE",
"196 529 OFFCURVE",
"269 529 CURVE SMOOTH",
"295 529 OFFCURVE",
"320 522 OFFCURVE",
"343 509 CURVE SMOOTH",
"419 466 LINE SMOOTH",
"450 448 OFFCURVE",
"464 442 OFFCURVE",
"484 441 CURVE",
"481 461 LINE",
"458 442 OFFCURVE",
"452 421 OFFCURVE",
"447 389 CURVE SMOOTH",
"349 -230 LINE",
"353 -233 OFFCURVE",
"357 -234 OFFCURVE",
"361 -234 CURVE SMOOTH"
);
},
{
closed = 1;
nodes = (
"124 24 OFFCURVE",
"109 39 OFFCURVE",
"109 63 CURVE SMOOTH",
"109 93 OFFCURVE",
"133 117 OFFCURVE",
"162 117 CURVE SMOOTH",
"185 117 OFFCURVE",
"200 101 OFFCURVE",
"200 77 CURVE SMOOTH",
"200 47 OFFCURVE",
"176 24 OFFCURVE",
"147 24 CURVE SMOOTH"
);
},
{
closed = 1;
nodes = (
"193 -6 OFFCURVE",
"236 33 OFFCURVE",
"236 82 CURVE SMOOTH",
"236 121 OFFCURVE",
"208 146 OFFCURVE",
"166 146 CURVE SMOOTH",
"134 146 OFFCURVE",
"106 131 OFFCURVE",
"94 111 CURVE",
"110 111 LINE",
"121 139 OFFCURVE",
"124 158 OFFCURVE",
"126 171 CURVE SMOOTH",
"138 245 LINE SMOOTH",
"150 321 OFFCURVE",
"174 376 OFFCURVE",
"278 376 CURVE",
"279 382 LINE",
"264 391 OFFCURVE",
"245 396 OFFCURVE",
"226 396 CURVE SMOOTH",
"161 396 OFFCURVE",
"115 337 OFFCURVE",
"101 245 CURVE SMOOTH",
"75 80 LINE SMOOTH",
"74 74 OFFCURVE",
"74 69 OFFCURVE",
"74 67 CURVE SMOOTH",
"74 20 OFFCURVE",
"100 -6 OFFCURVE",
"142 -6 CURVE SMOOTH"
);
}
);
width = 550;
}
);
leftMetricsKey = "thoThung-thai";
note = uni0E24;
rightMetricsKey = "koKai-thai";
unicode = 0E24;
},
{
glyphname = "ru-thai.short";
layers = (
{
anchors = (
{
name = bottom;
position = "{393, -180}";
},
{
name = top;
position = "{493, 510}";
}
);
layerId = "5FF70513-4D67-4EEC-9617-036848F9F755";
paths = (
{
closed = 1;
nodes = (
"386 -184 OFFCURVE",
"395 -171 OFFCURVE",
"398 -149 CURVE SMOOTH",
"483 385 LINE SMOOTH",
"489 425 OFFCURVE",
"495 441 OFFCURVE",
"508 454 CURVE",
"504 466 LINE",
"485 468 OFFCURVE",
"466 475 OFFCURVE",
"443 488 CURVE SMOOTH",
"358 536 LINE SMOOTH",
"336 548 OFFCURVE",
"309 560 OFFCURVE",
"272 560 CURVE SMOOTH",
"188 560 OFFCURVE",
"102 497 OFFCURVE",
"51 413 CURVE",
"51 409 LINE",
"98 393 OFFCURVE",
"126 377 OFFCURVE",
"146 337 CURVE",
"177 355 LINE",
"160 397 OFFCURVE",
"125 422 OFFCURVE",
"83 431 CURVE",
"87 413 LINE",
"126 475 OFFCURVE",
"196 529 OFFCURVE",
"269 529 CURVE SMOOTH",
"295 529 OFFCURVE",
"320 522 OFFCURVE",
"343 509 CURVE SMOOTH",
"419 466 LINE SMOOTH",
"450 448 OFFCURVE",
"464 442 OFFCURVE",
"484 441 CURVE",
"481 461 LINE",
"458 442 OFFCURVE",
"452 421 OFFCURVE",
"447 389 CURVE SMOOTH",
"356 -180 LINE",
"361 -183 OFFCURVE",
"365 -184 OFFCURVE",
"369 -184 CURVE SMOOTH"
);
},
{
closed = 1;
nodes = (
"124 24 OFFCURVE",
"109 39 OFFCURVE",
"109 63 CURVE SMOOTH",
"109 93 OFFCURVE",
"133 117 OFFCURVE",
"162 117 CURVE SMOOTH",
"185 117 OFFCURVE",
"200 101 OFFCURVE",
"200 77 CURVE SMOOTH",
"200 47 OFFCURVE",
"176 24 OFFCURVE",
"147 24 CURVE SMOOTH"
);
},
{
closed = 1;
nodes = (
"193 -6 OFFCURVE",
"236 33 OFFCURVE",
"236 82 CURVE SMOOTH",
"236 121 OFFCURVE",
"208 146 OFFCURVE",
"166 146 CURVE SMOOTH",
"134 146 OFFCURVE",
"106 131 OFFCURVE",
"94 111 CURVE",
"110 111 LINE",
"121 139 OFFCURVE",
"124 158 OFFCURVE",
"126 171 CURVE SMOOTH",
"138 245 LINE SMOOTH",
"150 321 OFFCURVE",
"174 376 OFFCURVE",
"278 376 CURVE",
"279 382 LINE",
"264 391 OFFCURVE",
"245 396 OFFCURVE",
"226 396 CURVE SMOOTH",
"161 396 OFFCURVE",
"115 337 OFFCURVE",
"101 245 CURVE SMOOTH",
"75 80 LINE SMOOTH",
"74 74 OFFCURVE",
"74 69 OFFCURVE",
"74 67 CURVE SMOOTH",
"74 20 OFFCURVE",
"100 -6 OFFCURVE",
"142 -6 CURVE SMOOTH"
);
}
);
width = 550;
}
);
leftMetricsKey = "ru-thai";
note = "ru-thai.short";
rightMetricsKey = "koKai-thai";
},
{
glyphname = "lu-thai";
layers = (
{
anchors = (
{
name = bottom;
position = "{438, -180}";
},
{
name = top;
position = "{538, 510}";
}
);
layerId = "5FF70513-4D67-4EEC-9617-036848F9F755";
paths = (
{
closed = 1;
nodes = (
"423 -234 OFFCURVE",
"432 -221 OFFCURVE",
"435 -199 CURVE SMOOTH",
"528 385 LINE SMOOTH",
"534 425 OFFCURVE",
"540 441 OFFCURVE",
"553 454 CURVE",
"549 466 LINE",
"530 468 OFFCURVE",
"511 475 OFFCURVE",
"488 488 CURVE SMOOTH",
"403 536 LINE SMOOTH",
"381 548 OFFCURVE",
"355 560 OFFCURVE",
"316 560 CURVE SMOOTH",
"234 560 OFFCURVE",
"149 507 OFFCURVE",
"94 413 CURVE",
"94 409 LINE",
"142 395 OFFCURVE",
"174 375 OFFCURVE",
"195 337 CURVE",
"226 355 LINE",
"209 397 OFFCURVE",
"168 422 OFFCURVE",
"126 431 CURVE",
"130 413 LINE",
"180 488 OFFCURVE",
"244 529 OFFCURVE",
"313 529 CURVE SMOOTH",
"341 529 OFFCURVE",
"365 522 OFFCURVE",
"388 509 CURVE SMOOTH",
"464 466 LINE SMOOTH",
"495 448 OFFCURVE",
"509 442 OFFCURVE",
"529 441 CURVE",
"526 461 LINE",
"503 442 OFFCURVE",
"497 421 OFFCURVE",
"492 389 CURVE SMOOTH",
"394 -230 LINE",
"398 -233 OFFCURVE",
"402 -234 OFFCURVE",
"406 -234 CURVE SMOOTH"
);
},
{
closed = 1;
nodes = (
"54 24 OFFCURVE",
"38 39 OFFCURVE",
"38 63 CURVE SMOOTH",
"38 93 OFFCURVE",
"63 117 OFFCURVE",
"92 117 CURVE SMOOTH",
"115 117 OFFCURVE",
"129 102 OFFCURVE",
"129 78 CURVE SMOOTH",
"129 48 OFFCURVE",
"106 24 OFFCURVE",
"77 24 CURVE SMOOTH"
);
},
{
closed = 1;
nodes = (
"120 -6 OFFCURVE",
"159 30 OFFCURVE",
"167 80 CURVE SMOOTH",
"193 245 LINE SMOOTH",
"205 321 OFFCURVE",
"229 376 OFFCURVE",
"333 376 CURVE",
"334 382 LINE",
"319 391 OFFCURVE",
"300 396 OFFCURVE",
"281 396 CURVE SMOOTH",
"212 396 OFFCURVE",
"170 332 OFFCURVE",
"156 245 CURVE SMOOTH",
"144 171 LINE SMOOTH",
"142 157 OFFCURVE",
"141 146 OFFCURVE",
"141 133 CURVE SMOOTH",
"141 127 OFFCURVE",
"141 119 OFFCURVE",
"142 111 CURVE",
"158 111 LINE",
"152 131 OFFCURVE",
"128 146 OFFCURVE",
"96 146 CURVE SMOOTH",
"45 146 OFFCURVE",
"2 107 OFFCURVE",
"2 59 CURVE SMOOTH",
"2 20 OFFCURVE",
"30 -6 OFFCURVE",
"71 -6 CURVE SMOOTH"
);
}
);
width = 595;
}
);
leftMetricsKey = "phoSamphao-thai";
note = uni0E26;
rightMetricsKey = "koKai-thai";
unicode = 0E26;
},
{
glyphname = "lu-thai.short";
layers = (
{
anchors = (
{
name = bottom;
position = "{438, -180}";
},
{
name = top;
position = "{538, 510}";
}
);
layerId = "5FF70513-4D67-4EEC-9617-036848F9F755";
paths = (
{
closed = 1;
nodes = (
"431 -184 OFFCURVE",
"440 -171 OFFCURVE",
"443 -149 CURVE SMOOTH",
"528 385 LINE SMOOTH",
"534 425 OFFCURVE",
"540 441 OFFCURVE",
"553 454 CURVE",
"549 466 LINE",
"530 468 OFFCURVE",
"511 475 OFFCURVE",
"488 488 CURVE SMOOTH",
"403 536 LINE SMOOTH",
"381 548 OFFCURVE",
"355 560 OFFCURVE",
"316 560 CURVE SMOOTH",
"234 560 OFFCURVE",
"149 507 OFFCURVE",
"94 413 CURVE",
"94 409 LINE",
"142 395 OFFCURVE",
"174 375 OFFCURVE",
"195 337 CURVE",
"226 355 LINE",
"209 397 OFFCURVE",
"168 422 OFFCURVE",
"126 431 CURVE",
"130 413 LINE",
"180 488 OFFCURVE",
"244 529 OFFCURVE",
"313 529 CURVE SMOOTH",
"341 529 OFFCURVE",
"365 522 OFFCURVE",
"388 509 CURVE SMOOTH",
"464 466 LINE SMOOTH",
"495 448 OFFCURVE",
"509 442 OFFCURVE",
"529 441 CURVE",
"526 461 LINE",
"503 442 OFFCURVE",
"497 421 OFFCURVE",
"492 389 CURVE SMOOTH",
"401 -180 LINE",
"406 -183 OFFCURVE",
"410 -184 OFFCURVE",
"414 -184 CURVE SMOOTH"
);
},
{
closed = 1;
nodes = (
"54 24 OFFCURVE",
"38 39 OFFCURVE",
"38 63 CURVE SMOOTH",
"38 93 OFFCURVE",
"63 117 OFFCURVE",
"92 117 CURVE SMOOTH",
"115 117 OFFCURVE",
"129 102 OFFCURVE",
"129 78 CURVE SMOOTH",
"129 48 OFFCURVE",
"106 24 OFFCURVE",
"77 24 CURVE SMOOTH"
);
},
{
closed = 1;
nodes = (
"120 -6 OFFCURVE",
"159 30 OFFCURVE",
"167 80 CURVE SMOOTH",
"193 245 LINE SMOOTH",
"205 321 OFFCURVE",
"229 376 OFFCURVE",
"333 376 CURVE",
"334 382 LINE",
"319 391 OFFCURVE",
"300 396 OFFCURVE",
"281 396 CURVE SMOOTH",
"212 396 OFFCURVE",
"170 332 OFFCURVE",
"156 245 CURVE SMOOTH",
"144 171 LINE SMOOTH",
"142 157 OFFCURVE",
"141 146 OFFCURVE",
"141 133 CURVE SMOOTH",
"141 127 OFFCURVE",
"141 119 OFFCURVE",
"142 111 CURVE",
"158 111 LINE",
"152 131 OFFCURVE",
"128 146 OFFCURVE",
"96 146 CURVE SMOOTH",
"45 146 OFFCURVE",
"2 107 OFFCURVE",
"2 59 CURVE SMOOTH",
"2 20 OFFCURVE",
"30 -6 OFFCURVE",
"71 -6 CURVE SMOOTH"
);
}
);
width = 595;
}
);
leftMetricsKey = "phoSamphao-thai";
note = "lu-thai.short";
rightMetricsKey = "koKai-thai";
},
{
glyphname = "doChada-thai";
layers = (
{
anchors = (
{
name = bottom;
position = "{438, -180}";
},
{
name = top;
position = "{538, 510}";
}
);
layerId = "5FF70513-4D67-4EEC-9617-036848F9F755";
paths = (
{
closed = 1;
nodes = (
"222 -240 OFFCURVE",
"297 -157 OFFCURVE",
"329 -65 CURVE SMOOTH",
"332 -57 OFFCURVE",
"333 -51 OFFCURVE",
"333 -45 CURVE SMOOTH",
"333 -31 OFFCURVE",
"327 -23 OFFCURVE",
"312 -22 CURVE",
"267 -141 OFFCURVE",
"203 -209 OFFCURVE",
"136 -209 CURVE SMOOTH",
"100 -209 OFFCURVE",
"78 -190 OFFCURVE",
"78 -157 CURVE SMOOTH",
"78 -116 OFFCURVE",
"111 -81 OFFCURVE",
"179 -81 CURVE SMOOTH",
"271 -81 OFFCURVE",
"355 -144 OFFCURVE",
"397 -230 CURVE",
"419 -230 OFFCURVE",
"433 -214 OFFCURVE",
"438 -184 CURVE SMOOTH",
"528 385 LINE SMOOTH",
"534 425 OFFCURVE",
"540 441 OFFCURVE",
"553 454 CURVE",
"549 466 LINE",
"530 468 OFFCURVE",
"511 475 OFFCURVE",
"488 488 CURVE SMOOTH",
"403 536 LINE SMOOTH",
"381 548 OFFCURVE",
"355 560 OFFCURVE",
"316 560 CURVE SMOOTH",
"234 560 OFFCURVE",
"149 507 OFFCURVE",
"94 413 CURVE",
"94 409 LINE",
"142 395 OFFCURVE",
"174 375 OFFCURVE",
"195 337 CURVE",
"226 355 LINE",
"209 397 OFFCURVE",
"168 422 OFFCURVE",
"126 431 CURVE",
"130 413 LINE",
"180 488 OFFCURVE",
"244 529 OFFCURVE",
"313 529 CURVE SMOOTH",
"341 529 OFFCURVE",
"365 522 OFFCURVE",
"388 509 CURVE SMOOTH",
"464 466 LINE SMOOTH",
"495 448 OFFCURVE",
"509 442 OFFCURVE",
"529 441 CURVE",
"526 461 LINE",
"503 442 OFFCURVE",
"497 421 OFFCURVE",
"492 389 CURVE SMOOTH",
"399 -196 LINE",
"415 -187 LINE",
"369 -106 OFFCURVE",
"277 -50 OFFCURVE",
"182 -50 CURVE SMOOTH",
"92 -50 OFFCURVE",
"41 -100 OFFCURVE",
"41 -161 CURVE SMOOTH",
"41 -211 OFFCURVE",
"75 -240 OFFCURVE",
"130 -240 CURVE SMOOTH"
);
},
{
closed = 1;
nodes = (
"54 24 OFFCURVE",
"38 39 OFFCURVE",
"38 63 CURVE SMOOTH",
"38 93 OFFCURVE",
"63 117 OFFCURVE",
"92 117 CURVE SMOOTH",
"115 117 OFFCURVE",
"129 102 OFFCURVE",
"129 78 CURVE SMOOTH",
"129 48 OFFCURVE",
"106 24 OFFCURVE",
"77 24 CURVE SMOOTH"
);
},
{
closed = 1;
nodes = (
"120 -6 OFFCURVE",
"159 30 OFFCURVE",
"167 80 CURVE SMOOTH",
"193 245 LINE SMOOTH",
"205 321 OFFCURVE",
"229 376 OFFCURVE",
"333 376 CURVE",
"334 382 LINE",
"319 391 OFFCURVE",
"300 396 OFFCURVE",
"281 396 CURVE SMOOTH",
"212 396 OFFCURVE",
"170 332 OFFCURVE",
"156 245 CURVE SMOOTH",
"144 171 LINE SMOOTH",
"142 157 OFFCURVE",
"141 146 OFFCURVE",
"141 133 CURVE SMOOTH",
"141 127 OFFCURVE",
"141 119 OFFCURVE",
"142 111 CURVE",
"158 111 LINE",
"152 131 OFFCURVE",
"128 146 OFFCURVE",
"96 146 CURVE SMOOTH",
"45 146 OFFCURVE",
"2 107 OFFCURVE",
"2 59 CURVE SMOOTH",
"2 20 OFFCURVE",
"30 -6 OFFCURVE",
"71 -6 CURVE SMOOTH"
);
}
);
width = 595;
}
);
leftMetricsKey = "phoSamphao-thai";
note = uni0E0E;
rightMetricsKey = "koKai-thai";
unicode = 0E0E;
},
{
glyphname = "doChada-thai.short";
layers = (
{
anchors = (
{
name = bottom;
position = "{438, -180}";
},
{
name = top;
position = "{538, 510}";
}
);
layerId = "5FF70513-4D67-4EEC-9617-036848F9F755";
paths = (
{
closed = 1;
nodes = (
"220 -190 OFFCURVE",
"298 -123 OFFCURVE",
"337 -15 CURVE SMOOTH",
"340 -7 OFFCURVE",
"341 -2 OFFCURVE",
"341 4 CURVE SMOOTH",
"341 16 OFFCURVE",
"337 27 OFFCURVE",
"319 28 CURVE",
"275 -91 OFFCURVE",
"211 -159 OFFCURVE",
"144 -159 CURVE SMOOTH",
"108 -159 OFFCURVE",
"85 -139 OFFCURVE",
"85 -107 CURVE SMOOTH",
"85 -68 OFFCURVE",
"118 -31 OFFCURVE",
"188 -31 CURVE SMOOTH",
"277 -31 OFFCURVE",
"362 -92 OFFCURVE",
"404 -180 CURVE",
"426 -180 OFFCURVE",
"441 -164 OFFCURVE",
"446 -134 CURVE SMOOTH",
"528 385 LINE SMOOTH",
"534 425 OFFCURVE",
"540 441 OFFCURVE",
"553 454 CURVE",
"549 466 LINE",
"530 468 OFFCURVE",
"511 475 OFFCURVE",
"488 488 CURVE SMOOTH",
"403 536 LINE SMOOTH",
"381 548 OFFCURVE",
"355 560 OFFCURVE",
"316 560 CURVE SMOOTH",
"234 560 OFFCURVE",
"149 507 OFFCURVE",
"94 413 CURVE",
"94 409 LINE",
"142 395 OFFCURVE",
"174 375 OFFCURVE",
"195 337 CURVE",
"226 355 LINE",
"209 397 OFFCURVE",
"168 422 OFFCURVE",
"126 431 CURVE",
"130 413 LINE",
"180 488 OFFCURVE",
"244 529 OFFCURVE",
"313 529 CURVE SMOOTH",
"341 529 OFFCURVE",
"365 522 OFFCURVE",
"388 509 CURVE SMOOTH",
"464 466 LINE SMOOTH",
"495 448 OFFCURVE",
"509 442 OFFCURVE",
"529 441 CURVE",
"526 461 LINE",
"503 442 OFFCURVE",
"497 421 OFFCURVE",
"492 389 CURVE SMOOTH",
"407 -146 LINE",
"423 -137 LINE",
"378 -57 OFFCURVE",
"285 0 OFFCURVE",
"191 0 CURVE SMOOTH",
"107 0 OFFCURVE",
"48 -45 OFFCURVE",
"48 -110 CURVE SMOOTH",
"48 -160 OFFCURVE",
"82 -190 OFFCURVE",
"137 -190 CURVE SMOOTH"
);
},
{
closed = 1;
nodes = (
"57 44 OFFCURVE",
"41 59 OFFCURVE",
"41 83 CURVE SMOOTH",
"41 113 OFFCURVE",
"66 137 OFFCURVE",
"95 137 CURVE SMOOTH",
"118 137 OFFCURVE",
"132 122 OFFCURVE",
"132 98 CURVE SMOOTH",
"132 68 OFFCURVE",
"109 44 OFFCURVE",
"80 44 CURVE SMOOTH"
);
},
{
closed = 1;
nodes = (
"119 14 OFFCURVE",
"161 46 OFFCURVE",
"170 100 CURVE SMOOTH",
"193 245 LINE SMOOTH",
"205 321 OFFCURVE",
"229 376 OFFCURVE",
"333 376 CURVE",
"334 382 LINE",
"319 391 OFFCURVE",
"300 396 OFFCURVE",
"281 396 CURVE SMOOTH",
"214 396 OFFCURVE",
"171 336 OFFCURVE",
"156 245 CURVE SMOOTH",
"147 191 LINE SMOOTH",
"145 177 OFFCURVE",
"144 166 OFFCURVE",
"144 154 CURVE SMOOTH",
"144 147 OFFCURVE",
"144 140 OFFCURVE",
"145 131 CURVE",
"161 131 LINE",
"155 151 OFFCURVE",
"131 166 OFFCURVE",
"99 166 CURVE SMOOTH",
"48 166 OFFCURVE",
"5 127 OFFCURVE",
"5 79 CURVE SMOOTH",
"5 40 OFFCURVE",
"33 14 OFFCURVE",
"74 14 CURVE SMOOTH"
);
}
);
width = 595;
}
);
leftMetricsKey = "phoSamphao-thai";
note = "doChada-thai.short";
rightMetricsKey = "koKai-thai";
},
{
glyphname = "toPatak-thai";
layers = (
{
anchors = (
{
name = bottom;
position = "{438, -180}";
},
{
name = top;
position = "{538, 510}";
}
);
layerId = "5FF70513-4D67-4EEC-9617-036848F9F755";
paths = (
{
closed = 1;
nodes = (
"268 -230 LINE",
"268 -158 OFFCURVE",
"284 -112 OFFCURVE",
"317 -112 CURVE SMOOTH",
"350 -112 OFFCURVE",
"384 -158 OFFCURVE",
"397 -230 CURVE",
"419 -230 OFFCURVE",
"433 -214 OFFCURVE",
"438 -184 CURVE SMOOTH",
"528 385 LINE SMOOTH",
"534 425 OFFCURVE",
"540 441 OFFCURVE",
"553 454 CURVE",
"549 466 LINE",
"530 468 OFFCURVE",
"511 475 OFFCURVE",
"488 488 CURVE SMOOTH",
"403 536 LINE SMOOTH",
"381 548 OFFCURVE",
"355 560 OFFCURVE",
"316 560 CURVE SMOOTH",
"234 560 OFFCURVE",
"149 507 OFFCURVE",
"94 413 CURVE",
"94 409 LINE",
"142 395 OFFCURVE",
"174 375 OFFCURVE",
"195 337 CURVE",
"226 355 LINE",
"209 397 OFFCURVE",
"168 422 OFFCURVE",
"126 431 CURVE",
"130 413 LINE",
"180 488 OFFCURVE",
"244 529 OFFCURVE",
"313 529 CURVE SMOOTH",
"341 529 OFFCURVE",
"365 522 OFFCURVE",
"388 509 CURVE SMOOTH",
"464 466 LINE SMOOTH",
"495 448 OFFCURVE",
"509 442 OFFCURVE",
"529 441 CURVE",
"526 461 LINE",
"503 442 OFFCURVE",
"497 421 OFFCURVE",
"492 389 CURVE SMOOTH",
"402 -179 LINE",
"418 -179 LINE",
"391 -100 OFFCURVE",
"352 -81 OFFCURVE",
"322 -81 CURVE SMOOTH",
"282 -81 OFFCURVE",
"247 -115 OFFCURVE",
"247 -169 CURVE SMOOTH",
"247 -179 OFFCURVE",
"248 -189 OFFCURVE",
"250 -199 CURVE",
"264 -194 LINE",
"236 -115 OFFCURVE",
"193 -60 OFFCURVE",
"118 -60 CURVE SMOOTH",
"53 -60 OFFCURVE",
"9 -98 OFFCURVE",
"9 -154 CURVE SMOOTH",
"9 -198 OFFCURVE",
"41 -226 OFFCURVE",
"90 -226 CURVE SMOOTH",
"161 -226 OFFCURVE",
"205 -174 OFFCURVE",
"229 -92 CURVE SMOOTH",
"233 -79 OFFCURVE",
"235 -68 OFFCURVE",
"235 -59 CURVE SMOOTH",
"235 -41 OFFCURVE",
"227 -31 OFFCURVE",
"207 -34 CURVE",
"186 -146 OFFCURVE",
"147 -195 OFFCURVE",
"92 -195 CURVE SMOOTH",
"63 -195 OFFCURVE",
"46 -181 OFFCURVE",
"46 -154 CURVE SMOOTH",
"46 -117 OFFCURVE",
"76 -91 OFFCURVE",
"114 -91 CURVE SMOOTH",
"176 -91 OFFCURVE",
"210 -140 OFFCURVE",
"252 -230 CURVE"
);
},
{
closed = 1;
nodes = (
"54 24 OFFCURVE",
"38 39 OFFCURVE",
"38 63 CURVE SMOOTH",
"38 93 OFFCURVE",
"63 117 OFFCURVE",
"92 117 CURVE SMOOTH",
"115 117 OFFCURVE",
"129 102 OFFCURVE",
"129 78 CURVE SMOOTH",
"129 48 OFFCURVE",
"106 24 OFFCURVE",
"77 24 CURVE SMOOTH"
);
},
{
closed = 1;
nodes = (
"120 -6 OFFCURVE",
"159 30 OFFCURVE",
"167 80 CURVE SMOOTH",
"193 245 LINE SMOOTH",
"205 321 OFFCURVE",
"229 376 OFFCURVE",
"333 376 CURVE",
"334 382 LINE",
"319 391 OFFCURVE",
"300 396 OFFCURVE",
"281 396 CURVE SMOOTH",
"212 396 OFFCURVE",
"170 332 OFFCURVE",
"156 245 CURVE SMOOTH",
"144 171 LINE SMOOTH",
"142 157 OFFCURVE",
"141 146 OFFCURVE",
"141 133 CURVE SMOOTH",
"141 127 OFFCURVE",
"141 119 OFFCURVE",
"142 111 CURVE",
"158 111 LINE",
"152 131 OFFCURVE",
"128 146 OFFCURVE",
"96 146 CURVE SMOOTH",
"45 146 OFFCURVE",
"2 107 OFFCURVE",
"2 59 CURVE SMOOTH",
"2 20 OFFCURVE",
"30 -6 OFFCURVE",
"71 -6 CURVE SMOOTH"
);
}
);
width = 595;
}
);
leftMetricsKey = "phoSamphao-thai";
note = uni0E0F;
rightMetricsKey = "koKai-thai";
unicode = 0E0F;
},
{
glyphname = "toPatak-thai.short";
layers = (
{
anchors = (
{
name = bottom;
position = "{438, -180}";
},
{
name = top;
position = "{538, 510}";
}
);
layerId = "5FF70513-4D67-4EEC-9617-036848F9F755";
paths = (
{
closed = 1;
nodes = (
"275 -180 LINE",
"276 -108 OFFCURVE",
"292 -62 OFFCURVE",
"325 -62 CURVE SMOOTH",
"358 -62 OFFCURVE",
"392 -108 OFFCURVE",
"404 -180 CURVE",
"426 -180 OFFCURVE",
"441 -164 OFFCURVE",
"446 -134 CURVE SMOOTH",
"528 385 LINE SMOOTH",
"534 425 OFFCURVE",
"540 441 OFFCURVE",
"553 454 CURVE",
"549 466 LINE",
"530 468 OFFCURVE",
"511 475 OFFCURVE",
"488 488 CURVE SMOOTH",
"403 536 LINE SMOOTH",
"381 548 OFFCURVE",
"355 560 OFFCURVE",
"316 560 CURVE SMOOTH",
"234 560 OFFCURVE",
"149 507 OFFCURVE",
"94 413 CURVE",
"94 409 LINE",
"142 395 OFFCURVE",
"174 375 OFFCURVE",
"195 337 CURVE",
"226 355 LINE",
"209 397 OFFCURVE",
"168 422 OFFCURVE",
"126 431 CURVE",
"130 413 LINE",
"180 488 OFFCURVE",
"244 529 OFFCURVE",
"313 529 CURVE SMOOTH",
"341 529 OFFCURVE",
"365 522 OFFCURVE",
"388 509 CURVE SMOOTH",
"464 466 LINE SMOOTH",
"495 448 OFFCURVE",
"509 442 OFFCURVE",
"529 441 CURVE",
"526 461 LINE",
"503 442 OFFCURVE",
"497 421 OFFCURVE",
"492 389 CURVE SMOOTH",
"410 -129 LINE",
"426 -129 LINE",
"399 -50 OFFCURVE",
"360 -31 OFFCURVE",
"330 -31 CURVE SMOOTH",
"290 -31 OFFCURVE",
"255 -65 OFFCURVE",
"255 -119 CURVE SMOOTH",
"255 -129 OFFCURVE",
"256 -139 OFFCURVE",
"258 -149 CURVE",
"272 -144 LINE",
"244 -65 OFFCURVE",
"201 -10 OFFCURVE",
"126 -10 CURVE SMOOTH",
"62 -10 OFFCURVE",
"17 -48 OFFCURVE",
"17 -104 CURVE SMOOTH",
"17 -149 OFFCURVE",
"50 -176 OFFCURVE",
"97 -176 CURVE SMOOTH",
"162 -176 OFFCURVE",
"212 -131 OFFCURVE",
"237 -42 CURVE SMOOTH",
"241 -28 OFFCURVE",
"243 -17 OFFCURVE",
"243 -8 CURVE SMOOTH",
"243 10 OFFCURVE",
"235 18 OFFCURVE",
"215 16 CURVE",
"194 -96 OFFCURVE",
"155 -145 OFFCURVE",
"101 -145 CURVE SMOOTH",
"71 -145 OFFCURVE",
"54 -131 OFFCURVE",
"54 -104 CURVE SMOOTH",
"54 -67 OFFCURVE",
"84 -41 OFFCURVE",
"122 -41 CURVE SMOOTH",
"189 -41 OFFCURVE",
"218 -90 OFFCURVE",
"259 -180 CURVE"
);
},
{
closed = 1;
nodes = (
"57 44 OFFCURVE",
"41 59 OFFCURVE",
"41 83 CURVE SMOOTH",
"41 114 OFFCURVE",
"68 137 OFFCURVE",
"96 137 CURVE SMOOTH",
"120 137 OFFCURVE",
"132 120 OFFCURVE",
"132 98 CURVE SMOOTH",
"132 69 OFFCURVE",
"110 44 OFFCURVE",
"80 44 CURVE SMOOTH"
);
},
{
closed = 1;
nodes = (
"119 14 OFFCURVE",
"161 46 OFFCURVE",
"170 100 CURVE SMOOTH",
"193 245 LINE SMOOTH",
"205 321 OFFCURVE",
"229 376 OFFCURVE",
"333 376 CURVE",
"334 382 LINE",
"319 391 OFFCURVE",
"300 396 OFFCURVE",
"281 396 CURVE SMOOTH",
"214 396 OFFCURVE",
"171 336 OFFCURVE",
"156 245 CURVE SMOOTH",
"147 191 LINE SMOOTH",
"145 177 OFFCURVE",
"144 166 OFFCURVE",
"144 154 CURVE SMOOTH",
"144 147 OFFCURVE",
"144 140 OFFCURVE",
"145 131 CURVE",
"161 131 LINE",
"155 151 OFFCURVE",
"131 166 OFFCURVE",
"99 166 CURVE SMOOTH",
"48 166 OFFCURVE",
"5 127 OFFCURVE",
"5 78 CURVE SMOOTH",
"5 36 OFFCURVE",
"37 14 OFFCURVE",
"74 14 CURVE SMOOTH"
);
}
);
width = 595;
}
);
leftMetricsKey = "phoSamphao-thai";
note = "toPatak-thai.short";
rightMetricsKey = "koKai-thai";
},
{
glyphname = "ru_lakkhangyao-thai";
layers = (
{
layerId = "5FF70513-4D67-4EEC-9617-036848F9F755";
paths = (
{
closed = 1;
nodes = (
"378 -234 OFFCURVE",
"387 -221 OFFCURVE",
"390 -199 CURVE SMOOTH",
"483 385 LINE SMOOTH",
"489 425 OFFCURVE",
"498 441 OFFCURVE",
"507 455 CURVE",
"504 466 LINE",
"485 468 OFFCURVE",
"466 475 OFFCURVE",
"443 488 CURVE SMOOTH",
"358 536 LINE SMOOTH",
"336 548 OFFCURVE",
"309 560 OFFCURVE",
"272 560 CURVE SMOOTH",
"188 560 OFFCURVE",
"102 497 OFFCURVE",
"51 413 CURVE",
"51 409 LINE",
"98 393 OFFCURVE",
"126 377 OFFCURVE",
"146 337 CURVE",
"177 355 LINE",
"160 397 OFFCURVE",
"125 422 OFFCURVE",
"83 431 CURVE",
"87 413 LINE",
"126 475 OFFCURVE",
"196 529 OFFCURVE",
"269 529 CURVE SMOOTH",
"295 529 OFFCURVE",
"320 522 OFFCURVE",
"343 509 CURVE SMOOTH",
"419 466 LINE SMOOTH",
"450 448 OFFCURVE",
"464 442 OFFCURVE",
"484 441 CURVE",
"481 461 LINE",
"458 442 OFFCURVE",
"452 421 OFFCURVE",
"447 389 CURVE SMOOTH",
"349 -230 LINE",
"353 -233 OFFCURVE",
"357 -234 OFFCURVE",
"361 -234 CURVE SMOOTH"
);
},
{
closed = 1;
nodes = (
"124 24 OFFCURVE",
"109 39 OFFCURVE",
"109 63 CURVE SMOOTH",
"109 93 OFFCURVE",
"133 117 OFFCURVE",
"162 117 CURVE SMOOTH",
"185 117 OFFCURVE",
"200 101 OFFCURVE",
"200 77 CURVE SMOOTH",
"200 47 OFFCURVE",
"176 24 OFFCURVE",
"147 24 CURVE SMOOTH"
);
},
{
closed = 1;
nodes = (
"193 -6 OFFCURVE",
"236 33 OFFCURVE",
"236 82 CURVE SMOOTH",
"236 121 OFFCURVE",
"208 146 OFFCURVE",
"166 146 CURVE SMOOTH",
"134 146 OFFCURVE",
"106 131 OFFCURVE",
"94 111 CURVE",
"110 111 LINE",
"121 140 OFFCURVE",
"123 152 OFFCURVE",
"126 171 CURVE SMOOTH",
"138 245 LINE SMOOTH",
"150 321 OFFCURVE",
"174 376 OFFCURVE",
"278 376 CURVE",
"279 382 LINE",
"264 391 OFFCURVE",
"245 396 OFFCURVE",
"226 396 CURVE SMOOTH",
"161 396 OFFCURVE",
"115 337 OFFCURVE",
"101 245 CURVE SMOOTH",
"75 80 LINE SMOOTH",
"74 74 OFFCURVE",
"74 69 OFFCURVE",
"74 67 CURVE SMOOTH",
"74 20 OFFCURVE",
"100 -6 OFFCURVE",
"142 -6 CURVE SMOOTH"
);
},
{
closed = 1;
nodes = (
"643 -234 OFFCURVE",
"652 -221 OFFCURVE",
"655 -199 CURVE SMOOTH",
"751 405 LINE SMOOTH",
"757 445 OFFCURVE",
"763 461 OFFCURVE",
"776 474 CURVE",
"772 486 LINE",
"756 488 OFFCURVE",
"737 493 OFFCURVE",
"722 506 CURVE SMOOTH",
"680 542 LINE SMOOTH",
"667 553 OFFCURVE",
"647 560 OFFCURVE",
"621 560 CURVE SMOOTH",
"540 560 OFFCURVE",
"486 490 OFFCURVE",
"465 435 CURVE",
"484 391 LINE",
"494 457 OFFCURVE",
"549 529 OFFCURVE",
"617 529 CURVE SMOOTH",
"633 529 OFFCURVE",
"647 525 OFFCURVE",
"660 514 CURVE SMOOTH",
"698 482 LINE SMOOTH",
"714 468 OFFCURVE",
"727 464 OFFCURVE",
"747 461 CURVE",
"749 481 LINE",
"726 462 OFFCURVE",
"720 441 OFFCURVE",
"715 409 CURVE SMOOTH",
"614 -230 LINE",
"618 -233 OFFCURVE",
"622 -234 OFFCURVE",
"626 -234 CURVE SMOOTH"
);
}
);
width = 815;
}
);
leftMetricsKey = "thoThung-thai";
note = "ru_lakkhangyao-thai";
rightMetricsKey = "koKai-thai";
},
{
glyphname = "lu_lakkhangyao-thai";
layers = (
{
layerId = "5FF70513-4D67-4EEC-9617-036848F9F755";
paths = (
{
closed = 1;
nodes = (
"423 -234 OFFCURVE",
"432 -221 OFFCURVE",
"435 -199 CURVE SMOOTH",
"528 385 LINE SMOOTH",
"534 425 OFFCURVE",
"543 441 OFFCURVE",
"552 455 CURVE",
"549 466 LINE",
"530 468 OFFCURVE",
"511 475 OFFCURVE",
"488 488 CURVE SMOOTH",
"403 536 LINE SMOOTH",
"381 548 OFFCURVE",
"355 560 OFFCURVE",
"316 560 CURVE SMOOTH",
"234 560 OFFCURVE",
"149 507 OFFCURVE",
"94 413 CURVE",
"94 409 LINE",
"142 395 OFFCURVE",
"174 375 OFFCURVE",
"195 337 CURVE",
"226 355 LINE",
"209 397 OFFCURVE",
"168 422 OFFCURVE",
"126 431 CURVE",
"130 413 LINE",
"180 488 OFFCURVE",
"244 529 OFFCURVE",
"313 529 CURVE SMOOTH",
"341 529 OFFCURVE",
"365 522 OFFCURVE",
"388 509 CURVE SMOOTH",
"464 466 LINE SMOOTH",
"495 448 OFFCURVE",
"509 442 OFFCURVE",
"529 441 CURVE",
"526 461 LINE",
"503 442 OFFCURVE",
"497 421 OFFCURVE",
"492 389 CURVE SMOOTH",
"394 -230 LINE",
"398 -233 OFFCURVE",
"402 -234 OFFCURVE",
"406 -234 CURVE SMOOTH"
);
},
{
closed = 1;
nodes = (
"54 24 OFFCURVE",
"38 39 OFFCURVE",
"38 63 CURVE SMOOTH",
"38 93 OFFCURVE",
"63 117 OFFCURVE",
"92 117 CURVE SMOOTH",
"115 117 OFFCURVE",
"129 102 OFFCURVE",
"129 78 CURVE SMOOTH",
"129 48 OFFCURVE",
"106 24 OFFCURVE",
"77 24 CURVE SMOOTH"
);
},
{
closed = 1;
nodes = (
"120 -6 OFFCURVE",
"159 30 OFFCURVE",
"167 80 CURVE SMOOTH",
"193 245 LINE SMOOTH",
"205 321 OFFCURVE",
"229 376 OFFCURVE",
"333 376 CURVE",
"334 382 LINE",
"319 391 OFFCURVE",
"300 396 OFFCURVE",
"281 396 CURVE SMOOTH",
"212 396 OFFCURVE",
"170 332 OFFCURVE",
"156 245 CURVE SMOOTH",
"144 171 LINE SMOOTH",
"142 157 OFFCURVE",
"141 146 OFFCURVE",
"141 133 CURVE SMOOTH",
"141 127 OFFCURVE",
"141 119 OFFCURVE",
"142 111 CURVE",
"158 111 LINE",
"152 131 OFFCURVE",
"128 146 OFFCURVE",
"96 146 CURVE SMOOTH",
"45 146 OFFCURVE",
"2 107 OFFCURVE",
"2 59 CURVE SMOOTH",
"2 20 OFFCURVE",
"30 -6 OFFCURVE",
"71 -6 CURVE SMOOTH"
);
},
{
closed = 1;
nodes = (
"688 -234 OFFCURVE",
"697 -221 OFFCURVE",
"700 -199 CURVE SMOOTH",
"796 405 LINE SMOOTH",
"802 445 OFFCURVE",
"808 461 OFFCURVE",
"821 474 CURVE",
"817 486 LINE",
"801 488 OFFCURVE",
"782 493 OFFCURVE",
"767 506 CURVE SMOOTH",
"725 542 LINE SMOOTH",
"712 553 OFFCURVE",
"692 560 OFFCURVE",
"666 560 CURVE SMOOTH",
"585 560 OFFCURVE",
"531 490 OFFCURVE",
"510 435 CURVE",
"529 391 LINE",
"539 457 OFFCURVE",
"594 529 OFFCURVE",
"662 529 CURVE SMOOTH",
"678 529 OFFCURVE",
"692 525 OFFCURVE",
"705 514 CURVE SMOOTH",
"743 482 LINE SMOOTH",
"759 468 OFFCURVE",
"772 464 OFFCURVE",
"792 461 CURVE",
"794 481 LINE",
"771 462 OFFCURVE",
"765 441 OFFCURVE",
"760 409 CURVE SMOOTH",
"659 -230 LINE",
"663 -233 OFFCURVE",
"667 -234 OFFCURVE",
"671 -234 CURVE SMOOTH"
);
}
);
width = 860;
}
);
leftMetricsKey = "phoSamphao-thai";
note = "lu_lakkhangyao-thai";
rightMetricsKey = "koKai-thai";
},
{
glyphname = "yoYing-thai";
layers = (
{
anchors = (
{
name = bottom;
position = "{641, -240}";
},
{
name = top;
position = "{770, 510}";
}
);
layerId = "5FF70513-4D67-4EEC-9617-036848F9F755";
paths = (
{
closed = 1;
nodes = (
"586 -240 OFFCURVE",
"659 -191 OFFCURVE",
"678 -70 CURVE SMOOTH",
"776 550 LINE",
"772 553 OFFCURVE",
"768 554 OFFCURVE",
"764 554 CURVE SMOOTH",
"749 554 OFFCURVE",
"738 543 OFFCURVE",
"734 519 CURVE SMOOTH",
"676 151 LINE SMOOTH",
"664 77 OFFCURVE",
"607 31 OFFCURVE",
"522 31 CURVE SMOOTH",
"479 31 OFFCURVE",
"423 43 OFFCURVE",
"379 43 CURVE",
"388 25 LINE",
"411 55 OFFCURVE",
"419 80 OFFCURVE",
"427 130 CURVE SMOOTH",
"468 391 LINE SMOOTH",
"474 431 OFFCURVE",
"480 447 OFFCURVE",
"493 460 CURVE",
"489 472 LINE",
"471 474 OFFCURVE",
"451 481 OFFCURVE",
"428 495 CURVE SMOOTH",
"358 538 LINE SMOOTH",
"338 550 OFFCURVE",
"309 560 OFFCURVE",
"273 560 CURVE SMOOTH",
"182 560 OFFCURVE",
"102 497 OFFCURVE",
"51 413 CURVE",
"51 409 LINE",
"98 393 OFFCURVE",
"126 377 OFFCURVE",
"146 337 CURVE",
"177 355 LINE",
"160 397 OFFCURVE",
"125 422 OFFCURVE",
"83 431 CURVE",
"87 413 LINE",
"128 478 OFFCURVE",
"193 529 OFFCURVE",
"268 529 CURVE SMOOTH",
"296 529 OFFCURVE",
"322 522 OFFCURVE",
"343 509 CURVE SMOOTH",
"404 471 LINE SMOOTH",
"431 454 OFFCURVE",
"449 448 OFFCURVE",
"469 447 CURVE",
"466 467 LINE",
"443 448 OFFCURVE",
"437 427 OFFCURVE",
"432 395 CURVE SMOOTH",
"390 130 LINE SMOOTH",
"380 68 OFFCURVE",
"365 42 OFFCURVE",
"350 30 CURVE",
"353 14 LINE",
"418 14 OFFCURVE",
"461 0 OFFCURVE",
"517 0 CURVE SMOOTH",
"596 0 OFFCURVE",
"648 28 OFFCURVE",
"683 75 CURVE",
"673 80 LINE",
"662 57 OFFCURVE",
"658 33 OFFCURVE",
"641 -70 CURVE SMOOTH",
"625 -168 OFFCURVE",
"569 -209 OFFCURVE",
"473 -209 CURVE SMOOTH",
"404 -209 OFFCURVE",
"362 -188 OFFCURVE",
"362 -141 CURVE SMOOTH",
"362 -99 OFFCURVE",
"396 -71 OFFCURVE",
"452 -71 CURVE SMOOTH",
"490 -71 OFFCURVE",
"509 -84 OFFCURVE",
"509 -105 CURVE SMOOTH",
"509 -129 OFFCURVE",
"482 -143 OFFCURVE",
"431 -143 CURVE",
"429 -161 OFFCURVE",
"437 -172 OFFCURVE",
"465 -172 CURVE SMOOTH",
"513 -172 OFFCURVE",
"548 -139 OFFCURVE",
"548 -99 CURVE SMOOTH",
"548 -62 OFFCURVE",
"517 -40 OFFCURVE",
"457 -40 CURVE SMOOTH",
"374 -40 OFFCURVE",
"324 -83 OFFCURVE",
"324 -146 CURVE SMOOTH",
"324 -211 OFFCURVE",
"377 -240 OFFCURVE",
"468 -240 CURVE SMOOTH"
);
},
{
closed = 1;
nodes = (
"124 24 OFFCURVE",
"109 39 OFFCURVE",
"109 63 CURVE SMOOTH",
"109 93 OFFCURVE",
"133 117 OFFCURVE",
"162 117 CURVE SMOOTH",
"185 117 OFFCURVE",
"200 101 OFFCURVE",
"200 77 CURVE SMOOTH",
"200 47 OFFCURVE",
"176 24 OFFCURVE",
"147 24 CURVE SMOOTH"
);
},
{
closed = 1;
nodes = (
"193 -6 OFFCURVE",
"236 33 OFFCURVE",
"236 82 CURVE SMOOTH",
"236 121 OFFCURVE",
"208 146 OFFCURVE",
"166 146 CURVE SMOOTH",
"134 146 OFFCURVE",
"106 131 OFFCURVE",
"94 111 CURVE",
"110 111 LINE",
"121 140 OFFCURVE",
"123 152 OFFCURVE",
"126 171 CURVE SMOOTH",
"138 245 LINE SMOOTH",
"150 321 OFFCURVE",
"174 376 OFFCURVE",
"278 376 CURVE",
"279 382 LINE",
"264 391 OFFCURVE",
"245 396 OFFCURVE",
"226 396 CURVE SMOOTH",
"161 396 OFFCURVE",
"115 337 OFFCURVE",
"101 245 CURVE SMOOTH",
"75 80 LINE SMOOTH",
"74 74 OFFCURVE",
"74 69 OFFCURVE",
"74 67 CURVE SMOOTH",
"74 20 OFFCURVE",
"100 -6 OFFCURVE",
"142 -6 CURVE SMOOTH"
);
}
);
width = 810;
}
);
leftMetricsKey = "thoThung-thai";
note = uni0E0D;
rightMetricsKey = "boBaimai-thai";
unicode = 0E0D;
},
{
glyphname = "yoYing-thai.less";
layers = (
{
anchors = (
{
name = bottom;
position = "{679, 0}";
},
{
name = top;
position = "{770, 510}";
}
);
layerId = "5FF70513-4D67-4EEC-9617-036848F9F755";
paths = (
{
closed = 1;
nodes = (
"625 -10 OFFCURVE",
"697 49 OFFCURVE",
"711 141 CURVE SMOOTH",
"776 550 LINE",
"772 553 OFFCURVE",
"768 554 OFFCURVE",
"764 554 CURVE SMOOTH",
"749 554 OFFCURVE",
"738 543 OFFCURVE",
"734 519 CURVE SMOOTH",
"674 141 LINE SMOOTH",
"663 70 OFFCURVE",
"609 21 OFFCURVE",
"521 21 CURVE SMOOTH",
"477 21 OFFCURVE",
"421 33 OFFCURVE",
"377 33 CURVE",
"386 15 LINE",
"409 45 OFFCURVE",
"417 70 OFFCURVE",
"425 120 CURVE SMOOTH",
"468 391 LINE SMOOTH",
"474 431 OFFCURVE",
"480 447 OFFCURVE",
"493 460 CURVE",
"489 472 LINE",
"471 474 OFFCURVE",
"451 481 OFFCURVE",
"428 495 CURVE SMOOTH",
"358 538 LINE SMOOTH",
"338 550 OFFCURVE",
"309 560 OFFCURVE",
"273 560 CURVE SMOOTH",
"182 560 OFFCURVE",
"102 497 OFFCURVE",
"51 413 CURVE",
"51 409 LINE",
"98 393 OFFCURVE",
"126 377 OFFCURVE",
"146 337 CURVE",
"177 355 LINE",
"160 397 OFFCURVE",
"125 422 OFFCURVE",
"83 431 CURVE",
"87 413 LINE",
"128 478 OFFCURVE",
"193 529 OFFCURVE",
"268 529 CURVE SMOOTH",
"296 529 OFFCURVE",
"322 522 OFFCURVE",
"343 509 CURVE SMOOTH",
"404 471 LINE SMOOTH",
"431 454 OFFCURVE",
"449 448 OFFCURVE",
"469 447 CURVE",
"466 467 LINE",
"443 448 OFFCURVE",
"437 427 OFFCURVE",
"432 395 CURVE SMOOTH",
"388 120 LINE SMOOTH",
"379 61 OFFCURVE",
"366 35 OFFCURVE",
"348 20 CURVE",
"352 4 LINE",
"417 4 OFFCURVE",
"460 -10 OFFCURVE",
"514 -10 CURVE SMOOTH"
);
},
{
closed = 1;
nodes = (
"124 24 OFFCURVE",
"109 39 OFFCURVE",
"109 63 CURVE SMOOTH",
"109 93 OFFCURVE",
"133 117 OFFCURVE",
"162 117 CURVE SMOOTH",
"185 117 OFFCURVE",
"200 101 OFFCURVE",
"200 77 CURVE SMOOTH",
"200 47 OFFCURVE",
"176 24 OFFCURVE",
"147 24 CURVE SMOOTH"
);
},
{
closed = 1;
nodes = (
"193 -6 OFFCURVE",
"236 33 OFFCURVE",
"236 82 CURVE SMOOTH",
"236 121 OFFCURVE",
"208 146 OFFCURVE",
"166 146 CURVE SMOOTH",
"134 146 OFFCURVE",
"106 131 OFFCURVE",
"94 111 CURVE",
"110 111 LINE",
"121 140 OFFCURVE",
"123 152 OFFCURVE",
"126 171 CURVE SMOOTH",
"138 245 LINE SMOOTH",
"150 321 OFFCURVE",
"174 376 OFFCURVE",
"278 376 CURVE",
"279 382 LINE",
"264 391 OFFCURVE",
"245 396 OFFCURVE",
"226 396 CURVE SMOOTH",
"161 396 OFFCURVE",
"115 337 OFFCURVE",
"101 245 CURVE SMOOTH",
"75 80 LINE SMOOTH",
"74 74 OFFCURVE",
"74 69 OFFCURVE",
"74 67 CURVE SMOOTH",
"74 20 OFFCURVE",
"100 -6 OFFCURVE",
"142 -6 CURVE SMOOTH"
);
}
);
width = 810;
}
);
leftMetricsKey = "thoThung-thai";
note = "yoYing-thai.less";
rightMetricsKey = "boBaimai-thai";
},
{
glyphname = "khoKhai-thai";
layers = (
{
anchors = (
{
name = bottom;
position = "{334, 0}";
},
{
name = top;
position = "{425, 510}";
}
);
layerId = "5FF70513-4D67-4EEC-9617-036848F9F755";
paths = (
{
closed = 1;
nodes = (
"291 -10 OFFCURVE",
"352 49 OFFCURVE",
"366 136 CURVE SMOOTH",
"431 550 LINE",
"427 553 OFFCURVE",
"423 554 OFFCURVE",
"419 554 CURVE SMOOTH",
"404 554 OFFCURVE",
"393 543 OFFCURVE",
"389 519 CURVE SMOOTH",
"329 136 LINE SMOOTH",
"318 67 OFFCURVE",
"271 21 OFFCURVE",
"205 21 CURVE SMOOTH",
"171 21 OFFCURVE",
"141 33 OFFCURVE",
"96 33 CURVE",
"105 15 LINE",
"130 49 OFFCURVE",
"133 60 OFFCURVE",
"147 140 CURVE SMOOTH",
"161 218 OFFCURVE",
"162 221 OFFCURVE",
"214 300 CURVE SMOOTH",
"252 358 OFFCURVE",
"279 403 OFFCURVE",
"279 461 CURVE SMOOTH",
"279 528 OFFCURVE",
"242 560 OFFCURVE",
"180 560 CURVE SMOOTH",
"96 560 OFFCURVE",
"36 503 OFFCURVE",
"36 425 CURVE SMOOTH",
"36 370 OFFCURVE",
"66 345 OFFCURVE",
"111 345 CURVE SMOOTH",
"166 345 OFFCURVE",
"199 381 OFFCURVE",
"199 430 CURVE SMOOTH",
"199 467 OFFCURVE",
"180 484 OFFCURVE",
"151 484 CURVE SMOOTH",
"127 484 OFFCURVE",
"116 473 OFFCURVE",
"116 455 CURVE",
"137 455 OFFCURVE",
"163 454 OFFCURVE",
"163 426 CURVE SMOOTH",
"163 401 OFFCURVE",
"142 375 OFFCURVE",
"110 375 CURVE SMOOTH",
"86 375 OFFCURVE",
"73 390 OFFCURVE",
"73 423 CURVE SMOOTH",
"73 482 OFFCURVE",
"115 529 OFFCURVE",
"175 529 CURVE SMOOTH",
"216 529 OFFCURVE",
"241 507 OFFCURVE",
"241 457 CURVE SMOOTH",
"241 405 OFFCURVE",
"215 364 OFFCURVE",
"180 310 CURVE SMOOTH",
"128 230 OFFCURVE",
"125 221 OFFCURVE",
"110 140 CURVE SMOOTH",
"98 72 OFFCURVE",
"93 44 OFFCURVE",
"67 20 CURVE",
"71 4 LINE",
"137 4 OFFCURVE",
"153 -10 OFFCURVE",
"198 -10 CURVE SMOOTH"
);
}
);
width = 466;
}
);
note = uni0E02;
rightMetricsKey = "boBaimai-thai";
unicode = 0E02;
},
{
glyphname = "khoKhuat-thai";
layers = (
{
anchors = (
{
name = bottom;
position = "{334, 0}";
},
{
name = top;
position = "{425, 510}";
}
);
layerId = "5FF70513-4D67-4EEC-9617-036848F9F755";
paths = (
{
closed = 1;
nodes = (
"291 -10 OFFCURVE",
"352 49 OFFCURVE",
"366 136 CURVE SMOOTH",
"431 550 LINE",
"427 553 OFFCURVE",
"423 554 OFFCURVE",
"419 554 CURVE SMOOTH",
"404 554 OFFCURVE",
"393 543 OFFCURVE",
"389 519 CURVE SMOOTH",
"329 136 LINE SMOOTH",
"318 67 OFFCURVE",
"271 21 OFFCURVE",
"205 21 CURVE SMOOTH",
"171 21 OFFCURVE",
"141 33 OFFCURVE",
"96 33 CURVE",
"105 15 LINE",
"131 51 OFFCURVE",
"134 64 OFFCURVE",
"147 140 CURVE SMOOTH",
"159 208 OFFCURVE",
"191 258 OFFCURVE",
"224 303 CURVE SMOOTH",
"264 360 OFFCURVE",
"303 410 OFFCURVE",
"303 481 CURVE SMOOTH",
"303 534 OFFCURVE",
"281 556 OFFCURVE",
"242 556 CURVE SMOOTH",
"216 556 OFFCURVE",
"196 546 OFFCURVE",
"179 522 CURVE",
"170 544 OFFCURVE",
"152 556 OFFCURVE",
"127 556 CURVE SMOOTH",
"67 556 OFFCURVE",
"36 487 OFFCURVE",
"36 428 CURVE SMOOTH",
"36 370 OFFCURVE",
"66 343 OFFCURVE",
"119 343 CURVE SMOOTH",
"191 343 OFFCURVE",
"205 394 OFFCURVE",
"205 420 CURVE SMOOTH",
"205 449 OFFCURVE",
"186 466 OFFCURVE",
"155 466 CURVE SMOOTH",
"130 466 OFFCURVE",
"117 455 OFFCURVE",
"120 437 CURVE",
"126 438 OFFCURVE",
"131 439 OFFCURVE",
"136 439 CURVE SMOOTH",
"157 439 OFFCURVE",
"168 426 OFFCURVE",
"168 410 CURVE SMOOTH",
"168 392 OFFCURVE",
"152 372 OFFCURVE",
"119 372 CURVE SMOOTH",
"88 372 OFFCURVE",
"74 389 OFFCURVE",
"74 427 CURVE SMOOTH",
"74 467 OFFCURVE",
"90 525 OFFCURVE",
"132 525 CURVE SMOOTH",
"151 525 OFFCURVE",
"167 513 OFFCURVE",
"169 489 CURVE",
"181 489 LINE",
"191 513 OFFCURVE",
"206 525 OFFCURVE",
"228 525 CURVE SMOOTH",
"253 525 OFFCURVE",
"264 511 OFFCURVE",
"264 475 CURVE SMOOTH",
"264 412 OFFCURVE",
"231 373 OFFCURVE",
"194 323 CURVE SMOOTH",
"162 279 OFFCURVE",
"127 226 OFFCURVE",
"110 140 CURVE SMOOTH",
"101 91 OFFCURVE",
"97 47 OFFCURVE",
"67 20 CURVE",
"71 4 LINE",
"137 4 OFFCURVE",
"153 -10 OFFCURVE",
"198 -10 CURVE SMOOTH"
);
}
);
width = 466;
}
);
note = uni0E03;
rightMetricsKey = "boBaimai-thai";
unicode = 0E03;
},
{
glyphname = "choChang-thai";
layers = (
{
anchors = (
{
name = bottom;
position = "{337, 0}";
},
{
name = top;
position = "{438, 510}";
}
);
layerId = "5FF70513-4D67-4EEC-9617-036848F9F755";
paths = (
{
closed = 1;
nodes = (
"293 -10 OFFCURVE",
"355 48 OFFCURVE",
"369 136 CURVE SMOOTH",
"401 340 LINE SMOOTH",
"410 393 OFFCURVE",
"364 438 OFFCURVE",
"300 454 CURVE",
"300 443 LINE",
"469 518 OFFCURVE",
"511 549 OFFCURVE",
"511 580 CURVE SMOOTH",
"511 589 OFFCURVE",
"507 593 OFFCURVE",
"501 596 CURVE",
"429 532 OFFCURVE",
"392 510 OFFCURVE",
"255 454 CURVE",
"261 431 LINE",
"310 421 OFFCURVE",
"372 392 OFFCURVE",
"365 347 CURVE SMOOTH",
"332 136 LINE SMOOTH",
"320 63 OFFCURVE",
"271 21 OFFCURVE",
"205 21 CURVE SMOOTH",
"170 21 OFFCURVE",
"140 33 OFFCURVE",
"95 33 CURVE",
"104 15 LINE",
"130 51 OFFCURVE",
"133 64 OFFCURVE",
"146 140 CURVE SMOOTH",
"159 218 OFFCURVE",
"166 229 OFFCURVE",
"213 300 CURVE SMOOTH",
"251 358 OFFCURVE",
"278 403 OFFCURVE",
"278 461 CURVE SMOOTH",
"278 528 OFFCURVE",
"241 560 OFFCURVE",
"179 560 CURVE SMOOTH",
"95 560 OFFCURVE",
"35 501 OFFCURVE",
"35 420 CURVE SMOOTH",
"35 368 OFFCURVE",
"60 345 OFFCURVE",
"105 345 CURVE SMOOTH",
"161 345 OFFCURVE",
"198 381 OFFCURVE",
"198 431 CURVE SMOOTH",
"198 467 OFFCURVE",
"179 484 OFFCURVE",
"149 484 CURVE SMOOTH",
"126 484 OFFCURVE",
"112 473 OFFCURVE",
"115 455 CURVE",
"139 456 OFFCURVE",
"162 450 OFFCURVE",
"162 425 CURVE SMOOTH",
"162 401 OFFCURVE",
"141 375 OFFCURVE",
"109 375 CURVE SMOOTH",
"85 375 OFFCURVE",
"72 390 OFFCURVE",
"72 423 CURVE SMOOTH",
"72 483 OFFCURVE",
"115 529 OFFCURVE",
"174 529 CURVE SMOOTH",
"215 529 OFFCURVE",
"240 507 OFFCURVE",
"240 457 CURVE SMOOTH",
"240 405 OFFCURVE",
"214 364 OFFCURVE",
"179 310 CURVE SMOOTH",
"131 236 OFFCURVE",
"124 224 OFFCURVE",
"109 140 CURVE SMOOTH",
"97 72 OFFCURVE",
"92 44 OFFCURVE",
"66 20 CURVE",
"70 4 LINE",
"136 4 OFFCURVE",
"153 -10 OFFCURVE",
"199 -10 CURVE SMOOTH"
);
}
);
width = 469;
}
);
leftMetricsKey = "khoKhai-thai";
note = uni0E0A;
rightMetricsKey = "choChang-thai";
unicode = 0E0A;
},
{
glyphname = "soSo-thai";
layers = (
{
anchors = (
{
name = bottom;
position = "{341, 0}";
},
{
name = top;
position = "{442, 510}";
}
);
layerId = "5FF70513-4D67-4EEC-9617-036848F9F755";
paths = (
{
closed = 1;
nodes = (
"295 -10 OFFCURVE",
"358 47 OFFCURVE",
"373 136 CURVE SMOOTH",
"405 340 LINE SMOOTH",
"415 401 OFFCURVE",
"367 430 OFFCURVE",
"296 456 CURVE",
"296 440 LINE",
"433 496 OFFCURVE",
"515 546 OFFCURVE",
"515 581 CURVE SMOOTH",
"515 588 OFFCURVE",
"511 593 OFFCURVE",
"505 596 CURVE",
"433 532 OFFCURVE",
"398 511 OFFCURVE",
"274 461 CURVE",
"274 431 LINE",
"320 420 OFFCURVE",
"375 388 OFFCURVE",
"369 347 CURVE SMOOTH",
"336 136 LINE SMOOTH",
"324 66 OFFCURVE",
"277 21 OFFCURVE",
"212 21 CURVE SMOOTH",
"167 21 OFFCURVE",
"147 33 OFFCURVE",
"104 33 CURVE",
"104 15 LINE",
"127 45 OFFCURVE",
"135 70 OFFCURVE",
"146 140 CURVE SMOOTH",
"156 204 OFFCURVE",
"171 236 OFFCURVE",
"220 300 CURVE SMOOTH",
"267 363 OFFCURVE",
"302 419 OFFCURVE",
"302 486 CURVE SMOOTH",
"302 534 OFFCURVE",
"279 556 OFFCURVE",
"238 556 CURVE SMOOTH",
"215 556 OFFCURVE",
"193 544 OFFCURVE",
"178 522 CURVE",
"169 544 OFFCURVE",
"151 556 OFFCURVE",
"127 556 CURVE SMOOTH",
"66 556 OFFCURVE",
"35 489 OFFCURVE",
"35 424 CURVE SMOOTH",
"35 373 OFFCURVE",
"66 343 OFFCURVE",
"115 343 CURVE SMOOTH",
"167 343 OFFCURVE",
"204 373 OFFCURVE",
"204 422 CURVE SMOOTH",
"204 448 OFFCURVE",
"185 466 OFFCURVE",
"153 466 CURVE SMOOTH",
"129 466 OFFCURVE",
"116 455 OFFCURVE",
"119 437 CURVE",
"143 437 OFFCURVE",
"170 436 OFFCURVE",
"167 409 CURVE SMOOTH",
"163 386 OFFCURVE",
"145 372 OFFCURVE",
"117 372 CURVE SMOOTH",
"88 372 OFFCURVE",
"73 389 OFFCURVE",
"73 424 CURVE SMOOTH",
"73 466 OFFCURVE",
"89 525 OFFCURVE",
"129 525 CURVE SMOOTH",
"151 525 OFFCURVE",
"166 513 OFFCURVE",
"168 489 CURVE",
"180 489 LINE",
"190 513 OFFCURVE",
"205 525 OFFCURVE",
"227 525 CURVE SMOOTH",
"250 525 OFFCURVE",
"263 511 OFFCURVE",
"263 481 CURVE SMOOTH",
"263 422 OFFCURVE",
"233 373 OFFCURVE",
"186 310 CURVE SMOOTH",
"135 242 OFFCURVE",
"120 208 OFFCURVE",
"109 140 CURVE SMOOTH",
"97 60 OFFCURVE",
"83 34 OFFCURVE",
"66 20 CURVE",
"70 4 LINE",
"138 4 OFFCURVE",
"148 -10 OFFCURVE",
"207 -10 CURVE SMOOTH"
);
}
);
width = 473;
}
);
leftMetricsKey = "khoKhuat-thai";
note = uni0E0B;
unicode = 0E0B;
},
{
glyphname = "khoKhwai-thai";
lastChange = "2018-03-12 19:43:50 +0000";
layers = (
{
anchors = (
{
name = bottom;
position = "{424, 0}";
},
{
name = top;
position = "{495, 510}";
}
);
layerId = "5FF70513-4D67-4EEC-9617-036848F9F755";
paths = (
{
closed = 1;
nodes = (
"94 -4 OFFCURVE",
"104 9 OFFCURVE",
"108 31 CURVE SMOOTH",
"117 87 LINE SMOOTH",
"135 200 OFFCURVE",
"169 366 OFFCURVE",
"207 390 CURVE",
"196 401 LINE",
"195 395 OFFCURVE",
"195 390 OFFCURVE",
"195 385 CURVE SMOOTH",
"195 342 OFFCURVE",
"228 313 OFFCURVE",
"273 313 CURVE SMOOTH",
"328 313 OFFCURVE",
"367 354 OFFCURVE",
"367 401 CURVE SMOOTH",
"367 446 OFFCURVE",
"328 473 OFFCURVE",
"282 473 CURVE SMOOTH",
"162 473 OFFCURVE",
"115 262 OFFCURVE",
"94 127 CURVE",
"113 127 LINE",
"114 131 OFFCURVE",
"114 135 OFFCURVE",
"114 140 CURVE SMOOTH",
"114 172 OFFCURVE",
"101 236 OFFCURVE",
"101 295 CURVE SMOOTH",
"101 428 OFFCURVE",
"168 529 OFFCURVE",
"284 529 CURVE SMOOTH",
"312 529 OFFCURVE",
"334 523 OFFCURVE",
"373 501 CURVE SMOOTH",
"422 474 LINE SMOOTH",
"450 459 OFFCURVE",
"467 450 OFFCURVE",
"487 449 CURVE",
"484 465 LINE",
"461 446 OFFCURVE",
"454 425 OFFCURVE",
"449 393 CURVE SMOOTH",
"387 0 LINE",
"392 -3 OFFCURVE",
"395 -4 OFFCURVE",
"399 -4 CURVE SMOOTH",
"414 -4 OFFCURVE",
"425 7 OFFCURVE",
"429 31 CURVE SMOOTH",
"487 395 LINE SMOOTH",
"493 435 OFFCURVE",
"498 451 OFFCURVE",
"511 464 CURVE",
"507 476 LINE",
"490 478 OFFCURVE",
"483 482 OFFCURVE",
"448 502 CURVE SMOOTH",
"394 532 LINE SMOOTH",
"359 552 OFFCURVE",
"328 560 OFFCURVE",
"290 560 CURVE SMOOTH",
"147 560 OFFCURVE",
"63 444 OFFCURVE",
"63 298 CURVE SMOOTH",
"63 238 OFFCURVE",
"77 190 OFFCURVE",
"77 130 CURVE SMOOTH",
"77 114 OFFCURVE",
"76 95 OFFCURVE",
"73 76 CURVE SMOOTH",
"61 0 LINE",
"67 -3 OFFCURVE",
"70 -4 OFFCURVE",
"75 -4 CURVE SMOOTH"
);
},
{
closed = 1;
nodes = (
"246 343 OFFCURVE",
"229 359 OFFCURVE",
"229 386 CURVE SMOOTH",
"229 419 OFFCURVE",
"253 443 OFFCURVE",
"287 443 CURVE SMOOTH",
"314 443 OFFCURVE",
"331 428 OFFCURVE",
"331 401 CURVE SMOOTH",
"331 368 OFFCURVE",
"307 343 OFFCURVE",
"273 343 CURVE SMOOTH"
);
}
);
width = 552;
}
);
note = uni0E04;
rightMetricsKey = "koKai-thai";
unicode = 0E04;
},
{
glyphname = "khoKhon-thai";
lastChange = "2018-03-12 19:43:50 +0000";
layers = (
{
anchors = (
{
name = bottom;
position = "{440, 0}";
},
{
name = top;
position = "{511, 510}";
}
);
layerId = "5FF70513-4D67-4EEC-9617-036848F9F755";
paths = (
{
closed = 1;
nodes = (
"94 -4 OFFCURVE",
"104 9 OFFCURVE",
"108 31 CURVE SMOOTH",
"117 87 LINE SMOOTH",
"135 200 OFFCURVE",
"169 324 OFFCURVE",
"210 348 CURVE",
"198 359 LINE",
"197 353 OFFCURVE",
"197 348 OFFCURVE",
"197 343 CURVE SMOOTH",
"197 300 OFFCURVE",
"228 271 OFFCURVE",
"274 271 CURVE SMOOTH",
"328 271 OFFCURVE",
"369 312 OFFCURVE",
"369 361 CURVE SMOOTH",
"369 404 OFFCURVE",
"338 431 OFFCURVE",
"292 431 CURVE SMOOTH",
"184 431 OFFCURVE",
"117 259 OFFCURVE",
"97 127 CURVE",
"113 127 LINE",
"114 131 OFFCURVE",
"114 135 OFFCURVE",
"114 140 CURVE SMOOTH",
"114 171 OFFCURVE",
"101 238 OFFCURVE",
"101 293 CURVE SMOOTH",
"101 392 OFFCURVE",
"142 525 OFFCURVE",
"219 525 CURVE SMOOTH",
"259 525 OFFCURVE",
"278 490 OFFCURVE",
"279 446 CURVE",
"301 446 LINE",
"315 491 OFFCURVE",
"341 525 OFFCURVE",
"373 525 CURVE SMOOTH",
"389 525 OFFCURVE",
"403 516 OFFCURVE",
"426 497 CURVE SMOOTH",
"460 469 OFFCURVE",
"471 458 OFFCURVE",
"503 455 CURVE",
"500 465 LINE",
"477 446 OFFCURVE",
"470 425 OFFCURVE",
"465 393 CURVE SMOOTH",
"403 0 LINE",
"408 -3 OFFCURVE",
"411 -4 OFFCURVE",
"415 -4 CURVE SMOOTH",
"430 -4 OFFCURVE",
"441 7 OFFCURVE",
"445 31 CURVE SMOOTH",
"503 395 LINE SMOOTH",
"509 435 OFFCURVE",
"514 451 OFFCURVE",
"527 464 CURVE",
"523 476 LINE",
"496 481 OFFCURVE",
"495 485 OFFCURVE",
"451 519 CURVE SMOOTH",
"408 552 OFFCURVE",
"397 556 OFFCURVE",
"381 556 CURVE SMOOTH",
"342 556 OFFCURVE",
"310 532 OFFCURVE",
"295 493 CURVE",
"294 532 OFFCURVE",
"268 556 OFFCURVE",
"226 556 CURVE SMOOTH",
"124 556 OFFCURVE",
"63 413 OFFCURVE",
"63 296 CURVE SMOOTH",
"63 240 OFFCURVE",
"77 189 OFFCURVE",
"77 130 CURVE SMOOTH",
"77 114 OFFCURVE",
"76 95 OFFCURVE",
"73 76 CURVE SMOOTH",
"61 0 LINE",
"67 -3 OFFCURVE",
"70 -4 OFFCURVE",
"75 -4 CURVE SMOOTH"
);
},
{
closed = 1;
nodes = (
"248 301 OFFCURVE",
"231 317 OFFCURVE",
"231 344 CURVE SMOOTH",
"231 377 OFFCURVE",
"255 401 OFFCURVE",
"289 401 CURVE SMOOTH",
"316 401 OFFCURVE",
"333 385 OFFCURVE",
"333 358 CURVE SMOOTH",
"333 325 OFFCURVE",
"309 301 OFFCURVE",
"275 301 CURVE SMOOTH"
);
}
);
width = 568;
}
);
leftMetricsKey = "khoKhwai-thai";
note = uni0E05;
rightMetricsKey = "koKai-thai";
unicode = 0E05;
},
{
glyphname = "soSala-thai";
layers = (
{
anchors = (
{
name = bottom;
position = "{424, 0}";
},
{
name = top;
position = "{505, 510}";
}
);
layerId = "5FF70513-4D67-4EEC-9617-036848F9F755";
paths = (
{
closed = 1;
nodes = (
"94 -4 OFFCURVE",
"104 9 OFFCURVE",
"108 31 CURVE SMOOTH",
"117 87 LINE SMOOTH",
"135 200 OFFCURVE",
"169 366 OFFCURVE",
"207 390 CURVE",
"196 401 LINE",
"195 395 OFFCURVE",
"195 390 OFFCURVE",
"195 385 CURVE SMOOTH",
"195 342 OFFCURVE",
"228 313 OFFCURVE",
"273 313 CURVE SMOOTH",
"328 313 OFFCURVE",
"367 354 OFFCURVE",
"367 401 CURVE SMOOTH",
"367 446 OFFCURVE",
"328 473 OFFCURVE",
"282 473 CURVE SMOOTH",
"162 473 OFFCURVE",
"115 262 OFFCURVE",
"94 127 CURVE",
"113 127 LINE",
"114 131 OFFCURVE",
"114 135 OFFCURVE",
"114 140 CURVE SMOOTH",
"114 172 OFFCURVE",
"101 236 OFFCURVE",
"101 295 CURVE SMOOTH",
"101 428 OFFCURVE",
"168 529 OFFCURVE",
"284 529 CURVE SMOOTH",
"312 529 OFFCURVE",
"334 523 OFFCURVE",
"373 501 CURVE SMOOTH",
"422 474 LINE SMOOTH",
"450 459 OFFCURVE",
"467 450 OFFCURVE",
"487 449 CURVE",
"484 465 LINE",
"461 446 OFFCURVE",
"454 425 OFFCURVE",
"449 393 CURVE SMOOTH",
"387 0 LINE",
"392 -3 OFFCURVE",
"395 -4 OFFCURVE",
"399 -4 CURVE SMOOTH",
"414 -4 OFFCURVE",
"425 7 OFFCURVE",
"429 31 CURVE SMOOTH",
"487 395 LINE SMOOTH",
"493 435 OFFCURVE",
"498 451 OFFCURVE",
"511 464 CURVE",
"507 476 LINE",
"490 478 OFFCURVE",
"483 482 OFFCURVE",
"448 502 CURVE SMOOTH",
"394 532 LINE SMOOTH",
"359 552 OFFCURVE",
"328 560 OFFCURVE",
"290 560 CURVE SMOOTH",
"147 560 OFFCURVE",
"63 444 OFFCURVE",
"63 298 CURVE SMOOTH",
"63 238 OFFCURVE",
"77 190 OFFCURVE",
"77 130 CURVE SMOOTH",
"77 114 OFFCURVE",
"76 95 OFFCURVE",
"73 76 CURVE SMOOTH",
"61 0 LINE",
"67 -3 OFFCURVE",
"70 -4 OFFCURVE",
"75 -4 CURVE SMOOTH"
);
},
{
closed = 1;
nodes = (
"246 343 OFFCURVE",
"229 359 OFFCURVE",
"229 386 CURVE SMOOTH",
"229 419 OFFCURVE",
"253 443 OFFCURVE",
"287 443 CURVE SMOOTH",
"314 443 OFFCURVE",
"331 428 OFFCURVE",
"331 401 CURVE SMOOTH",
"331 368 OFFCURVE",
"307 343 OFFCURVE",
"273 343 CURVE SMOOTH"
);
},
{
closed = 1;
nodes = (
"547 551 OFFCURVE",
"579 570 OFFCURVE",
"583 598 CURVE SMOOTH",
"585 611 OFFCURVE",
"580 620 OFFCURVE",
"566 620 CURVE",
"544 598 OFFCURVE",
"513 571 OFFCURVE",
"384 518 CURVE",
"408 498 LINE"
);
}
);
width = 552;
}
);
leftMetricsKey = "khoKhwai-thai";
note = uni0E28;
unicode = 0E28;
},
{
glyphname = "doDek-thai";
lastChange = "2018-03-12 19:43:50 +0000";
layers = (
{
anchors = (
{
name = bottom;
position = "{423, 0}";
},
{
name = top;
position = "{494, 510}";
}
);
layerId = "5FF70513-4D67-4EEC-9617-036848F9F755";
paths = (
{
closed = 1;
nodes = (
"215 -6 OFFCURVE",
"364 263 OFFCURVE",
"364 377 CURVE SMOOTH",
"364 428 OFFCURVE",
"337 462 OFFCURVE",
"286 462 CURVE SMOOTH",
"233 462 OFFCURVE",
"191 426 OFFCURVE",
"191 374 CURVE SMOOTH",
"191 330 OFFCURVE",
"222 302 OFFCURVE",
"267 302 CURVE SMOOTH",
"290 302 OFFCURVE",
"313 309 OFFCURVE",
"337 331 CURVE",
"319 331 LINE",
"307 251 OFFCURVE",
"195 22 OFFCURVE",
"72 22 CURVE",
"85 13 LINE",
"92 40 OFFCURVE",
"99 74 OFFCURVE",
"101 86 CURVE SMOOTH",
"104 107 OFFCURVE",
"105 126 OFFCURVE",
"105 144 CURVE SMOOTH",
"105 188 OFFCURVE",
"99 242 OFFCURVE",
"99 284 CURVE SMOOTH",
"99 423 OFFCURVE",
"162 529 OFFCURVE",
"283 529 CURVE SMOOTH",
"314 529 OFFCURVE",
"334 522 OFFCURVE",
"372 501 CURVE SMOOTH",
"421 474 LINE SMOOTH",
"445 461 OFFCURVE",
"466 450 OFFCURVE",
"486 449 CURVE",
"483 465 LINE",
"460 446 OFFCURVE",
"453 425 OFFCURVE",
"448 393 CURVE SMOOTH",
"386 0 LINE",
"391 -3 OFFCURVE",
"394 -4 OFFCURVE",
"398 -4 CURVE SMOOTH",
"413 -4 OFFCURVE",
"424 7 OFFCURVE",
"428 31 CURVE SMOOTH",
"486 395 LINE SMOOTH",
"492 435 OFFCURVE",
"497 451 OFFCURVE",
"510 464 CURVE",
"506 476 LINE",
"488 478 OFFCURVE",
"484 481 OFFCURVE",
"447 502 CURVE SMOOTH",
"393 532 LINE SMOOTH",
"359 551 OFFCURVE",
"330 560 OFFCURVE",
"289 560 CURVE SMOOTH",
"144 560 OFFCURVE",
"62 447 OFFCURVE",
"62 286 CURVE SMOOTH",
"62 239 OFFCURVE",
"69 202 OFFCURVE",
"69 151 CURVE SMOOTH",
"69 132 OFFCURVE",
"68 109 OFFCURVE",
"64 86 CURVE SMOOTH",
"50 -2 LINE",
"63 -2 OFFCURVE",
"73 -6 OFFCURVE",
"92 -6 CURVE SMOOTH"
);
},
{
closed = 1;
nodes = (
"244 332 OFFCURVE",
"227 350 OFFCURVE",
"227 377 CURVE SMOOTH",
"227 409 OFFCURVE",
"250 432 OFFCURVE",
"283 432 CURVE SMOOTH",
"310 432 OFFCURVE",
"327 416 OFFCURVE",
"327 388 CURVE SMOOTH",
"327 355 OFFCURVE",
"304 332 OFFCURVE",
"272 332 CURVE SMOOTH"
);
}
);
width = 551;
}
);
leftMetricsKey = "khoKhwai-thai";
note = uni0E14;
rightMetricsKey = "koKai-thai";
unicode = 0E14;
},
{
glyphname = "toTao-thai";
lastChange = "2018-03-12 19:43:50 +0000";
layers = (
{
anchors = (
{
name = bottom;
position = "{439, 0}";
},
{
name = top;
position = "{510, 510}";
}
);
layerId = "5FF70513-4D67-4EEC-9617-036848F9F755";
paths = (
{
closed = 1;
nodes = (
"211 -6 OFFCURVE",
"364 226 OFFCURVE",
"364 345 CURVE SMOOTH",
"364 401 OFFCURVE",
"330 428 OFFCURVE",
"284 428 CURVE SMOOTH",
"230 428 OFFCURVE",
"191 391 OFFCURVE",
"191 341 CURVE SMOOTH",
"191 299 OFFCURVE",
"220 268 OFFCURVE",
"266 268 CURVE SMOOTH",
"288 268 OFFCURVE",
"313 275 OFFCURVE",
"337 297 CURVE",
"319 297 LINE",
"307 217 OFFCURVE",
"195 22 OFFCURVE",
"72 22 CURVE",
"85 13 LINE",
"92 41 OFFCURVE",
"99 72 OFFCURVE",
"101 86 CURVE SMOOTH",
"104 107 OFFCURVE",
"105 127 OFFCURVE",
"105 146 CURVE SMOOTH",
"105 191 OFFCURVE",
"99 243 OFFCURVE",
"99 283 CURVE SMOOTH",
"99 388 OFFCURVE",
"140 525 OFFCURVE",
"218 525 CURVE SMOOTH",
"258 525 OFFCURVE",
"277 490 OFFCURVE",
"278 446 CURVE",
"300 446 LINE",
"314 491 OFFCURVE",
"340 525 OFFCURVE",
"372 525 CURVE SMOOTH",
"388 525 OFFCURVE",
"402 516 OFFCURVE",
"425 497 CURVE SMOOTH",
"459 469 OFFCURVE",
"470 458 OFFCURVE",
"502 455 CURVE",
"499 465 LINE",
"476 446 OFFCURVE",
"469 425 OFFCURVE",
"464 393 CURVE SMOOTH",
"402 0 LINE",
"407 -3 OFFCURVE",
"410 -4 OFFCURVE",
"414 -4 CURVE SMOOTH",
"429 -4 OFFCURVE",
"440 7 OFFCURVE",
"444 31 CURVE SMOOTH",
"502 395 LINE SMOOTH",
"508 435 OFFCURVE",
"513 451 OFFCURVE",
"526 464 CURVE",
"522 476 LINE",
"498 480 OFFCURVE",
"492 486 OFFCURVE",
"450 519 CURVE SMOOTH",
"407 553 OFFCURVE",
"393 556 OFFCURVE",
"379 556 CURVE SMOOTH",
"341 556 OFFCURVE",
"309 532 OFFCURVE",
"294 493 CURVE",
"293 532 OFFCURVE",
"267 556 OFFCURVE",
"225 556 CURVE SMOOTH",
"122 556 OFFCURVE",
"62 415 OFFCURVE",
"62 285 CURVE SMOOTH",
"62 241 OFFCURVE",
"69 200 OFFCURVE",
"69 151 CURVE SMOOTH",
"69 132 OFFCURVE",
"68 109 OFFCURVE",
"64 86 CURVE SMOOTH",
"50 -2 LINE",
"63 -2 OFFCURVE",
"73 -6 OFFCURVE",
"91 -6 CURVE SMOOTH"
);
},
{
closed = 1;
nodes = (
"243 298 OFFCURVE",
"227 315 OFFCURVE",
"227 342 CURVE SMOOTH",
"227 374 OFFCURVE",
"250 398 OFFCURVE",
"283 398 CURVE SMOOTH",
"310 398 OFFCURVE",
"327 382 OFFCURVE",
"327 354 CURVE SMOOTH",
"327 322 OFFCURVE",
"304 298 OFFCURVE",
"271 298 CURVE SMOOTH"
);
}
);
width = 567;
}
);
leftMetricsKey = "khoKhwai-thai";
note = uni0E15;
rightMetricsKey = "koKai-thai";
unicode = 0E15;
},
{
glyphname = "thoThahan-thai";
layers = (
{
anchors = (
{
name = bottom;
position = "{439, 0}";
},
{
name = top;
position = "{510, 510}";
}
);
layerId = "5FF70513-4D67-4EEC-9617-036848F9F755";
paths = (
{
closed = 1;
nodes = (
"132 -6 OFFCURVE",
"159 29 OFFCURVE",
"215 162 CURVE SMOOTH",
"317 405 LINE SMOOTH",
"354 493 OFFCURVE",
"382 525 OFFCURVE",
"424 525 CURVE SMOOTH",
"460 525 OFFCURVE",
"481 500 OFFCURVE",
"473 450 CURVE SMOOTH",
"402 0 LINE",
"407 -3 OFFCURVE",
"410 -4 OFFCURVE",
"414 -4 CURVE SMOOTH",
"429 -4 OFFCURVE",
"440 7 OFFCURVE",
"444 31 CURVE SMOOTH",
"510 450 LINE SMOOTH",
"511 457 OFFCURVE",
"512 466 OFFCURVE",
"512 475 CURVE SMOOTH",
"512 525 OFFCURVE",
"480 556 OFFCURVE",
"426 556 CURVE SMOOTH",
"366 556 OFFCURVE",
"328 519 OFFCURVE",
"284 414 CURVE SMOOTH",
"184 177 LINE SMOOTH",
"145 85 OFFCURVE",
"121 46 OFFCURVE",
"99 31 CURVE",
"96 11 LINE",
"118 41 OFFCURVE",
"126 66 OFFCURVE",
"134 116 CURVE SMOOTH",
"169 335 LINE SMOOTH",
"176 382 OFFCURVE",
"187 402 OFFCURVE",
"199 422 CURVE SMOOTH",
"216 450 OFFCURVE",
"225 465 OFFCURVE",
"225 487 CURVE SMOOTH",
"225 527 OFFCURVE",
"197 556 OFFCURVE",
"150 556 CURVE SMOOTH",
"95 556 OFFCURVE",
"53 516 OFFCURVE",
"53 465 CURVE SMOOTH",
"53 424 OFFCURVE",
"81 400 OFFCURVE",
"126 400 CURVE SMOOTH",
"153 400 OFFCURVE",
"168 408 OFFCURVE",
"180 421 CURVE",
"163 420 LINE",
"142 394 OFFCURVE",
"134 348 OFFCURVE",
"132 335 CURVE SMOOTH",
"97 116 LINE SMOOTH",
"88 57 OFFCURVE",
"75 29 OFFCURVE",
"57 14 CURVE",
"61 -2 LINE",
"72 -2 OFFCURVE",
"83 -6 OFFCURVE",
"95 -6 CURVE SMOOTH"
);
},
{
closed = 1;
nodes = (
"105 429 OFFCURVE",
"89 443 OFFCURVE",
"89 470 CURVE SMOOTH",
"89 502 OFFCURVE",
"113 526 OFFCURVE",
"147 526 CURVE SMOOTH",
"173 526 OFFCURVE",
"188 511 OFFCURVE",
"188 485 CURVE SMOOTH",
"188 453 OFFCURVE",
"164 429 OFFCURVE",
"131 429 CURVE SMOOTH"
);
}
);
width = 563;
}
);
note = uni0E17;
unicode = 0E17;
},
{
glyphname = "thoNangmontho-thai";
layers = (
{
anchors = (
{
name = bottom;
position = "{466, 0}";
},
{
name = top;
position = "{537, 510}";
}
);
layerId = "5FF70513-4D67-4EEC-9617-036848F9F755";
paths = (
{
closed = 1;
nodes = (
"160 -6 OFFCURVE",
"178 30 OFFCURVE",
"242 162 CURVE SMOOTH",
"360 405 LINE SMOOTH",
"399 485 OFFCURVE",
"422 525 OFFCURVE",
"460 525 CURVE SMOOTH",
"489 525 OFFCURVE",
"508 501 OFFCURVE",
"500 450 CURVE SMOOTH",
"429 0 LINE",
"434 -3 OFFCURVE",
"437 -4 OFFCURVE",
"441 -4 CURVE SMOOTH",
"456 -4 OFFCURVE",
"467 7 OFFCURVE",
"471 31 CURVE SMOOTH",
"537 450 LINE SMOOTH",
"538 457 OFFCURVE",
"539 466 OFFCURVE",
"539 475 CURVE SMOOTH",
"539 522 OFFCURVE",
"512 556 OFFCURVE",
"461 556 CURVE SMOOTH",
"411 556 OFFCURVE",
"380 523 OFFCURVE",
"327 414 CURVE SMOOTH",
"211 177 LINE SMOOTH",
"166 85 OFFCURVE",
"148 46 OFFCURVE",
"126 31 CURVE",
"123 11 LINE",
"146 42 OFFCURVE",
"153 68 OFFCURVE",
"161 116 CURVE SMOOTH",
"165 140 LINE SMOOTH",
"177 211 OFFCURVE",
"183 234 OFFCURVE",
"229 318 CURVE SMOOTH",
"280 411 OFFCURVE",
"298 444 OFFCURVE",
"298 483 CURVE SMOOTH",
"298 526 OFFCURVE",
"277 556 OFFCURVE",
"238 556 CURVE SMOOTH",
"215 556 OFFCURVE",
"197 545 OFFCURVE",
"181 522 CURVE",
"172 544 OFFCURVE",
"156 556 OFFCURVE",
"133 556 CURVE SMOOTH",
"77 556 OFFCURVE",
"47 486 OFFCURVE",
"47 430 CURVE SMOOTH",
"47 379 OFFCURVE",
"71 351 OFFCURVE",
"120 351 CURVE SMOOTH",
"169 351 OFFCURVE",
"204 380 OFFCURVE",
"204 423 CURVE SMOOTH",
"204 454 OFFCURVE",
"186 470 OFFCURVE",
"157 470 CURVE SMOOTH",
"139 470 OFFCURVE",
"115 464 OFFCURVE",
"123 441 CURVE",
"140 444 OFFCURVE",
"167 443 OFFCURVE",
"167 418 CURVE SMOOTH",
"167 396 OFFCURVE",
"147 380 OFFCURVE",
"122 380 CURVE SMOOTH",
"97 380 OFFCURVE",
"84 395 OFFCURVE",
"84 428 CURVE SMOOTH",
"84 465 OFFCURVE",
"100 525 OFFCURVE",
"137 525 CURVE SMOOTH",
"154 525 OFFCURVE",
"169 513 OFFCURVE",
"171 489 CURVE",
"183 489 LINE",
"193 513 OFFCURVE",
"208 525 OFFCURVE",
"226 525 CURVE SMOOTH",
"247 525 OFFCURVE",
"259 511 OFFCURVE",
"259 482 CURVE SMOOTH",
"259 436 OFFCURVE",
"230 389 OFFCURVE",
"196 328 CURVE SMOOTH",
"151 248 OFFCURVE",
"141 218 OFFCURVE",
"128 140 CURVE SMOOTH",
"124 116 LINE SMOOTH",
"114 56 OFFCURVE",
"104 31 OFFCURVE",
"84 14 CURVE",
"88 -2 LINE",
"99 -2 OFFCURVE",
"110 -6 OFFCURVE",
"122 -6 CURVE SMOOTH"
);
}
);
width = 590;
}
);
note = uni0E11;
rightMetricsKey = "thoThahan-thai";
unicode = 0E11;
},
{
glyphname = "noNu-thai";
layers = (
{
anchors = (
{
name = bottom;
position = "{403, 0}";
},
{
name = top;
position = "{484, 510}";
}
);
layerId = "5FF70513-4D67-4EEC-9617-036848F9F755";
paths = (
{
closed = 1;
nodes = (
"109 -6 OFFCURVE",
"109 7 OFFCURVE",
"241 81 CURVE SMOOTH",
"342 138 OFFCURVE",
"387 156 OFFCURVE",
"418 156 CURVE",
"428 170 OFFCURVE",
"432 186 OFFCURVE",
"436 210 CURVE SMOOTH",
"490 550 LINE",
"486 553 OFFCURVE",
"482 554 OFFCURVE",
"478 554 CURVE SMOOTH",
"461 554 OFFCURVE",
"452 541 OFFCURVE",
"448 519 CURVE SMOOTH",
"392 167 LINE",
"407 178 LINE",
"366 178 OFFCURVE",
"324 163 OFFCURVE",
"230 111 CURVE SMOOTH",
"149 67 OFFCURVE",
"122 51 OFFCURVE",
"99 32 CURVE",
"103 14 LINE",
"125 44 OFFCURVE",
"126 66 OFFCURVE",
"134 116 CURVE SMOOTH",
"169 335 LINE SMOOTH",
"175 374 OFFCURVE",
"183 396 OFFCURVE",
"199 422 CURVE SMOOTH",
"219 454 OFFCURVE",
"225 468 OFFCURVE",
"225 489 CURVE SMOOTH",
"225 526 OFFCURVE",
"197 556 OFFCURVE",
"151 556 CURVE SMOOTH",
"95 556 OFFCURVE",
"53 517 OFFCURVE",
"53 463 CURVE SMOOTH",
"53 425 OFFCURVE",
"81 400 OFFCURVE",
"126 400 CURVE SMOOTH",
"153 400 OFFCURVE",
"168 408 OFFCURVE",
"180 421 CURVE",
"163 421 LINE",
"144 397 OFFCURVE",
"135 356 OFFCURVE",
"132 335 CURVE SMOOTH",
"97 116 LINE SMOOTH",
"88 56 OFFCURVE",
"74 28 OFFCURVE",
"57 14 CURVE",
"61 -2 LINE",
"70 -2 OFFCURVE",
"77 -6 OFFCURVE",
"87 -6 CURVE SMOOTH"
);
},
{
closed = 1;
nodes = (
"442 -6 OFFCURVE",
"487 36 OFFCURVE",
"487 100 CURVE SMOOTH",
"487 144 OFFCURVE",
"454 174 OFFCURVE",
"404 174 CURVE SMOOTH",
"336 174 OFFCURVE",
"291 132 OFFCURVE",
"291 70 CURVE SMOOTH",
"291 24 OFFCURVE",
"325 -6 OFFCURVE",
"375 -6 CURVE SMOOTH"
);
},
{
closed = 1;
nodes = (
"348 24 OFFCURVE",
"327 44 OFFCURVE",
"327 74 CURVE SMOOTH",
"327 116 OFFCURVE",
"356 144 OFFCURVE",
"399 144 CURVE SMOOTH",
"430 144 OFFCURVE",
"451 124 OFFCURVE",
"451 95 CURVE SMOOTH",
"451 52 OFFCURVE",
"423 24 OFFCURVE",
"380 24 CURVE SMOOTH"
);
},
{
closed = 1;
nodes = (
"106 429 OFFCURVE",
"89 445 OFFCURVE",
"89 468 CURVE SMOOTH",
"89 503 OFFCURVE",
"112 526 OFFCURVE",
"146 526 CURVE SMOOTH",
"171 526 OFFCURVE",
"188 510 OFFCURVE",
"188 487 CURVE SMOOTH",
"188 452 OFFCURVE",
"165 429 OFFCURVE",
"131 429 CURVE SMOOTH"
);
}
);
width = 543;
}
);
note = uni0E19;
unicode = 0E19;
},
{
glyphname = "moMa-thai";
layers = (
{
anchors = (
{
name = bottom;
position = "{407, 0}";
},
{
name = top;
position = "{488, 510}";
}
);
layerId = "5FF70513-4D67-4EEC-9617-036848F9F755";
paths = (
{
closed = 1;
nodes = (
"396 0 OFFCURVE",
"410 16 OFFCURVE",
"414 44 CURVE SMOOTH",
"494 550 LINE",
"490 553 OFFCURVE",
"486 554 OFFCURVE",
"482 554 CURVE SMOOTH",
"467 554 OFFCURVE",
"456 543 OFFCURVE",
"452 519 CURVE SMOOTH",
"385 96 LINE SMOOTH",
"383 81 OFFCURVE",
"381 69 OFFCURVE",
"381 58 CURVE SMOOTH",
"381 47 OFFCURVE",
"383 38 OFFCURVE",
"386 30 CURVE",
"399 30 LINE",
"384 49 OFFCURVE",
"367 64 OFFCURVE",
"295 111 CURVE SMOOTH",
"225 157 OFFCURVE",
"189 176 OFFCURVE",
"155 176 CURVE",
"166 167 LINE",
"193 335 LINE SMOOTH",
"200 379 OFFCURVE",
"207 395 OFFCURVE",
"223 422 CURVE SMOOTH",
"240 450 OFFCURVE",
"249 465 OFFCURVE",
"249 487 CURVE SMOOTH",
"249 527 OFFCURVE",
"221 556 OFFCURVE",
"174 556 CURVE SMOOTH",
"119 556 OFFCURVE",
"77 516 OFFCURVE",
"77 465 CURVE SMOOTH",
"77 424 OFFCURVE",
"105 400 OFFCURVE",
"150 400 CURVE SMOOTH",
"177 400 OFFCURVE",
"192 408 OFFCURVE",
"204 421 CURVE",
"187 421 LINE",
"166 393 OFFCURVE",
"159 355 OFFCURVE",
"156 335 CURVE SMOOTH",
"136 210 LINE SMOOTH",
"134 199 OFFCURVE",
"133 190 OFFCURVE",
"133 183 CURVE SMOOTH",
"133 172 OFFCURVE",
"135 164 OFFCURVE",
"138 156 CURVE",
"163 156 OFFCURVE",
"200 134 OFFCURVE",
"274 83 CURVE SMOOTH",
"323 49 OFFCURVE",
"345 32 OFFCURVE",
"375 0 CURVE"
);
},
{
closed = 1;
nodes = (
"156 -6 OFFCURVE",
"202 38 OFFCURVE",
"202 96 CURVE SMOOTH",
"202 146 OFFCURVE",
"169 174 OFFCURVE",
"116 174 CURVE SMOOTH",
"52 174 OFFCURVE",
"6 132 OFFCURVE",
"6 73 CURVE SMOOTH",
"6 25 OFFCURVE",
"37 -6 OFFCURVE",
"91 -6 CURVE SMOOTH"
);
},
{
closed = 1;
nodes = (
"62 24 OFFCURVE",
"42 44 OFFCURVE",
"42 76 CURVE SMOOTH",
"42 116 OFFCURVE",
"72 144 OFFCURVE",
"113 144 CURVE SMOOTH",
"145 144 OFFCURVE",
"166 126 OFFCURVE",
"166 93 CURVE SMOOTH",
"166 54 OFFCURVE",
"138 24 OFFCURVE",
"96 24 CURVE SMOOTH"
);
},
{
closed = 1;
nodes = (
"129 429 OFFCURVE",
"113 443 OFFCURVE",
"113 470 CURVE SMOOTH",
"113 502 OFFCURVE",
"137 526 OFFCURVE",
"171 526 CURVE SMOOTH",
"197 526 OFFCURVE",
"212 511 OFFCURVE",
"212 485 CURVE SMOOTH",
"212 453 OFFCURVE",
"188 429 OFFCURVE",
"155 429 CURVE SMOOTH"
);
}
);
width = 535;
}
);
note = uni0E21;
unicode = 0E21;
},
{
glyphname = "choChoe-thai";
layers = (
{
anchors = (
{
name = bottom;
position = "{657, 0}";
},
{
name = top;
position = "{738, 510}";
}
);
layerId = "5FF70513-4D67-4EEC-9617-036848F9F755";
paths = (
{
closed = 1;
nodes = (
"646 0 OFFCURVE",
"660 16 OFFCURVE",
"664 44 CURVE SMOOTH",
"744 550 LINE",
"740 553 OFFCURVE",
"736 554 OFFCURVE",
"732 554 CURVE SMOOTH",
"717 554 OFFCURVE",
"706 543 OFFCURVE",
"702 519 CURVE SMOOTH",
"635 92 LINE SMOOTH",
"632 71 OFFCURVE",
"631 59 OFFCURVE",
"631 52 CURVE SMOOTH",
"631 43 OFFCURVE",
"633 34 OFFCURVE",
"635 26 CURVE",
"648 26 LINE",
"641 36 OFFCURVE",
"608 66 OFFCURVE",
"546 109 CURVE SMOOTH",
"486 151 OFFCURVE",
"456 164 OFFCURVE",
"419 164 CURVE",
"431 155 LINE",
"468 391 LINE SMOOTH",
"474 431 OFFCURVE",
"480 447 OFFCURVE",
"493 460 CURVE",
"489 472 LINE",
"471 474 OFFCURVE",
"451 481 OFFCURVE",
"428 495 CURVE SMOOTH",
"358 538 LINE SMOOTH",
"338 550 OFFCURVE",
"309 560 OFFCURVE",
"273 560 CURVE SMOOTH",
"182 560 OFFCURVE",
"102 497 OFFCURVE",
"51 413 CURVE",
"51 409 LINE",
"98 393 OFFCURVE",
"126 377 OFFCURVE",
"146 337 CURVE",
"177 355 LINE",
"160 397 OFFCURVE",
"125 422 OFFCURVE",
"83 431 CURVE",
"87 413 LINE",
"128 478 OFFCURVE",
"193 529 OFFCURVE",
"268 529 CURVE SMOOTH",
"296 529 OFFCURVE",
"322 522 OFFCURVE",
"343 509 CURVE SMOOTH",
"404 471 LINE SMOOTH",
"431 454 OFFCURVE",
"449 448 OFFCURVE",
"469 447 CURVE",
"466 467 LINE",
"444 448 OFFCURVE",
"438 432 OFFCURVE",
"432 395 CURVE SMOOTH",
"400 198 LINE SMOOTH",
"399 187 OFFCURVE",
"398 178 OFFCURVE",
"398 169 CURVE SMOOTH",
"398 160 OFFCURVE",
"399 151 OFFCURVE",
"402 144 CURVE",
"430 144 OFFCURVE",
"463 127 OFFCURVE",
"527 81 CURVE SMOOTH",
"588 37 OFFCURVE",
"618 8 OFFCURVE",
"625 0 CURVE"
);
},
{
closed = 1;
nodes = (
"124 24 OFFCURVE",
"109 39 OFFCURVE",
"109 63 CURVE SMOOTH",
"109 93 OFFCURVE",
"133 117 OFFCURVE",
"162 117 CURVE SMOOTH",
"185 117 OFFCURVE",
"200 101 OFFCURVE",
"200 77 CURVE SMOOTH",
"200 47 OFFCURVE",
"176 24 OFFCURVE",
"147 24 CURVE SMOOTH"
);
},
{
closed = 1;
nodes = (
"193 -6 OFFCURVE",
"236 33 OFFCURVE",
"236 82 CURVE SMOOTH",
"236 121 OFFCURVE",
"208 146 OFFCURVE",
"166 146 CURVE SMOOTH",
"134 146 OFFCURVE",
"106 131 OFFCURVE",
"94 111 CURVE",
"110 111 LINE",
"121 140 OFFCURVE",
"123 152 OFFCURVE",
"126 171 CURVE SMOOTH",
"138 245 LINE SMOOTH",
"150 321 OFFCURVE",
"174 376 OFFCURVE",
"278 376 CURVE",
"279 382 LINE",
"264 391 OFFCURVE",
"245 396 OFFCURVE",
"226 396 CURVE SMOOTH",
"161 396 OFFCURVE",
"115 337 OFFCURVE",
"101 245 CURVE SMOOTH",
"75 80 LINE SMOOTH",
"74 74 OFFCURVE",
"74 69 OFFCURVE",
"74 67 CURVE SMOOTH",
"74 20 OFFCURVE",
"100 -6 OFFCURVE",
"142 -6 CURVE SMOOTH"
);
},
{
closed = 1;
nodes = (
"444 -6 OFFCURVE",
"485 33 OFFCURVE",
"485 87 CURVE SMOOTH",
"485 130 OFFCURVE",
"458 158 OFFCURVE",
"410 158 CURVE SMOOTH",
"354 158 OFFCURVE",
"313 119 OFFCURVE",
"313 65 CURVE SMOOTH",
"313 22 OFFCURVE",
"340 -6 OFFCURVE",
"388 -6 CURVE SMOOTH"
);
},
{
closed = 1;
nodes = (
"365 24 OFFCURVE",
"349 42 OFFCURVE",
"349 69 CURVE SMOOTH",
"349 103 OFFCURVE",
"373 128 OFFCURVE",
"405 128 CURVE SMOOTH",
"433 128 OFFCURVE",
"449 110 OFFCURVE",
"449 83 CURVE SMOOTH",
"449 49 OFFCURVE",
"425 24 OFFCURVE",
"393 24 CURVE SMOOTH"
);
}
);
width = 785;
}
);
leftMetricsKey = "thoThung-thai";
note = uni0E0C;
unicode = 0E0C;
},
{
glyphname = "noNen-thai";
layers = (
{
anchors = (
{
name = bottom;
position = "{677, 0}";
},
{
name = top;
position = "{758, 510}";
}
);
layerId = "5FF70513-4D67-4EEC-9617-036848F9F755";
paths = (
{
closed = 1;
nodes = (
"399 -6 OFFCURVE",
"413 18 OFFCURVE",
"522 79 CURVE SMOOTH",
"620 133 OFFCURVE",
"658 142 OFFCURVE",
"689 142 CURVE",
"700 156 OFFCURVE",
"704 172 OFFCURVE",
"708 196 CURVE SMOOTH",
"764 550 LINE",
"760 553 OFFCURVE",
"756 554 OFFCURVE",
"752 554 CURVE SMOOTH",
"737 554 OFFCURVE",
"726 543 OFFCURVE",
"722 519 CURVE SMOOTH",
"664 153 LINE",
"679 164 LINE",
"636 164 OFFCURVE",
"603 158 OFFCURVE",
"510 107 CURVE SMOOTH",
"446 72 OFFCURVE",
"412 48 OFFCURVE",
"389 29 CURVE",
"386 11 LINE",
"408 41 OFFCURVE",
"416 66 OFFCURVE",
"424 116 CURVE SMOOTH",
"468 391 LINE SMOOTH",
"474 431 OFFCURVE",
"480 447 OFFCURVE",
"493 460 CURVE",
"489 472 LINE",
"471 474 OFFCURVE",
"451 481 OFFCURVE",
"428 495 CURVE SMOOTH",
"358 538 LINE SMOOTH",
"338 550 OFFCURVE",
"309 560 OFFCURVE",
"273 560 CURVE SMOOTH",
"182 560 OFFCURVE",
"102 497 OFFCURVE",
"51 413 CURVE",
"51 409 LINE",
"98 393 OFFCURVE",
"126 377 OFFCURVE",
"146 337 CURVE",
"177 355 LINE",
"160 397 OFFCURVE",
"125 422 OFFCURVE",
"83 431 CURVE",
"87 413 LINE",
"128 478 OFFCURVE",
"193 529 OFFCURVE",
"268 529 CURVE SMOOTH",
"296 529 OFFCURVE",
"322 522 OFFCURVE",
"343 509 CURVE SMOOTH",
"404 471 LINE SMOOTH",
"431 454 OFFCURVE",
"449 448 OFFCURVE",
"469 447 CURVE",
"466 467 LINE",
"445 449 OFFCURVE",
"438 433 OFFCURVE",
"432 395 CURVE SMOOTH",
"387 116 LINE SMOOTH",
"378 60 OFFCURVE",
"367 31 OFFCURVE",
"347 14 CURVE",
"351 -2 LINE",
"360 -2 OFFCURVE",
"367 -6 OFFCURVE",
"377 -6 CURVE SMOOTH"
);
},
{
closed = 1;
nodes = (
"124 24 OFFCURVE",
"109 39 OFFCURVE",
"109 62 CURVE SMOOTH",
"109 95 OFFCURVE",
"130 117 OFFCURVE",
"162 117 CURVE SMOOTH",
"185 117 OFFCURVE",
"200 101 OFFCURVE",
"200 78 CURVE SMOOTH",
"200 46 OFFCURVE",
"179 24 OFFCURVE",
"147 24 CURVE SMOOTH"
);
},
{
closed = 1;
nodes = (
"190 -6 OFFCURVE",
"236 28 OFFCURVE",
"236 83 CURVE SMOOTH",
"236 120 OFFCURVE",
"208 146 OFFCURVE",
"166 146 CURVE SMOOTH",
"134 146 OFFCURVE",
"106 131 OFFCURVE",
"94 111 CURVE",
"110 111 LINE",
"121 139 OFFCURVE",
"124 158 OFFCURVE",
"126 171 CURVE SMOOTH",
"138 245 LINE SMOOTH",
"150 321 OFFCURVE",
"174 376 OFFCURVE",
"278 376 CURVE",
"279 382 LINE",
"264 391 OFFCURVE",
"245 396 OFFCURVE",
"226 396 CURVE SMOOTH",
"161 396 OFFCURVE",
"115 337 OFFCURVE",
"101 245 CURVE SMOOTH",
"75 80 LINE SMOOTH",
"74 74 OFFCURVE",
"74 69 OFFCURVE",
"74 63 CURVE SMOOTH",
"74 21 OFFCURVE",
"101 -6 OFFCURVE",
"143 -6 CURVE SMOOTH"
);
},
{
closed = 1;
nodes = (
"712 -6 OFFCURVE",
"752 33 OFFCURVE",
"752 91 CURVE SMOOTH",
"752 131 OFFCURVE",
"723 158 OFFCURVE",
"679 158 CURVE SMOOTH",
"620 158 OFFCURVE",
"580 119 OFFCURVE",
"580 61 CURVE SMOOTH",
"580 21 OFFCURVE",
"609 -6 OFFCURVE",
"653 -6 CURVE SMOOTH"
);
},
{
closed = 1;
nodes = (
"633 24 OFFCURVE",
"616 41 OFFCURVE",
"616 66 CURVE SMOOTH",
"616 103 OFFCURVE",
"639 128 OFFCURVE",
"674 128 CURVE SMOOTH",
"699 128 OFFCURVE",
"716 111 OFFCURVE",
"716 86 CURVE SMOOTH",
"716 49 OFFCURVE",
"693 24 OFFCURVE",
"658 24 CURVE SMOOTH"
);
}
);
width = 809;
}
);
leftMetricsKey = "thoThung-thai";
note = uni0E13;
rightMetricsKey = "noNu-thai";
unicode = 0E13;
},
{
glyphname = "thoPhuthao-thai";
lastChange = "2018-03-12 19:43:50 +0000";
layers = (
{
anchors = (
{
name = bottom;
position = "{674, 0}";
},
{
name = top;
position = "{755, 510}";
}
);
layerId = "5FF70513-4D67-4EEC-9617-036848F9F755";
paths = (
{
closed = 1;
nodes = (
"215 -6 OFFCURVE",
"363 229 OFFCURVE",
"363 345 CURVE SMOOTH",
"363 402 OFFCURVE",
"330 430 OFFCURVE",
"282 430 CURVE SMOOTH",
"227 430 OFFCURVE",
"190 394 OFFCURVE",
"190 343 CURVE SMOOTH",
"190 298 OFFCURVE",
"220 270 OFFCURVE",
"264 270 CURVE SMOOTH",
"287 270 OFFCURVE",
"312 277 OFFCURVE",
"336 299 CURVE",
"320 299 LINE",
"308 219 OFFCURVE",
"189 20 OFFCURVE",
"80 20 CURVE",
"85 11 LINE",
"97 59 OFFCURVE",
"105 97 OFFCURVE",
"105 146 CURVE SMOOTH",
"105 191 OFFCURVE",
"99 243 OFFCURVE",
"99 281 CURVE SMOOTH",
"99 384 OFFCURVE",
"142 525 OFFCURVE",
"219 525 CURVE SMOOTH",
"253 525 OFFCURVE",
"272 498 OFFCURVE",
"274 446 CURVE",
"296 446 LINE",
"310 490 OFFCURVE",
"333 525 OFFCURVE",
"362 525 CURVE SMOOTH",
"377 525 OFFCURVE",
"391 515 OFFCURVE",
"413 497 CURVE SMOOTH",
"448 469 OFFCURVE",
"467 456 OFFCURVE",
"486 455 CURVE",
"483 465 LINE",
"460 446 OFFCURVE",
"453 425 OFFCURVE",
"448 393 CURVE SMOOTH",
"417 198 LINE SMOOTH",
"416 187 OFFCURVE",
"415 178 OFFCURVE",
"415 169 CURVE SMOOTH",
"415 160 OFFCURVE",
"416 151 OFFCURVE",
"419 144 CURVE",
"446 144 OFFCURVE",
"498 113 OFFCURVE",
"546 79 CURVE SMOOTH",
"586 51 OFFCURVE",
"624 19 OFFCURVE",
"642 0 CURVE",
"663 0 OFFCURVE",
"677 16 OFFCURVE",
"681 44 CURVE SMOOTH",
"761 550 LINE",
"757 553 OFFCURVE",
"753 554 OFFCURVE",
"749 554 CURVE SMOOTH",
"734 554 OFFCURVE",
"723 543 OFFCURVE",
"719 519 CURVE SMOOTH",
"652 92 LINE SMOOTH",
"649 71 OFFCURVE",
"648 59 OFFCURVE",
"648 52 CURVE SMOOTH",
"648 43 OFFCURVE",
"650 34 OFFCURVE",
"652 26 CURVE",
"665 26 LINE",
"646 49 OFFCURVE",
"613 76 OFFCURVE",
"565 108 CURVE SMOOTH",
"526 134 OFFCURVE",
"485 159 OFFCURVE",
"449 164 CURVE",
"486 395 LINE SMOOTH",
"492 435 OFFCURVE",
"497 451 OFFCURVE",
"510 464 CURVE",
"506 476 LINE",
"488 480 OFFCURVE",
"470 494 OFFCURVE",
"438 519 CURVE SMOOTH",
"410 541 OFFCURVE",
"390 556 OFFCURVE",
"366 556 CURVE SMOOTH",
"335 556 OFFCURVE",
"305 532 OFFCURVE",
"290 493 CURVE",
"289 528 OFFCURVE",
"270 556 OFFCURVE",
"226 556 CURVE SMOOTH",
"125 556 OFFCURVE",
"62 411 OFFCURVE",
"62 284 CURVE SMOOTH",
"62 242 OFFCURVE",
"69 199 OFFCURVE",
"69 150 CURVE SMOOTH",
"69 117 OFFCURVE",
"65 91 OFFCURVE",
"50 -2 CURVE",
"63 -2 OFFCURVE",
"73 -6 OFFCURVE",
"92 -6 CURVE SMOOTH"
);
},
{
closed = 1;
nodes = (
"463 -6 OFFCURVE",
"502 33 OFFCURVE",
"502 87 CURVE SMOOTH",
"502 130 OFFCURVE",
"475 158 OFFCURVE",
"427 158 CURVE SMOOTH",
"371 158 OFFCURVE",
"330 121 OFFCURVE",
"330 67 CURVE SMOOTH",
"330 24 OFFCURVE",
"359 -6 OFFCURVE",
"407 -6 CURVE SMOOTH"
);
},
{
closed = 1;
nodes = (
"382 24 OFFCURVE",
"366 42 OFFCURVE",
"366 69 CURVE SMOOTH",
"366 103 OFFCURVE",
"390 128 OFFCURVE",
"422 128 CURVE SMOOTH",
"450 128 OFFCURVE",
"466 110 OFFCURVE",
"466 83 CURVE SMOOTH",
"466 49 OFFCURVE",
"442 24 OFFCURVE",
"410 24 CURVE SMOOTH"
);
},
{
closed = 1;
nodes = (
"243 300 OFFCURVE",
"226 316 OFFCURVE",
"226 344 CURVE SMOOTH",
"226 376 OFFCURVE",
"249 400 OFFCURVE",
"283 400 CURVE SMOOTH",
"309 400 OFFCURVE",
"326 385 OFFCURVE",
"326 357 CURVE SMOOTH",
"326 325 OFFCURVE",
"303 300 OFFCURVE",
"270 300 CURVE SMOOTH"
);
}
);
width = 802;
}
);
leftMetricsKey = "khoKhwai-thai";
note = uni0E12;
rightMetricsKey = "moMa-thai";
unicode = 0E12;
},
{
glyphname = "khoRakhang-thai";
layers = (
{
anchors = (
{
name = bottom;
position = "{415, 0}";
},
{
name = top;
position = "{496, 510}";
}
);
layerId = "5FF70513-4D67-4EEC-9617-036848F9F755";
paths = (
{
closed = 1;
nodes = (
"404 0 OFFCURVE",
"418 16 OFFCURVE",
"422 44 CURVE SMOOTH",
"502 550 LINE",
"498 553 OFFCURVE",
"494 554 OFFCURVE",
"490 554 CURVE SMOOTH",
"475 554 OFFCURVE",
"464 543 OFFCURVE",
"460 519 CURVE SMOOTH",
"393 96 LINE SMOOTH",
"391 81 OFFCURVE",
"389 69 OFFCURVE",
"389 58 CURVE SMOOTH",
"389 41 OFFCURVE",
"395 26 OFFCURVE",
"401 18 CURVE",
"401 31 LINE",
"383 54 OFFCURVE",
"370 67 OFFCURVE",
"303 111 CURVE SMOOTH",
"233 157 OFFCURVE",
"201 173 OFFCURVE",
"167 176 CURVE",
"174 167 LINE",
"186 228 OFFCURVE",
"187 227 OFFCURVE",
"251 309 CURVE SMOOTH",
"297 368 OFFCURVE",
"328 409 OFFCURVE",
"328 480 CURVE SMOOTH",
"328 532 OFFCURVE",
"311 556 OFFCURVE",
"269 556 CURVE SMOOTH",
"242 556 OFFCURVE",
"222 546 OFFCURVE",
"205 522 CURVE",
"196 544 OFFCURVE",
"178 556 OFFCURVE",
"154 556 CURVE SMOOTH",
"95 556 OFFCURVE",
"63 487 OFFCURVE",
"63 431 CURVE SMOOTH",
"63 372 OFFCURVE",
"98 343 OFFCURVE",
"144 343 CURVE SMOOTH",
"190 343 OFFCURVE",
"231 372 OFFCURVE",
"231 416 CURVE SMOOTH",
"231 446 OFFCURVE",
"212 466 OFFCURVE",
"182 466 CURVE SMOOTH",
"160 466 OFFCURVE",
"146 456 OFFCURVE",
"146 437 CURVE",
"165 437 OFFCURVE",
"194 435 OFFCURVE",
"194 411 CURVE SMOOTH",
"194 392 OFFCURVE",
"176 372 OFFCURVE",
"146 372 CURVE SMOOTH",
"115 372 OFFCURVE",
"101 392 OFFCURVE",
"101 431 CURVE SMOOTH",
"101 478 OFFCURVE",
"121 525 OFFCURVE",
"158 525 CURVE SMOOTH",
"177 525 OFFCURVE",
"192 513 OFFCURVE",
"194 489 CURVE",
"206 489 LINE",
"216 513 OFFCURVE",
"232 525 OFFCURVE",
"255 525 CURVE SMOOTH",
"283 525 OFFCURVE",
"290 506 OFFCURVE",
"290 475 CURVE SMOOTH",
"290 417 OFFCURVE",
"265 379 OFFCURVE",
"218 320 CURVE SMOOTH",
"164 252 OFFCURVE",
"148 231 OFFCURVE",
"136 156 CURVE",
"171 156 OFFCURVE",
"208 134 OFFCURVE",
"282 83 CURVE SMOOTH",
"331 49 OFFCURVE",
"353 32 OFFCURVE",
"383 0 CURVE"
);
},
{
closed = 1;
nodes = (
"166 -6 OFFCURVE",
"210 36 OFFCURVE",
"210 94 CURVE SMOOTH",
"210 145 OFFCURVE",
"176 174 OFFCURVE",
"123 174 CURVE SMOOTH",
"62 174 OFFCURVE",
"14 135 OFFCURVE",
"14 76 CURVE SMOOTH",
"14 26 OFFCURVE",
"48 -6 OFFCURVE",
"103 -6 CURVE SMOOTH"
);
},
{
closed = 1;
nodes = (
"70 24 OFFCURVE",
"50 44 OFFCURVE",
"50 76 CURVE SMOOTH",
"50 116 OFFCURVE",
"81 144 OFFCURVE",
"122 144 CURVE SMOOTH",
"156 144 OFFCURVE",
"174 124 OFFCURVE",
"174 92 CURVE SMOOTH",
"174 53 OFFCURVE",
"146 24 OFFCURVE",
"104 24 CURVE SMOOTH"
);
}
);
width = 543;
}
);
note = uni0E06;
rightMetricsKey = "moMa-thai";
unicode = 0E06;
},
{
glyphname = "thoThong-thai";
lastChange = "2018-03-12 19:43:50 +0000";
layers = (
{
anchors = (
{
name = bottom;
position = "{328, 0}";
},
{
name = top;
position = "{441, 510}";
}
);
layerId = "5FF70513-4D67-4EEC-9617-036848F9F755";
paths = (
{
closed = 1;
nodes = (
"275 -10 OFFCURVE",
"336 44 OFFCURVE",
"350 136 CURVE SMOOTH",
"379 323 LINE SMOOTH",
"385 363 OFFCURVE",
"391 379 OFFCURVE",
"404 392 CURVE",
"400 404 LINE",
"307 432 OFFCURVE",
"240 448 OFFCURVE",
"109 448 CURVE",
"116 438 LINE",
"136 505 OFFCURVE",
"174 529 OFFCURVE",
"234 529 CURVE SMOOTH",
"287 529 OFFCURVE",
"325 501 OFFCURVE",
"384 501 CURVE SMOOTH",
"432 501 OFFCURVE",
"442 520 OFFCURVE",
"444 531 CURVE SMOOTH",
"445 535 OFFCURVE",
"444 538 OFFCURVE",
"442 542 CURVE",
"425 535 OFFCURVE",
"406 532 OFFCURVE",
"388 532 CURVE SMOOTH",
"330 532 OFFCURVE",
"304 560 OFFCURVE",
"240 560 CURVE SMOOTH",
"158 560 OFFCURVE",
"102 526 OFFCURVE",
"78 433 CURVE",
"82 417 LINE",
"216 417 OFFCURVE",
"280 406 OFFCURVE",
"379 377 CURVE",
"376 396 LINE",
"353 377 OFFCURVE",
"346 353 OFFCURVE",
"341 321 CURVE SMOOTH",
"313 136 LINE SMOOTH",
"303 71 OFFCURVE",
"264 21 OFFCURVE",
"185 21 CURVE SMOOTH",
"146 21 OFFCURVE",
"107 33 OFFCURVE",
"62 33 CURVE",
"71 15 LINE",
"96 47 OFFCURVE",
"103 77 OFFCURVE",
"113 140 CURVE SMOOTH",
"159 429 LINE",
"122 429 LINE",
"76 140 LINE SMOOTH",
"64 64 OFFCURVE",
"53 37 OFFCURVE",
"33 20 CURVE",
"37 4 LINE",
"103 4 OFFCURVE",
"129 -10 OFFCURVE",
"179 -10 CURVE SMOOTH"
);
}
);
width = 446;
}
);
note = uni0E18;
unicode = 0E18;
},
{
glyphname = "roRua-thai";
lastChange = "2018-03-12 19:43:50 +0000";
layers = (
{
anchors = (
{
name = bottom;
position = "{256, 0}";
},
{
name = top;
position = "{386, 510}";
}
);
layerId = "5FF70513-4D67-4EEC-9617-036848F9F755";
paths = (
{
closed = 1;
nodes = (
"225 -6 OFFCURVE",
"260 29 OFFCURVE",
"269 82 CURVE SMOOTH",
"312 336 LINE SMOOTH",
"318 372 OFFCURVE",
"324 392 OFFCURVE",
"337 405 CURVE",
"333 417 LINE",
"251 449 OFFCURVE",
"182 465 OFFCURVE",
"91 465 CURVE",
"100 455 LINE",
"117 507 OFFCURVE",
"153 529 OFFCURVE",
"213 529 CURVE SMOOTH",
"262 529 OFFCURVE",
"288 501 OFFCURVE",
"342 501 CURVE SMOOTH",
"385 501 OFFCURVE",
"399 519 OFFCURVE",
"399 534 CURVE SMOOTH",
"399 537 OFFCURVE",
"398 539 OFFCURVE",
"397 542 CURVE",
"380 535 OFFCURVE",
"360 532 OFFCURVE",
"344 532 CURVE SMOOTH",
"295 532 OFFCURVE",
"278 560 OFFCURVE",
"220 560 CURVE SMOOTH",
"141 560 OFFCURVE",
"88 531 OFFCURVE",
"62 450 CURVE",
"66 434 LINE",
"160 434 OFFCURVE",
"226 423 OFFCURVE",
"313 390 CURVE",
"310 409 LINE",
"287 390 OFFCURVE",
"281 366 OFFCURVE",
"275 334 CURVE SMOOTH",
"247 175 LINE SMOOTH",
"244 160 OFFCURVE",
"243 152 OFFCURVE",
"243 137 CURVE SMOOTH",
"243 130 OFFCURVE",
"243 120 OFFCURVE",
"244 112 CURVE",
"255 112 LINE",
"248 134 OFFCURVE",
"222 150 OFFCURVE",
"187 150 CURVE SMOOTH",
"134 150 OFFCURVE",
"96 113 OFFCURVE",
"96 65 CURVE SMOOTH",
"96 19 OFFCURVE",
"131 -6 OFFCURVE",
"174 -6 CURVE SMOOTH"
);
},
{
closed = 1;
nodes = (
"149 24 OFFCURVE",
"132 39 OFFCURVE",
"132 66 CURVE SMOOTH",
"132 99 OFFCURVE",
"156 121 OFFCURVE",
"188 121 CURVE SMOOTH",
"215 121 OFFCURVE",
"231 106 OFFCURVE",
"231 79 CURVE SMOOTH",
"231 48 OFFCURVE",
"209 24 OFFCURVE",
"175 24 CURVE SMOOTH"
);
}
);
width = 389;
}
);
note = uni0E23;
unicode = 0E23;
},
{
glyphname = "choChan-thai";
lastChange = "2018-03-12 19:43:50 +0000";
layers = (
{
anchors = (
{
name = bottom;
position = "{348, 0}";
},
{
name = top;
position = "{429, 510}";
}
);
layerId = "5FF70513-4D67-4EEC-9617-036848F9F755";
paths = (
{
closed = 1;
nodes = (
"284 -6 OFFCURVE",
"355 48 OFFCURVE",
"383 222 CURVE SMOOTH",
"409 385 LINE SMOOTH",
"415 425 OFFCURVE",
"421 441 OFFCURVE",
"434 454 CURVE",
"430 466 LINE",
"412 468 OFFCURVE",
"399 473 OFFCURVE",
"379 488 CURVE SMOOTH",
"330 525 LINE SMOOTH",
"295 551 OFFCURVE",
"275 560 OFFCURVE",
"243 560 CURVE SMOOTH",
"153 560 OFFCURVE",
"68 491 OFFCURVE",
"58 466 CURVE SMOOTH",
"55 459 OFFCURVE",
"58 449 OFFCURVE",
"73 449 CURVE",
"122 493 OFFCURVE",
"178 529 OFFCURVE",
"239 529 CURVE SMOOTH",
"266 529 OFFCURVE",
"280 522 OFFCURVE",
"309 500 CURVE SMOOTH",
"355 466 LINE SMOOTH",
"378 449 OFFCURVE",
"392 442 OFFCURVE",
"410 441 CURVE",
"407 461 LINE",
"383 441 OFFCURVE",
"378 420 OFFCURVE",
"373 389 CURVE SMOOTH",
"346 222 LINE SMOOTH",
"331 128 OFFCURVE",
"301 64 OFFCURVE",
"255 24 CURVE",
"261 24 LINE",
"271 89 OFFCURVE",
"274 166 OFFCURVE",
"274 211 CURVE SMOOTH",
"274 398 OFFCURVE",
"237 443 OFFCURVE",
"172 443 CURVE SMOOTH",
"116 443 OFFCURVE",
"80 407 OFFCURVE",
"80 356 CURVE SMOOTH",
"80 312 OFFCURVE",
"114 283 OFFCURVE",
"158 283 CURVE SMOOTH",
"204 283 OFFCURVE",
"240 311 OFFCURVE",
"248 364 CURVE",
"223 354 LINE",
"234 313 OFFCURVE",
"239 264 OFFCURVE",
"239 208 CURVE SMOOTH",
"239 165 OFFCURVE",
"233 81 OFFCURVE",
"220 -2 CURVE",
"231 -2 OFFCURVE",
"245 -6 OFFCURVE",
"253 -6 CURVE SMOOTH"
);
},
{
closed = 1;
nodes = (
"132 313 OFFCURVE",
"114 331 OFFCURVE",
"114 355 CURVE SMOOTH",
"114 389 OFFCURVE",
"138 413 OFFCURVE",
"172 413 CURVE SMOOTH",
"198 413 OFFCURVE",
"216 395 OFFCURVE",
"216 371 CURVE SMOOTH",
"216 337 OFFCURVE",
"192 313 OFFCURVE",
"158 313 CURVE SMOOTH"
);
}
);
width = 464;
}
);
note = uni0E08;
unicode = 0E08;
},
{
glyphname = "woWaen-thai";
layers = (
{
anchors = (
{
name = bottom;
position = "{308, 0}";
},
{
name = top;
position = "{399, 510}";
}
);
layerId = "5FF70513-4D67-4EEC-9617-036848F9F755";
paths = (
{
closed = 1;
nodes = (
"276 -6 OFFCURVE",
"313 29 OFFCURVE",
"321 82 CURVE SMOOTH",
"369 385 LINE SMOOTH",
"375 425 OFFCURVE",
"381 441 OFFCURVE",
"394 454 CURVE",
"390 466 LINE",
"372 468 OFFCURVE",
"359 473 OFFCURVE",
"339 488 CURVE SMOOTH",
"290 525 LINE SMOOTH",
"255 551 OFFCURVE",
"238 560 OFFCURVE",
"209 560 CURVE SMOOTH",
"131 560 OFFCURVE",
"65 497 OFFCURVE",
"59 475 CURVE SMOOTH",
"56 466 OFFCURVE",
"62 457 OFFCURVE",
"76 457 CURVE",
"128 515 OFFCURVE",
"173 529 OFFCURVE",
"204 529 CURVE SMOOTH",
"229 529 OFFCURVE",
"242 520 OFFCURVE",
"269 500 CURVE SMOOTH",
"315 466 LINE SMOOTH",
"338 449 OFFCURVE",
"352 442 OFFCURVE",
"370 441 CURVE",
"367 461 LINE",
"344 442 OFFCURVE",
"338 421 OFFCURVE",
"333 389 CURVE SMOOTH",
"299 175 LINE SMOOTH",
"296 159 OFFCURVE",
"295 153 OFFCURVE",
"295 137 CURVE SMOOTH",
"295 130 OFFCURVE",
"295 123 OFFCURVE",
"296 115 CURVE",
"307 115 LINE",
"301 135 OFFCURVE",
"278 150 OFFCURVE",
"243 150 CURVE SMOOTH",
"187 150 OFFCURVE",
"148 112 OFFCURVE",
"148 63 CURVE SMOOTH",
"148 16 OFFCURVE",
"183 -6 OFFCURVE",
"224 -6 CURVE SMOOTH"
);
},
{
closed = 1;
nodes = (
"202 24 OFFCURVE",
"184 38 OFFCURVE",
"184 65 CURVE SMOOTH",
"184 96 OFFCURVE",
"207 121 OFFCURVE",
"242 121 CURVE SMOOTH",
"268 121 OFFCURVE",
"283 107 OFFCURVE",
"283 81 CURVE SMOOTH",
"283 49 OFFCURVE",
"261 24 OFFCURVE",
"227 24 CURVE SMOOTH"
);
}
);
width = 436;
}
);
note = uni0E27;
rightMetricsKey = "koKai-thai";
unicode = 0E27;
},
{
glyphname = "ngoNgu-thai";
layers = (
{
anchors = (
{
name = bottom;
position = "{279, 0}";
},
{
name = top;
position = "{360, 510}";
}
);
layerId = "5FF70513-4D67-4EEC-9617-036848F9F755";
paths = (
{
closed = 1;
nodes = (
"263 -6 OFFCURVE",
"284 34 OFFCURVE",
"295 102 CURVE SMOOTH",
"353 468 LINE SMOOTH",
"361 521 OFFCURVE",
"331 556 OFFCURVE",
"278 556 CURVE SMOOTH",
"224 556 OFFCURVE",
"184 521 OFFCURVE",
"184 470 CURVE SMOOTH",
"184 426 OFFCURVE",
"215 400 OFFCURVE",
"259 400 CURVE SMOOTH",
"292 400 OFFCURVE",
"322 415 OFFCURVE",
"334 435 CURVE",
"318 435 LINE",
"310 417 OFFCURVE",
"304 393 OFFCURVE",
"301 375 CURVE SMOOTH",
"258 102 LINE SMOOTH",
"252 61 OFFCURVE",
"242 33 OFFCURVE",
"219 19 CURVE",
"239 19 LINE",
"213 95 OFFCURVE",
"103 442 OFFCURVE",
"45 535 CURVE SMOOTH",
"38 547 OFFCURVE",
"31 551 OFFCURVE",
"23 551 CURVE SMOOTH",
"13 551 OFFCURVE",
"6 544 OFFCURVE",
"3 529 CURVE",
"77 407 OFFCURVE",
"160 149 OFFCURVE",
"208 -2 CURVE",
"218 -2 OFFCURVE",
"229 -6 OFFCURVE",
"237 -6 CURVE SMOOTH"
);
},
{
closed = 1;
nodes = (
"237 429 OFFCURVE",
"220 444 OFFCURVE",
"220 471 CURVE SMOOTH",
"220 504 OFFCURVE",
"244 526 OFFCURVE",
"276 526 CURVE SMOOTH",
"304 526 OFFCURVE",
"319 510 OFFCURVE",
"319 484 CURVE SMOOTH",
"319 451 OFFCURVE",
"295 429 OFFCURVE",
"263 429 CURVE SMOOTH"
);
}
);
width = 405;
}
);
note = uni0E07;
rightMetricsKey = "ngoNgu-thai";
unicode = 0E07;
},
{
glyphname = "thoThan-thai";
layers = (
{
anchors = (
{
name = bottom;
position = "{325, -230}";
},
{
name = top;
position = "{439, 510}";
}
);
layerId = "5FF70513-4D67-4EEC-9617-036848F9F755";
paths = (
{
closed = 1;
nodes = (
"284 -6 OFFCURVE",
"355 48 OFFCURVE",
"383 222 CURVE SMOOTH",
"409 385 LINE SMOOTH",
"415 425 OFFCURVE",
"421 441 OFFCURVE",
"434 454 CURVE",
"430 466 LINE",
"412 468 OFFCURVE",
"399 473 OFFCURVE",
"379 488 CURVE SMOOTH",
"330 525 LINE SMOOTH",
"295 551 OFFCURVE",
"275 560 OFFCURVE",
"243 560 CURVE SMOOTH",
"153 560 OFFCURVE",
"68 491 OFFCURVE",
"58 466 CURVE SMOOTH",
"55 459 OFFCURVE",
"58 449 OFFCURVE",
"73 449 CURVE",
"122 493 OFFCURVE",
"178 529 OFFCURVE",
"239 529 CURVE SMOOTH",
"266 529 OFFCURVE",
"280 522 OFFCURVE",
"309 500 CURVE SMOOTH",
"355 466 LINE SMOOTH",
"378 449 OFFCURVE",
"392 442 OFFCURVE",
"410 441 CURVE",
"407 461 LINE",
"383 441 OFFCURVE",
"378 420 OFFCURVE",
"373 389 CURVE SMOOTH",
"346 222 LINE SMOOTH",
"331 128 OFFCURVE",
"301 64 OFFCURVE",
"255 24 CURVE",
"261 24 LINE",
"271 89 OFFCURVE",
"274 166 OFFCURVE",
"274 211 CURVE SMOOTH",
"274 398 OFFCURVE",
"237 443 OFFCURVE",
"172 443 CURVE SMOOTH",
"116 443 OFFCURVE",
"80 407 OFFCURVE",
"80 356 CURVE SMOOTH",
"80 312 OFFCURVE",
"114 283 OFFCURVE",
"158 283 CURVE SMOOTH",
"204 283 OFFCURVE",
"240 311 OFFCURVE",
"248 364 CURVE",
"223 354 LINE",
"234 313 OFFCURVE",
"239 264 OFFCURVE",
"239 208 CURVE SMOOTH",
"239 165 OFFCURVE",
"233 81 OFFCURVE",
"220 -2 CURVE",
"231 -2 OFFCURVE",
"245 -6 OFFCURVE",
"253 -6 CURVE SMOOTH"
);
},
{
closed = 1;
nodes = (
"186 -230 LINE",
"186 -158 OFFCURVE",
"201 -112 OFFCURVE",
"231 -112 CURVE SMOOTH",
"261 -112 OFFCURVE",
"279 -158 OFFCURVE",
"292 -230 CURVE",
"314 -230 OFFCURVE",
"328 -214 OFFCURVE",
"333 -184 CURVE SMOOTH",
"352 -60 LINE",
"348 -57 OFFCURVE",
"344 -56 OFFCURVE",
"340 -56 CURVE SMOOTH",
"323 -56 OFFCURVE",
"314 -69 OFFCURVE",
"311 -91 CURVE SMOOTH",
"296 -184 LINE",
"308 -184 LINE",
"295 -107 OFFCURVE",
"264 -81 OFFCURVE",
"234 -81 CURVE SMOOTH",
"200 -81 OFFCURVE",
"169 -114 OFFCURVE",
"169 -164 CURVE SMOOTH",
"169 -177 OFFCURVE",
"171 -187 OFFCURVE",
"173 -199 CURVE",
"182 -199 LINE",
"159 -120 OFFCURVE",
"128 -60 OFFCURVE",
"58 -60 CURVE SMOOTH",
"0 -60 OFFCURVE",
"-40 -102 OFFCURVE",
"-40 -154 CURVE SMOOTH",
"-40 -207 OFFCURVE",
"1 -226 OFFCURVE",
"34 -226 CURVE SMOOTH",
"110 -226 OFFCURVE",
"158 -129 OFFCURVE",
"158 -63 CURVE SMOOTH",
"158 -44 OFFCURVE",
"154 -34 OFFCURVE",
"132 -34 CURVE",
"124 -129 OFFCURVE",
"83 -195 OFFCURVE",
"36 -195 CURVE SMOOTH",
"15 -195 OFFCURVE",
"-3 -182 OFFCURVE",
"-3 -153 CURVE SMOOTH",
"-3 -119 OFFCURVE",
"22 -91 OFFCURVE",
"58 -91 CURVE SMOOTH",
"108 -91 OFFCURVE",
"139 -144 OFFCURVE",
"170 -230 CURVE"
);
},
{
closed = 1;
nodes = (
"132 313 OFFCURVE",
"114 331 OFFCURVE",
"114 355 CURVE SMOOTH",
"114 389 OFFCURVE",
"138 413 OFFCURVE",
"172 413 CURVE SMOOTH",
"198 413 OFFCURVE",
"216 395 OFFCURVE",
"216 371 CURVE SMOOTH",
"216 337 OFFCURVE",
"192 313 OFFCURVE",
"158 313 CURVE SMOOTH"
);
},
{
closed = 1;
nodes = (
"478 557 OFFCURVE",
"508 577 OFFCURVE",
"508 607 CURVE SMOOTH",
"508 620 OFFCURVE",
"502 624 OFFCURVE",
"491 624 CURVE",
"468 602 OFFCURVE",
"438 575 OFFCURVE",
"309 522 CURVE",
"333 502 LINE"
);
}
);
width = 464;
}
);
note = uni0E10;
unicode = 0E10;
},
{
glyphname = "thoThan-thai.less";
layers = (
{
anchors = (
{
name = bottom;
position = "{348, 0}";
},
{
name = top;
position = "{439, 510}";
}
);
layerId = "5FF70513-4D67-4EEC-9617-036848F9F755";
paths = (
{
closed = 1;
nodes = (
"284 -6 OFFCURVE",
"355 48 OFFCURVE",
"383 222 CURVE SMOOTH",
"409 385 LINE SMOOTH",
"415 425 OFFCURVE",
"421 441 OFFCURVE",
"434 454 CURVE",
"430 466 LINE",
"412 468 OFFCURVE",
"399 473 OFFCURVE",
"379 488 CURVE SMOOTH",
"330 525 LINE SMOOTH",
"295 551 OFFCURVE",
"275 560 OFFCURVE",
"243 560 CURVE SMOOTH",
"153 560 OFFCURVE",
"68 491 OFFCURVE",
"58 466 CURVE SMOOTH",
"55 459 OFFCURVE",
"58 449 OFFCURVE",
"73 449 CURVE",
"122 493 OFFCURVE",
"178 529 OFFCURVE",
"239 529 CURVE SMOOTH",
"266 529 OFFCURVE",
"280 522 OFFCURVE",
"309 500 CURVE SMOOTH",
"355 466 LINE SMOOTH",
"378 449 OFFCURVE",
"392 442 OFFCURVE",
"410 441 CURVE",
"407 461 LINE",
"383 441 OFFCURVE",
"378 420 OFFCURVE",
"373 389 CURVE SMOOTH",
"346 222 LINE SMOOTH",
"331 128 OFFCURVE",
"301 64 OFFCURVE",
"255 24 CURVE",
"261 24 LINE",
"271 89 OFFCURVE",
"274 166 OFFCURVE",
"274 211 CURVE SMOOTH",
"274 398 OFFCURVE",
"237 443 OFFCURVE",
"172 443 CURVE SMOOTH",
"116 443 OFFCURVE",
"80 407 OFFCURVE",
"80 356 CURVE SMOOTH",
"80 312 OFFCURVE",
"114 283 OFFCURVE",
"158 283 CURVE SMOOTH",
"204 283 OFFCURVE",
"240 311 OFFCURVE",
"248 364 CURVE",
"223 354 LINE",
"234 313 OFFCURVE",
"239 264 OFFCURVE",
"239 208 CURVE SMOOTH",
"239 165 OFFCURVE",
"233 81 OFFCURVE",
"220 -2 CURVE",
"231 -2 OFFCURVE",
"245 -6 OFFCURVE",
"253 -6 CURVE SMOOTH"
);
},
{
closed = 1;
nodes = (
"132 313 OFFCURVE",
"114 331 OFFCURVE",
"114 355 CURVE SMOOTH",
"114 389 OFFCURVE",
"138 413 OFFCURVE",
"172 413 CURVE SMOOTH",
"198 413 OFFCURVE",
"216 395 OFFCURVE",
"216 371 CURVE SMOOTH",
"216 337 OFFCURVE",
"192 313 OFFCURVE",
"158 313 CURVE SMOOTH"
);
},
{
closed = 1;
nodes = (
"478 557 OFFCURVE",
"508 577 OFFCURVE",
"508 607 CURVE SMOOTH",
"508 620 OFFCURVE",
"502 624 OFFCURVE",
"491 624 CURVE",
"468 602 OFFCURVE",
"438 575 OFFCURVE",
"309 522 CURVE",
"333 502 LINE"
);
}
);
width = 464;
}
);
note = "thoThan-thai.less";
},
{
glyphname = "choChing-thai";
layers = (
{
anchors = (
{
name = bottom;
position = "{438, 0}";
},
{
name = top;
position = "{509, 510}";
}
);
layerId = "5FF70513-4D67-4EEC-9617-036848F9F755";
paths = (
{
closed = 1;
nodes = (
"145 -6 OFFCURVE",
"171 29 OFFCURVE",
"256 86 CURVE SMOOTH",
"349 148 OFFCURVE",
"388 156 OFFCURVE",
"432 156 CURVE",
"442 169 OFFCURVE",
"447 191 OFFCURVE",
"450 210 CURVE SMOOTH",
"476 375 LINE SMOOTH",
"482 411 OFFCURVE",
"488 431 OFFCURVE",
"501 444 CURVE",
"497 456 LINE",
"475 459 OFFCURVE",
"474 460 OFFCURVE",
"447 478 CURVE SMOOTH",
"376 525 LINE SMOOTH",
"337 551 OFFCURVE",
"312 560 OFFCURVE",
"280 560 CURVE SMOOTH",
"184 560 OFFCURVE",
"82 481 OFFCURVE",
"72 456 CURVE SMOOTH",
"68 445 OFFCURVE",
"77 439 OFFCURVE",
"88 439 CURVE",
"140 482 OFFCURVE",
"213 529 OFFCURVE",
"275 529 CURVE SMOOTH",
"301 529 OFFCURVE",
"323 521 OFFCURVE",
"355 500 CURVE SMOOTH",
"422 456 LINE SMOOTH",
"446 440 OFFCURVE",
"459 432 OFFCURVE",
"477 431 CURVE",
"474 451 LINE",
"451 432 OFFCURVE",
"445 411 OFFCURVE",
"440 379 CURVE SMOOTH",
"406 167 LINE",
"421 178 LINE",
"367 178 OFFCURVE",
"315 162 OFFCURVE",
"244 116 CURVE SMOOTH",
"186 79 OFFCURVE",
"158 47 OFFCURVE",
"135 26 CURVE",
"147 26 LINE",
"162 60 OFFCURVE",
"164 58 OFFCURVE",
"172 116 CURVE SMOOTH",
"189 243 OFFCURVE",
"191 246 OFFCURVE",
"211 281 CURVE SMOOTH",
"226 307 OFFCURVE",
"237 327 OFFCURVE",
"237 349 CURVE SMOOTH",
"237 383 OFFCURVE",
"209 418 OFFCURVE",
"156 418 CURVE SMOOTH",
"104 418 OFFCURVE",
"65 383 OFFCURVE",
"65 334 CURVE SMOOTH",
"65 288 OFFCURVE",
"98 262 OFFCURVE",
"138 262 CURVE SMOOTH",
"160 262 OFFCURVE",
"180 270 OFFCURVE",
"192 283 CURVE",
"175 283 LINE",
"156 251 OFFCURVE",
"153 236 OFFCURVE",
"135 116 CURVE SMOOTH",
"127 62 OFFCURVE",
"123 41 OFFCURVE",
"95 14 CURVE",
"99 -2 LINE",
"107 -2 OFFCURVE",
"110 -6 OFFCURVE",
"119 -6 CURVE SMOOTH"
);
},
{
closed = 1;
nodes = (
"118 291 OFFCURVE",
"101 306 OFFCURVE",
"101 333 CURVE SMOOTH",
"101 366 OFFCURVE",
"126 388 OFFCURVE",
"158 388 CURVE SMOOTH",
"184 388 OFFCURVE",
"200 374 OFFCURVE",
"200 347 CURVE SMOOTH",
"200 315 OFFCURVE",
"177 291 OFFCURVE",
"144 291 CURVE SMOOTH"
);
},
{
closed = 1;
nodes = (
"458 -6 OFFCURVE",
"501 36 OFFCURVE",
"501 92 CURVE SMOOTH",
"501 144 OFFCURVE",
"464 174 OFFCURVE",
"411 174 CURVE SMOOTH",
"348 174 OFFCURVE",
"305 133 OFFCURVE",
"305 76 CURVE SMOOTH",
"305 26 OFFCURVE",
"339 -6 OFFCURVE",
"394 -6 CURVE SMOOTH"
);
},
{
closed = 1;
nodes = (
"363 24 OFFCURVE",
"341 44 OFFCURVE",
"341 78 CURVE SMOOTH",
"341 116 OFFCURVE",
"369 144 OFFCURVE",
"410 144 CURVE SMOOTH",
"445 144 OFFCURVE",
"465 124 OFFCURVE",
"465 91 CURVE SMOOTH",
"465 53 OFFCURVE",
"437 24 OFFCURVE",
"397 24 CURVE SMOOTH"
);
}
);
width = 567;
}
);
note = uni0E09;
unicode = 0E09;
},
{
glyphname = "loLing-thai";
lastChange = "2018-03-12 19:43:50 +0000";
layers = (
{
anchors = (
{
name = bottom;
position = "{417, 0}";
},
{
name = top;
position = "{488, 510}";
}
);
layerId = "5FF70513-4D67-4EEC-9617-036848F9F755";
paths = (
{
closed = 1;
nodes = (
"205 -6 OFFCURVE",
"245 35 OFFCURVE",
"245 89 CURVE SMOOTH",
"245 136 OFFCURVE",
"214 166 OFFCURVE",
"169 166 CURVE SMOOTH",
"133 166 OFFCURVE",
"98 146 OFFCURVE",
"80 116 CURVE",
"108 116 LINE",
"126 226 OFFCURVE",
"209 439 OFFCURVE",
"242 439 CURVE SMOOTH",
"275 439 OFFCURVE",
"321 242 OFFCURVE",
"372 0 CURVE",
"406 0 OFFCURVE",
"421 23 OFFCURVE",
"427 64 CURVE SMOOTH",
"476 375 LINE SMOOTH",
"482 411 OFFCURVE",
"488 431 OFFCURVE",
"501 444 CURVE",
"497 456 LINE",
"476 459 OFFCURVE",
"474 460 OFFCURVE",
"447 478 CURVE SMOOTH",
"376 525 LINE SMOOTH",
"337 551 OFFCURVE",
"312 560 OFFCURVE",
"280 560 CURVE SMOOTH",
"183 560 OFFCURVE",
"72 475 OFFCURVE",
"72 450 CURVE SMOOTH",
"72 445 OFFCURVE",
"76 440 OFFCURVE",
"88 437 CURVE",
"140 480 OFFCURVE",
"213 529 OFFCURVE",
"275 529 CURVE SMOOTH",
"299 529 OFFCURVE",
"322 522 OFFCURVE",
"355 500 CURVE SMOOTH",
"422 456 LINE SMOOTH",
"446 440 OFFCURVE",
"459 432 OFFCURVE",
"477 431 CURVE",
"474 451 LINE",
"451 432 OFFCURVE",
"445 411 OFFCURVE",
"440 379 CURVE SMOOTH",
"383 18 LINE",
"397 30 LINE",
"361 234 OFFCURVE",
"304 470 OFFCURVE",
"249 470 CURVE SMOOTH",
"170 470 OFFCURVE",
"65 175 OFFCURVE",
"65 80 CURVE SMOOTH",
"65 24 OFFCURVE",
"97 -6 OFFCURVE",
"147 -6 CURVE SMOOTH"
);
},
{
closed = 1;
nodes = (
"116 24 OFFCURVE",
"99 43 OFFCURVE",
"99 73 CURVE SMOOTH",
"99 109 OFFCURVE",
"125 136 OFFCURVE",
"161 136 CURVE SMOOTH",
"192 136 OFFCURVE",
"209 117 OFFCURVE",
"209 87 CURVE SMOOTH",
"209 51 OFFCURVE",
"183 24 OFFCURVE",
"147 24 CURVE SMOOTH"
);
}
);
width = 545;
}
);
note = uni0E25;
rightMetricsKey = "koKai-thai";
unicode = 0E25;
},
{
glyphname = "soSua-thai";
layers = (
{
anchors = (
{
name = bottom;
position = "{417, 0}";
},
{
name = top;
position = "{488, 510}";
}
);
layerId = "5FF70513-4D67-4EEC-9617-036848F9F755";
paths = (
{
closed = 1;
nodes = (
"205 -6 OFFCURVE",
"245 35 OFFCURVE",
"245 89 CURVE SMOOTH",
"245 136 OFFCURVE",
"214 166 OFFCURVE",
"169 166 CURVE SMOOTH",
"133 166 OFFCURVE",
"98 146 OFFCURVE",
"80 116 CURVE",
"108 116 LINE",
"126 226 OFFCURVE",
"209 439 OFFCURVE",
"242 439 CURVE SMOOTH",
"275 439 OFFCURVE",
"321 242 OFFCURVE",
"372 0 CURVE",
"406 0 OFFCURVE",
"421 23 OFFCURVE",
"427 64 CURVE SMOOTH",
"476 375 LINE SMOOTH",
"482 411 OFFCURVE",
"488 431 OFFCURVE",
"501 444 CURVE",
"497 456 LINE",
"476 459 OFFCURVE",
"474 460 OFFCURVE",
"447 478 CURVE SMOOTH",
"376 525 LINE SMOOTH",
"337 551 OFFCURVE",
"312 560 OFFCURVE",
"280 560 CURVE SMOOTH",
"183 560 OFFCURVE",
"72 475 OFFCURVE",
"72 450 CURVE SMOOTH",
"72 445 OFFCURVE",
"76 440 OFFCURVE",
"88 437 CURVE",
"140 480 OFFCURVE",
"213 529 OFFCURVE",
"275 529 CURVE SMOOTH",
"299 529 OFFCURVE",
"322 522 OFFCURVE",
"355 500 CURVE SMOOTH",
"422 456 LINE SMOOTH",
"446 440 OFFCURVE",
"459 432 OFFCURVE",
"477 431 CURVE",
"474 451 LINE",
"451 432 OFFCURVE",
"445 411 OFFCURVE",
"440 379 CURVE SMOOTH",
"383 18 LINE",
"397 30 LINE",
"361 234 OFFCURVE",
"304 470 OFFCURVE",
"249 470 CURVE SMOOTH",
"170 470 OFFCURVE",
"65 175 OFFCURVE",
"65 80 CURVE SMOOTH",
"65 24 OFFCURVE",
"97 -6 OFFCURVE",
"147 -6 CURVE SMOOTH"
);
},
{
closed = 1;
nodes = (
"116 24 OFFCURVE",
"99 43 OFFCURVE",
"99 73 CURVE SMOOTH",
"99 109 OFFCURVE",
"125 136 OFFCURVE",
"161 136 CURVE SMOOTH",
"192 136 OFFCURVE",
"209 117 OFFCURVE",
"209 87 CURVE SMOOTH",
"209 51 OFFCURVE",
"183 24 OFFCURVE",
"147 24 CURVE SMOOTH"
);
},
{
closed = 1;
nodes = (
"549 558 OFFCURVE",
"578 580 OFFCURVE",
"578 603 CURVE SMOOTH",
"578 614 OFFCURVE",
"571 624 OFFCURVE",
"560 624 CURVE",
"537 602 OFFCURVE",
"507 575 OFFCURVE",
"370 519 CURVE",
"390 498 LINE"
);
}
);
width = 545;
}
);
leftMetricsKey = "loLing-thai";
note = uni0E2A;
unicode = 0E2A;
},
{
glyphname = "boBaimai-thai";
layers = (
{
anchors = (
{
name = bottom;
position = "{405, 0}";
},
{
name = top;
position = "{496, 510}";
}
);
layerId = "5FF70513-4D67-4EEC-9617-036848F9F755";
paths = (
{
closed = 1;
nodes = (
"347 -10 OFFCURVE",
"423 50 OFFCURVE",
"438 144 CURVE SMOOTH",
"502 550 LINE",
"498 553 OFFCURVE",
"494 554 OFFCURVE",
"490 554 CURVE SMOOTH",
"475 554 OFFCURVE",
"464 543 OFFCURVE",
"460 519 CURVE SMOOTH",
"401 144 LINE SMOOTH",
"389 69 OFFCURVE",
"328 21 OFFCURVE",
"233 21 CURVE SMOOTH",
"185 21 OFFCURVE",
"130 33 OFFCURVE",
"87 33 CURVE",
"96 15 LINE",
"119 45 OFFCURVE",
"127 70 OFFCURVE",
"135 120 CURVE SMOOTH",
"169 335 LINE SMOOTH",
"176 378 OFFCURVE",
"188 401 OFFCURVE",
"199 422 CURVE SMOOTH",
"211 445 OFFCURVE",
"224 466 OFFCURVE",
"224 491 CURVE SMOOTH",
"224 530 OFFCURVE",
"193 556 OFFCURVE",
"147 556 CURVE SMOOTH",
"91 556 OFFCURVE",
"53 518 OFFCURVE",
"53 469 CURVE SMOOTH",
"53 421 OFFCURVE",
"90 400 OFFCURVE",
"127 400 CURVE SMOOTH",
"150 400 OFFCURVE",
"168 408 OFFCURVE",
"180 421 CURVE",
"163 421 LINE",
"152 407 OFFCURVE",
"139 379 OFFCURVE",
"132 335 CURVE SMOOTH",
"98 120 LINE SMOOTH",
"89 60 OFFCURVE",
"75 34 OFFCURVE",
"58 20 CURVE",
"62 4 LINE",
"127 4 OFFCURVE",
"168 -10 OFFCURVE",
"226 -10 CURVE SMOOTH"
);
},
{
closed = 1;
nodes = (
"107 429 OFFCURVE",
"89 443 OFFCURVE",
"89 470 CURVE SMOOTH",
"89 501 OFFCURVE",
"112 526 OFFCURVE",
"145 526 CURVE SMOOTH",
"170 526 OFFCURVE",
"188 512 OFFCURVE",
"188 485 CURVE SMOOTH",
"188 454 OFFCURVE",
"165 429 OFFCURVE",
"132 429 CURVE SMOOTH"
);
}
);
width = 537;
}
);
note = uni0E1A;
unicode = 0E1A;
},
{
glyphname = "poPla-thai";
layers = (
{
anchors = (
{
name = bottom;
position = "{405, 0}";
},
{
name = top;
position = "{397, 510}";
}
);
layerId = "5FF70513-4D67-4EEC-9617-036848F9F755";
paths = (
{
closed = 1;
nodes = (
"347 -10 OFFCURVE",
"423 50 OFFCURVE",
"438 144 CURVE SMOOTH",
"534 750 LINE",
"530 753 OFFCURVE",
"526 754 OFFCURVE",
"522 754 CURVE SMOOTH",
"507 754 OFFCURVE",
"496 743 OFFCURVE",
"492 719 CURVE SMOOTH",
"401 144 LINE SMOOTH",
"389 69 OFFCURVE",
"328 21 OFFCURVE",
"233 21 CURVE SMOOTH",
"185 21 OFFCURVE",
"130 33 OFFCURVE",
"87 33 CURVE",
"96 15 LINE",
"119 45 OFFCURVE",
"127 70 OFFCURVE",
"135 120 CURVE SMOOTH",
"169 335 LINE SMOOTH",
"176 378 OFFCURVE",
"188 401 OFFCURVE",
"199 422 CURVE SMOOTH",
"211 445 OFFCURVE",
"224 466 OFFCURVE",
"224 491 CURVE SMOOTH",
"224 530 OFFCURVE",
"193 556 OFFCURVE",
"147 556 CURVE SMOOTH",
"91 556 OFFCURVE",
"53 518 OFFCURVE",
"53 469 CURVE SMOOTH",
"53 421 OFFCURVE",
"90 400 OFFCURVE",
"127 400 CURVE SMOOTH",
"150 400 OFFCURVE",
"168 408 OFFCURVE",
"180 421 CURVE",
"163 421 LINE",
"152 407 OFFCURVE",
"139 379 OFFCURVE",
"132 335 CURVE SMOOTH",
"98 120 LINE SMOOTH",
"89 60 OFFCURVE",
"75 34 OFFCURVE",
"58 20 CURVE",
"62 4 LINE",
"127 4 OFFCURVE",
"168 -10 OFFCURVE",
"226 -10 CURVE SMOOTH"
);
},
{
closed = 1;
nodes = (
"107 429 OFFCURVE",
"89 443 OFFCURVE",
"89 470 CURVE SMOOTH",
"89 501 OFFCURVE",
"112 526 OFFCURVE",
"145 526 CURVE SMOOTH",
"170 526 OFFCURVE",
"188 512 OFFCURVE",
"188 485 CURVE SMOOTH",
"188 454 OFFCURVE",
"165 429 OFFCURVE",
"132 429 CURVE SMOOTH"
);
}
);
width = 537;
}
);
leftMetricsKey = "boBaimai-thai";
note = uni0E1B;
rightMetricsKey = "boBaimai-thai";
unicode = 0E1B;
},
{
glyphname = "soRusi-thai";
layers = (
{
anchors = (
{
name = bottom;
position = "{425, 0}";
},
{
name = top;
position = "{506, 510}";
}
);
layerId = "5FF70513-4D67-4EEC-9617-036848F9F755";
paths = (
{
closed = 1;
nodes = (
"357 -10 OFFCURVE",
"433 50 OFFCURVE",
"448 144 CURVE SMOOTH",
"512 550 LINE",
"508 553 OFFCURVE",
"504 554 OFFCURVE",
"500 554 CURVE SMOOTH",
"485 554 OFFCURVE",
"474 543 OFFCURVE",
"470 519 CURVE SMOOTH",
"411 144 LINE SMOOTH",
"399 69 OFFCURVE",
"338 21 OFFCURVE",
"243 21 CURVE SMOOTH",
"195 21 OFFCURVE",
"130 33 OFFCURVE",
"87 33 CURVE",
"96 15 LINE",
"119 45 OFFCURVE",
"127 70 OFFCURVE",
"135 120 CURVE SMOOTH",
"169 335 LINE SMOOTH",
"176 378 OFFCURVE",
"188 401 OFFCURVE",
"199 422 CURVE SMOOTH",
"211 445 OFFCURVE",
"224 466 OFFCURVE",
"224 491 CURVE SMOOTH",
"224 530 OFFCURVE",
"193 556 OFFCURVE",
"147 556 CURVE SMOOTH",
"91 556 OFFCURVE",
"53 518 OFFCURVE",
"53 469 CURVE SMOOTH",
"53 421 OFFCURVE",
"90 400 OFFCURVE",
"127 400 CURVE SMOOTH",
"150 400 OFFCURVE",
"168 408 OFFCURVE",
"180 421 CURVE",
"163 421 LINE",
"152 407 OFFCURVE",
"139 379 OFFCURVE",
"132 335 CURVE SMOOTH",
"98 120 LINE SMOOTH",
"89 60 OFFCURVE",
"75 34 OFFCURVE",
"58 20 CURVE",
"62 4 LINE",
"127 4 OFFCURVE",
"178 -10 OFFCURVE",
"236 -10 CURVE SMOOTH"
);
},
{
closed = 1;
nodes = (
"267 239 OFFCURVE",
"252 253 OFFCURVE",
"252 280 CURVE SMOOTH",
"252 313 OFFCURVE",
"273 339 OFFCURVE",
"304 339 CURVE SMOOTH",
"327 339 OFFCURVE",
"342 325 OFFCURVE",
"342 298 CURVE SMOOTH",
"342 265 OFFCURVE",
"321 239 OFFCURVE",
"290 239 CURVE SMOOTH"
);
},
{
closed = 1;
nodes = (
"107 429 OFFCURVE",
"89 443 OFFCURVE",
"89 470 CURVE SMOOTH",
"89 501 OFFCURVE",
"112 526 OFFCURVE",
"145 526 CURVE SMOOTH",
"170 526 OFFCURVE",
"188 512 OFFCURVE",
"188 485 CURVE SMOOTH",
"188 454 OFFCURVE",
"165 429 OFFCURVE",
"132 429 CURVE SMOOTH"
);
},
{
closed = 1;
nodes = (
"464 208 OFFCURVE",
"576 310 OFFCURVE",
"576 415 CURVE SMOOTH",
"576 425 OFFCURVE",
"575 435 OFFCURVE",
"560 435 CURVE SMOOTH",
"553 435 OFFCURVE",
"548 433 OFFCURVE",
"543 431 CURVE",
"524 308 OFFCURVE",
"445 243 OFFCURVE",
"334 240 CURVE",
"333 232 LINE",
"362 245 OFFCURVE",
"378 271 OFFCURVE",
"378 301 CURVE SMOOTH",
"378 341 OFFCURVE",
"350 368 OFFCURVE",
"305 368 CURVE SMOOTH",
"251 368 OFFCURVE",
"215 329 OFFCURVE",
"215 282 CURVE SMOOTH",
"215 232 OFFCURVE",
"255 208 OFFCURVE",
"323 208 CURVE SMOOTH"
);
}
);
width = 564;
}
);
leftMetricsKey = "boBaimai-thai";
note = uni0E29;
unicode = 0E29;
},
{
glyphname = "yoYak-thai";
layers = (
{
anchors = (
{
name = bottom;
position = "{390, 0}";
},
{
name = top;
position = "{471, 510}";
}
);
layerId = "5FF70513-4D67-4EEC-9617-036848F9F755";
paths = (
{
closed = 1;
nodes = (
"239 -10 OFFCURVE",
"350 4 OFFCURVE",
"409 4 CURVE",
"417 20 LINE",
"409 29 OFFCURVE",
"404 44 OFFCURVE",
"404 65 CURVE SMOOTH",
"404 79 OFFCURVE",
"406 100 OFFCURVE",
"409 120 CURVE SMOOTH",
"477 550 LINE",
"473 553 OFFCURVE",
"469 554 OFFCURVE",
"465 554 CURVE SMOOTH",
"450 554 OFFCURVE",
"439 543 OFFCURVE",
"435 519 CURVE SMOOTH",
"372 120 LINE SMOOTH",
"368 96 OFFCURVE",
"367 83 OFFCURVE",
"367 69 CURVE SMOOTH",
"367 46 OFFCURVE",
"370 32 OFFCURVE",
"377 15 CURVE",
"392 33 LINE",
"353 33 OFFCURVE",
"234 21 OFFCURVE",
"190 21 CURVE SMOOTH",
"119 21 OFFCURVE",
"81 64 OFFCURVE",
"81 123 CURVE SMOOTH",
"81 212 OFFCURVE",
"142 250 OFFCURVE",
"233 282 CURVE SMOOTH",
"270 295 OFFCURVE",
"318 308 OFFCURVE",
"318 339 CURVE SMOOTH",
"318 349 OFFCURVE",
"313 353 OFFCURVE",
"305 355 CURVE",
"281 329 OFFCURVE",
"250 315 OFFCURVE",
"210 315 CURVE SMOOTH",
"148 315 OFFCURVE",
"118 349 OFFCURVE",
"118 403 CURVE SMOOTH",
"118 412 OFFCURVE",
"119 422 OFFCURVE",
"121 433 CURVE",
"124 435 LINE",
"138 409 OFFCURVE",
"164 400 OFFCURVE",
"191 400 CURVE SMOOTH",
"247 400 OFFCURVE",
"290 439 OFFCURVE",
"290 490 CURVE SMOOTH",
"290 531 OFFCURVE",
"261 556 OFFCURVE",
"214 556 CURVE SMOOTH",
"136 556 OFFCURVE",
"84 486 OFFCURVE",
"84 404 CURVE SMOOTH",
"84 335 OFFCURVE",
"120 296 OFFCURVE",
"182 291 CURVE",
"182 289 LINE",
"92 257 OFFCURVE",
"42 203 OFFCURVE",
"42 121 CURVE SMOOTH",
"42 53 OFFCURVE",
"88 -10 OFFCURVE",
"187 -10 CURVE SMOOTH"
);
},
{
closed = 1;
nodes = (
"170 429 OFFCURVE",
"155 443 OFFCURVE",
"155 469 CURVE SMOOTH",
"155 501 OFFCURVE",
"177 526 OFFCURVE",
"211 526 CURVE SMOOTH",
"238 526 OFFCURVE",
"254 511 OFFCURVE",
"254 485 CURVE SMOOTH",
"254 453 OFFCURVE",
"229 429 OFFCURVE",
"196 429 CURVE SMOOTH"
);
}
);
width = 506;
}
);
note = uni0E22;
unicode = 0E22;
},
{
glyphname = "phoPhung-thai";
layers = (
{
anchors = (
{
name = bottom;
position = "{486, 0}";
},
{
name = top;
position = "{567, 510}";
}
);
layerId = "5FF70513-4D67-4EEC-9617-036848F9F755";
paths = (
{
closed = 1;
nodes = (
"473 -4 OFFCURVE",
"488 13 OFFCURVE",
"492 41 CURVE SMOOTH",
"573 550 LINE",
"569 553 OFFCURVE",
"565 554 OFFCURVE",
"561 554 CURVE SMOOTH",
"546 554 OFFCURVE",
"535 543 OFFCURVE",
"531 519 CURVE SMOOTH",
"452 18 LINE",
"462 22 LINE",
"324 291 LINE",
"308 291 LINE",
"87 25 LINE",
"102 19 LINE",
"97 53 OFFCURVE",
"94 86 OFFCURVE",
"94 121 CURVE SMOOTH",
"94 217 OFFCURVE",
"118 350 OFFCURVE",
"151 439 CURVE",
"154 441 LINE",
"168 409 OFFCURVE",
"197 400 OFFCURVE",
"225 400 CURVE SMOOTH",
"282 400 OFFCURVE",
"320 438 OFFCURVE",
"320 487 CURVE SMOOTH",
"320 534 OFFCURVE",
"284 556 OFFCURVE",
"243 556 CURVE SMOOTH",
"97 556 OFFCURVE",
"56 269 OFFCURVE",
"56 117 CURVE SMOOTH",
"56 32 OFFCURVE",
"69 0 OFFCURVE",
"84 0 CURVE SMOOTH",
"113 0 LINE",
"325 259 LINE",
"301 259 LINE",
"430 0 LINE",
"436 -2 OFFCURVE",
"442 -4 OFFCURVE",
"450 -4 CURVE SMOOTH"
);
},
{
closed = 1;
nodes = (
"200 429 OFFCURVE",
"185 443 OFFCURVE",
"185 469 CURVE SMOOTH",
"185 501 OFFCURVE",
"207 526 OFFCURVE",
"241 526 CURVE SMOOTH",
"265 526 OFFCURVE",
"284 513 OFFCURVE",
"284 485 CURVE SMOOTH",
"284 454 OFFCURVE",
"261 429 OFFCURVE",
"226 429 CURVE SMOOTH"
);
}
);
width = 614;
}
);
note = uni0E1C;
rightMetricsKey = "moMa-thai";
unicode = 0E1C;
},
{
glyphname = "foFa-thai";
layers = (
{
anchors = (
{
name = bottom;
position = "{486, 0}";
},
{
name = top;
position = "{468, 510}";
}
);
layerId = "5FF70513-4D67-4EEC-9617-036848F9F755";
paths = (
{
closed = 1;
nodes = (
"473 -4 OFFCURVE",
"488 13 OFFCURVE",
"492 41 CURVE SMOOTH",
"605 750 LINE",
"601 753 OFFCURVE",
"597 754 OFFCURVE",
"593 754 CURVE SMOOTH",
"578 754 OFFCURVE",
"567 743 OFFCURVE",
"563 719 CURVE SMOOTH",
"452 18 LINE",
"461 24 LINE",
"324 291 LINE",
"308 291 LINE",
"87 25 LINE",
"102 19 LINE",
"97 53 OFFCURVE",
"94 86 OFFCURVE",
"94 121 CURVE SMOOTH",
"94 217 OFFCURVE",
"118 350 OFFCURVE",
"151 439 CURVE",
"154 441 LINE",
"168 409 OFFCURVE",
"197 400 OFFCURVE",
"225 400 CURVE SMOOTH",
"282 400 OFFCURVE",
"320 438 OFFCURVE",
"320 487 CURVE SMOOTH",
"320 534 OFFCURVE",
"284 556 OFFCURVE",
"243 556 CURVE SMOOTH",
"97 556 OFFCURVE",
"56 269 OFFCURVE",
"56 117 CURVE SMOOTH",
"56 32 OFFCURVE",
"69 0 OFFCURVE",
"84 0 CURVE SMOOTH",
"113 0 LINE",
"325 259 LINE",
"301 259 LINE",
"430 0 LINE",
"436 -2 OFFCURVE",
"442 -4 OFFCURVE",
"450 -4 CURVE SMOOTH"
);
},
{
closed = 1;
nodes = (
"200 429 OFFCURVE",
"185 443 OFFCURVE",
"185 469 CURVE SMOOTH",
"185 501 OFFCURVE",
"207 526 OFFCURVE",
"241 526 CURVE SMOOTH",
"265 526 OFFCURVE",
"284 513 OFFCURVE",
"284 485 CURVE SMOOTH",
"284 454 OFFCURVE",
"261 429 OFFCURVE",
"226 429 CURVE SMOOTH"
);
}
);
width = 615;
}
);
leftMetricsKey = "phoPhung-thai";
note = uni0E1D;
rightMetricsKey = "moMa-thai";
unicode = 0E1D;
},
{
glyphname = "foFan-thai";
layers = (
{
anchors = (
{
name = bottom;
position = "{518, 0}";
},
{
name = top;
position = "{480, 510}";
}
);
layerId = "5FF70513-4D67-4EEC-9617-036848F9F755";
paths = (
{
closed = 1;
nodes = (
"132 -6 OFFCURVE",
"146 26 OFFCURVE",
"214 160 CURVE SMOOTH",
"368 460 LINE",
"358 460 LINE",
"448 0 LINE",
"454 -2 OFFCURVE",
"458 -4 OFFCURVE",
"465 -4 CURVE SMOOTH",
"486 -4 OFFCURVE",
"500 15 OFFCURVE",
"504 41 CURVE SMOOTH",
"617 750 LINE",
"613 753 OFFCURVE",
"609 754 OFFCURVE",
"605 754 CURVE SMOOTH",
"590 754 OFFCURVE",
"579 743 OFFCURVE",
"575 719 CURVE SMOOTH",
"464 18 LINE",
"478 26 LINE",
"380 526 LINE",
"364 526 LINE",
"184 174 LINE SMOOTH",
"135 78 OFFCURVE",
"111 41 OFFCURVE",
"99 31 CURVE",
"96 11 LINE",
"118 41 OFFCURVE",
"126 66 OFFCURVE",
"134 116 CURVE SMOOTH",
"169 335 LINE SMOOTH",
"176 379 OFFCURVE",
"180 388 OFFCURVE",
"199 422 CURVE SMOOTH",
"215 451 OFFCURVE",
"224 469 OFFCURVE",
"224 490 CURVE SMOOTH",
"224 527 OFFCURVE",
"195 556 OFFCURVE",
"146 556 CURVE SMOOTH",
"91 556 OFFCURVE",
"53 518 OFFCURVE",
"53 469 CURVE SMOOTH",
"53 420 OFFCURVE",
"92 400 OFFCURVE",
"127 400 CURVE SMOOTH",
"149 400 OFFCURVE",
"168 408 OFFCURVE",
"180 421 CURVE",
"163 421 LINE",
"142 392 OFFCURVE",
"136 360 OFFCURVE",
"132 335 CURVE SMOOTH",
"97 116 LINE SMOOTH",
"88 57 OFFCURVE",
"75 29 OFFCURVE",
"57 14 CURVE",
"61 -2 LINE",
"72 -2 OFFCURVE",
"83 -6 OFFCURVE",
"96 -6 CURVE SMOOTH"
);
},
{
closed = 1;
nodes = (
"107 429 OFFCURVE",
"89 443 OFFCURVE",
"89 470 CURVE SMOOTH",
"89 501 OFFCURVE",
"112 526 OFFCURVE",
"145 526 CURVE SMOOTH",
"170 526 OFFCURVE",
"188 512 OFFCURVE",
"188 485 CURVE SMOOTH",
"188 454 OFFCURVE",
"165 429 OFFCURVE",
"132 429 CURVE SMOOTH"
);
}
);
width = 627;
}
);
leftMetricsKey = "boBaimai-thai";
note = uni0E1F;
rightMetricsKey = "moMa-thai";
unicode = 0E1F;
},
{
glyphname = "phoPhan-thai";
layers = (
{
anchors = (
{
name = bottom;
position = "{498, 0}";
},
{
name = top;
position = "{579, 510}";
}
);
layerId = "5FF70513-4D67-4EEC-9617-036848F9F755";
paths = (
{
closed = 1;
nodes = (
"132 -6 OFFCURVE",
"146 26 OFFCURVE",
"214 160 CURVE SMOOTH",
"368 460 LINE",
"358 460 LINE",
"448 0 LINE",
"454 -2 OFFCURVE",
"458 -4 OFFCURVE",
"465 -4 CURVE SMOOTH",
"486 -4 OFFCURVE",
"500 15 OFFCURVE",
"504 41 CURVE SMOOTH",
"585 550 LINE",
"581 553 OFFCURVE",
"577 554 OFFCURVE",
"573 554 CURVE SMOOTH",
"558 554 OFFCURVE",
"547 543 OFFCURVE",
"543 519 CURVE SMOOTH",
"464 18 LINE",
"478 26 LINE",
"380 526 LINE",
"364 526 LINE",
"184 174 LINE SMOOTH",
"135 78 OFFCURVE",
"111 41 OFFCURVE",
"99 31 CURVE",
"96 11 LINE",
"118 41 OFFCURVE",
"126 66 OFFCURVE",
"134 116 CURVE SMOOTH",
"169 335 LINE SMOOTH",
"176 379 OFFCURVE",
"181 390 OFFCURVE",
"199 422 CURVE SMOOTH",
"215 450 OFFCURVE",
"224 470 OFFCURVE",
"224 490 CURVE SMOOTH",
"224 527 OFFCURVE",
"195 556 OFFCURVE",
"146 556 CURVE SMOOTH",
"91 556 OFFCURVE",
"53 518 OFFCURVE",
"53 469 CURVE SMOOTH",
"53 420 OFFCURVE",
"92 400 OFFCURVE",
"127 400 CURVE SMOOTH",
"149 400 OFFCURVE",
"168 408 OFFCURVE",
"180 421 CURVE",
"163 421 LINE",
"143 394 OFFCURVE",
"136 361 OFFCURVE",
"132 335 CURVE SMOOTH",
"97 116 LINE SMOOTH",
"88 57 OFFCURVE",
"75 29 OFFCURVE",
"57 14 CURVE",
"61 -2 LINE",
"72 -2 OFFCURVE",
"83 -6 OFFCURVE",
"96 -6 CURVE SMOOTH"
);
},
{
closed = 1;
nodes = (
"107 429 OFFCURVE",
"89 443 OFFCURVE",
"89 470 CURVE SMOOTH",
"89 501 OFFCURVE",
"112 526 OFFCURVE",
"145 526 CURVE SMOOTH",
"170 526 OFFCURVE",
"188 512 OFFCURVE",
"188 485 CURVE SMOOTH",
"188 454 OFFCURVE",
"165 429 OFFCURVE",
"132 429 CURVE SMOOTH"
);
}
);
width = 626;
}
);
leftMetricsKey = "boBaimai-thai";
note = uni0E1E;
rightMetricsKey = "moMa-thai";
unicode = 0E1E;
},
{
glyphname = "hoHip-thai";
layers = (
{
anchors = (
{
name = bottom;
position = "{425, 0}";
},
{
name = top;
position = "{506, 510}";
}
);
layerId = "5FF70513-4D67-4EEC-9617-036848F9F755";
paths = (
{
closed = 1;
nodes = (
"144 -6 OFFCURVE",
"168 33 OFFCURVE",
"247 172 CURVE SMOOTH",
"323 305 OFFCURVE",
"349 329 OFFCURVE",
"435 379 CURVE SMOOTH",
"473 401 OFFCURVE",
"516 426 OFFCURVE",
"516 480 CURVE SMOOTH",
"516 527 OFFCURVE",
"484 556 OFFCURVE",
"436 556 CURVE SMOOTH",
"379 556 OFFCURVE",
"340 515 OFFCURVE",
"340 457 CURVE SMOOTH",
"340 420 OFFCURVE",
"356 405 OFFCURVE",
"393 379 CURVE SMOOTH",
"436 349 OFFCURVE",
"442 342 OFFCURVE",
"435 297 CURVE SMOOTH",
"388 0 LINE",
"393 -3 OFFCURVE",
"396 -4 OFFCURVE",
"400 -4 CURVE SMOOTH",
"415 -4 OFFCURVE",
"426 7 OFFCURVE",
"430 31 CURVE SMOOTH",
"472 297 LINE SMOOTH",
"482 363 OFFCURVE",
"458 379 OFFCURVE",
"419 403 CURVE SMOOTH",
"389 421 OFFCURVE",
"376 431 OFFCURVE",
"376 459 CURVE SMOOTH",
"376 499 OFFCURVE",
"401 526 OFFCURVE",
"435 526 CURVE SMOOTH",
"464 526 OFFCURVE",
"480 506 OFFCURVE",
"480 476 CURVE SMOOTH",
"480 434 OFFCURVE",
"448 418 OFFCURVE",
"417 403 CURVE SMOOTH",
"328 359 OFFCURVE",
"301 338 OFFCURVE",
"215 186 CURVE SMOOTH",
"156 82 OFFCURVE",
"150 57 OFFCURVE",
"98 28 CURVE",
"96 11 LINE",
"118 41 OFFCURVE",
"126 66 OFFCURVE",
"134 116 CURVE SMOOTH",
"169 335 LINE SMOOTH",
"175 370 OFFCURVE",
"178 386 OFFCURVE",
"199 422 CURVE SMOOTH",
"215 449 OFFCURVE",
"224 460 OFFCURVE",
"224 485 CURVE SMOOTH",
"224 531 OFFCURVE",
"194 556 OFFCURVE",
"148 556 CURVE SMOOTH",
"91 556 OFFCURVE",
"53 518 OFFCURVE",
"53 469 CURVE SMOOTH",
"53 424 OFFCURVE",
"84 400 OFFCURVE",
"127 400 CURVE SMOOTH",
"153 400 OFFCURVE",
"168 408 OFFCURVE",
"180 421 CURVE",
"163 421 LINE",
"142 393 OFFCURVE",
"135 355 OFFCURVE",
"132 335 CURVE SMOOTH",
"97 116 LINE SMOOTH",
"88 57 OFFCURVE",
"75 29 OFFCURVE",
"57 14 CURVE",
"61 -2 LINE",
"73 -2 OFFCURVE",
"82 -6 OFFCURVE",
"97 -6 CURVE SMOOTH"
);
},
{
closed = 1;
nodes = (
"107 429 OFFCURVE",
"89 443 OFFCURVE",
"89 470 CURVE SMOOTH",
"89 501 OFFCURVE",
"112 526 OFFCURVE",
"145 526 CURVE SMOOTH",
"170 526 OFFCURVE",
"188 512 OFFCURVE",
"188 485 CURVE SMOOTH",
"188 454 OFFCURVE",
"165 429 OFFCURVE",
"132 429 CURVE SMOOTH"
);
}
);
width = 547;
}
);
leftMetricsKey = "boBaimai-thai";
note = uni0E2B;
unicode = 0E2B;
},
